# Blender v3.0.1 OBJ File: 'features.blend'
# www.blender.org
mtllib alfombra.mtl
o Prop_Rug_03_Malla.144
v -72.721764 0.000013 -80.674698
v -72.721718 -0.000013 80.674698
v -72.721764 2.685940 -80.674698
v -72.721718 2.685914 80.674698
v 72.721764 2.685940 -80.674606
v 72.721764 2.685914 80.674698
v 72.721764 0.000013 -80.674606
v 72.721764 -0.000013 80.674698
v -67.516495 2.685938 -70.856644
v -67.516541 2.685915 70.856735
v 67.516350 2.685915 70.856689
v 67.516350 2.685938 -70.856689
v -50.351032 2.685935 -47.305443
v -50.351032 2.685919 47.305443
v 50.350842 2.685919 47.305397
v 50.350842 2.685935 -47.305489
v -33.164326 2.685931 -26.760214
v -33.164352 2.685923 26.760225
v 33.164139 2.685923 26.760166
v 33.164162 2.685931 -26.760178
v 119.043175 2.685923 25.920902
v 119.043175 -0.000004 25.920902
v -119.043129 -0.000004 25.920902
v -119.043129 2.685923 25.920902
v -107.271858 2.685923 22.766342
v -74.507118 2.685924 17.321875
v -49.249748 2.685925 12.236966
v 49.249413 2.685925 12.236904
v 74.506889 2.685924 17.321922
v 107.271645 2.685923 22.766294
v 119.043114 2.685931 -25.920807
v 119.043114 0.000004 -25.920807
v -119.043137 0.000004 -25.920902
v -119.043137 2.685931 -25.920902
v -107.271835 2.685931 -22.766342
v -74.507126 2.685930 -17.321970
v -49.249699 2.685929 -12.236951
v 49.249466 2.685929 -12.236918
v 74.506828 2.685930 -17.322016
v 107.271622 2.685931 -22.766390
vt 0.262881 0.442560
vt 0.262881 0.442560
vt 0.262881 0.442560
vt 0.233212 0.198728
vt 0.233212 0.198728
vt 0.233212 0.198728
vt 0.262881 0.442560
vt 0.262881 0.442560
vt 0.262881 0.442560
vt 0.262881 0.442560
vt 0.262881 0.442560
vt 0.262881 0.442560
vt 0.358700 0.442560
vt 0.358700 0.442560
vt 0.358700 0.442560
vt 0.358700 0.442560
vt 0.358700 0.442560
vt 0.358700 0.442560
vt 0.358700 0.442560
vt 0.358700 0.442560
vt 0.358700 0.442560
vt 0.171563 0.198728
vt 0.171563 0.198728
vt 0.171563 0.198728
vt 0.171563 0.198728
vt 0.171563 0.198728
vt 0.171563 0.198728
vt 0.171563 0.198728
vt 0.171563 0.198728
vt 0.171563 0.198728
vt 0.171563 0.198728
vt 0.358700 0.442560
vt 0.358700 0.442560
vt 0.358700 0.442560
vt 0.358700 0.442560
vt 0.358700 0.442560
vt 0.358700 0.442560
vt 0.358700 0.442560
vt 0.358700 0.442560
vt 0.358700 0.442560
vt 0.358700 0.442560
vt 0.262881 0.442560
vt 0.262881 0.442560
vt 0.262881 0.442560
vt 0.262881 0.442560
vt 0.262881 0.442560
vt 0.358700 0.442560
vt 0.171563 0.198728
vt 0.358700 0.442560
vt 0.233212 0.198728
vt 0.233212 0.198728
vt 0.233212 0.198728
vt 0.358700 0.442560
vt 0.358700 0.442560
vt 0.171563 0.198728
vt 0.171563 0.198728
vt 0.358700 0.442560
vt 0.358700 0.442560
vt 0.262881 0.442560
vt 0.262881 0.442560
vt 0.358700 0.442560
vt 0.171563 0.198728
vt 0.358700 0.442560
vt 0.233212 0.198728
vt 0.358700 0.442560
vt 0.171563 0.198728
vt 0.358700 0.442560
vt 0.358700 0.442560
vt 0.358700 0.442560
vt 0.171563 0.198728
vt 0.233212 0.198728
vt 0.358700 0.442560
vn -0.7634 0.0000 -0.6459
vn -0.0000 1.0000 0.0000
vn 0.7634 0.0000 -0.6459
vn 0.0000 -1.0000 -0.0000
vn 0.0000 0.0000 1.0000
vn 0.0000 0.0000 -1.0000
vn 0.7634 0.0000 0.6459
vn -0.7634 0.0000 0.6459
vn 1.0000 0.0000 -0.0000
vn -1.0000 0.0000 0.0000
usemtl lambert1.094
s 1
f 33/1/1 3/2/1 1/3/1
f 17/4/2 38/5/2 20/6/2
f 31/7/3 7/8/3 5/9/3
f 7/8/4 33/1/4 1/3/4
f 8/10/5 4/11/5 2/12/5
f 1/3/6 5/9/6 7/8/6
f 3/13/2 35/14/2 9/15/2
f 4/16/2 11/17/2 10/18/2
f 40/19/2 5/20/2 12/21/2
f 3/13/2 12/21/2 5/20/2
f 9/22/2 36/23/2 13/24/2
f 11/25/2 14/26/2 10/27/2
f 12/28/2 39/29/2 40/30/2
f 9/22/2 16/31/2 12/28/2
f 13/32/2 37/33/2 17/34/2
f 15/35/2 18/36/2 14/37/2
f 16/38/2 38/39/2 39/40/2
f 16/38/2 17/34/2 20/41/2
f 6/42/7 22/43/7 21/44/7
f 22/43/4 2/12/4 23/45/4
f 23/45/8 4/11/8 24/46/8
f 25/47/2 4/16/2 10/18/2
f 26/48/2 10/27/2 14/26/2
f 27/49/2 14/37/2 18/36/2
f 28/50/2 18/51/2 19/52/2
f 15/35/2 28/53/2 19/54/2
f 11/25/2 29/55/2 15/56/2
f 6/57/2 30/58/2 11/17/2
f 21/44/9 32/59/9 31/7/9
f 32/59/4 23/45/4 33/1/4
f 33/1/10 24/46/10 34/60/10
f 34/61/2 25/47/2 35/14/2
f 35/62/2 26/48/2 36/23/2
f 37/33/2 26/63/2 27/49/2
f 37/64/2 28/50/2 38/5/2
f 29/65/2 38/39/2 28/53/2
f 40/30/2 29/55/2 30/66/2
f 30/58/2 31/67/2 40/19/2
f 33/1/1 34/60/1 3/2/1
f 17/4/2 37/64/2 38/5/2
f 31/7/3 32/59/3 7/8/3
f 7/8/4 32/59/4 33/1/4
f 8/10/5 6/42/5 4/11/5
f 1/3/6 3/2/6 5/9/6
f 3/13/2 34/61/2 35/14/2
f 4/16/2 6/57/2 11/17/2
f 40/19/2 31/67/2 5/20/2
f 3/13/2 9/15/2 12/21/2
f 9/22/2 35/62/2 36/23/2
f 11/25/2 15/56/2 14/26/2
f 12/28/2 16/31/2 39/29/2
f 9/22/2 13/24/2 16/31/2
f 13/32/2 36/68/2 37/33/2
f 15/35/2 19/54/2 18/36/2
f 16/38/2 20/41/2 38/39/2
f 16/38/2 13/32/2 17/34/2
f 6/42/7 8/10/7 22/43/7
f 22/43/4 8/10/4 2/12/4
f 23/45/8 2/12/8 4/11/8
f 25/47/2 24/69/2 4/16/2
f 26/48/2 25/70/2 10/27/2
f 27/49/2 26/63/2 14/37/2
f 28/50/2 27/71/2 18/51/2
f 15/35/2 29/65/2 28/53/2
f 11/25/2 30/66/2 29/55/2
f 6/57/2 21/72/2 30/58/2
f 21/44/9 22/43/9 32/59/9
f 32/59/4 22/43/4 23/45/4
f 33/1/10 23/45/10 24/46/10
f 34/61/2 24/69/2 25/47/2
f 35/62/2 25/70/2 26/48/2
f 37/33/2 36/68/2 26/63/2
f 37/64/2 27/71/2 28/50/2
f 29/65/2 39/40/2 38/39/2
f 40/30/2 39/29/2 29/55/2
f 30/58/2 21/72/2 31/67/2
