# Blender v3.0.1 OBJ File: 'features.blend'
# www.blender.org
mtllib arbolito.mtl
o tree_medium_mesh
v -0.175896 -0.014153 0.241262
v 0.180466 -0.014153 0.241262
v 0.180466 2.772648 0.241262
v -0.175896 2.772648 0.241262
v -0.175896 2.772648 -0.135157
v 0.180466 2.772648 -0.135157
v 0.180466 -0.014153 -0.135157
v -0.175896 -0.014153 -0.135157
v 0.958508 3.159245 0.397969
v -0.089638 3.159245 0.397969
v -0.089638 3.159245 1.505111
v 0.958508 3.159245 1.505111
v -0.089638 2.016364 1.505110
v -0.089638 2.016364 0.397968
v 0.958508 2.016364 0.397968
v 0.958508 2.016364 1.505110
v -1.052135 3.383144 0.967010
v -0.044907 3.383144 0.967010
v -0.044907 3.383144 -0.096915
v -1.052135 3.383144 -0.096915
v -0.044907 2.284875 -0.096916
v -0.044907 2.284875 0.967009
v -1.052135 2.284875 0.967009
v -1.052135 2.284875 -0.096916
v -0.309753 3.320360 -0.430263
v 0.877453 3.320360 -0.430263
v 0.877453 3.320360 -1.505109
v -0.309753 3.320360 -1.505109
v 0.877453 2.210818 -1.505110
v 0.877453 2.210818 -0.430264
v -0.309753 2.210818 -0.430264
v -0.309753 2.210818 -1.505110
v -1.009548 3.163059 0.023696
v 0.072319 3.163059 0.023696
v 0.072319 3.163059 -1.119070
v -1.009548 3.163059 -1.119070
v 0.072319 1.983407 -1.119070
v 0.072319 1.983407 0.023695
v -1.009548 1.983407 0.023695
v -1.009548 1.983407 -1.119070
v -0.641430 4.433909 0.634776
v 0.689659 4.433909 0.634776
v 0.689659 4.433909 -0.771237
v -0.641430 4.433909 -0.771237
v 0.689659 2.982510 -0.771238
v 0.689659 2.982510 0.634775
v -0.641430 2.982510 0.634775
v -0.641430 2.982510 -0.771238
v 0.338303 3.172135 -0.466648
v 0.338303 3.172135 0.550923
v 1.413151 3.172135 0.550923
v 1.413151 3.172135 -0.466648
v 1.413151 2.062593 0.550922
v 0.338303 2.062593 0.550922
v 0.338303 2.062593 -0.466648
v 1.413151 2.062593 -0.466648
v -1.413155 2.835091 0.423616
v -0.494175 2.835091 0.423616
v -0.494175 2.835091 -0.547091
v -1.413155 2.835091 -0.547091
v -0.494175 1.833050 -0.547091
v -0.494175 1.833050 0.423616
v -1.413155 1.833050 0.423616
v -1.413155 1.833050 -0.547091
vt 0.430123 0.210866
vt 0.436703 0.217021
vt 0.430123 0.217021
vt 0.412744 0.173010
vt 0.419324 0.179165
vt 0.412744 0.179165
vt 0.197845 0.188303
vt 0.204426 0.194804
vt 0.197845 0.194804
vt 0.197743 0.175684
vt 0.204323 0.182185
vt 0.197743 0.182185
vt 0.174574 0.774253
vt 0.056279 0.899207
vt 0.056279 0.774253
vt 0.938547 0.566397
vt 0.849032 0.471843
vt 0.938547 0.471843
vt 0.928300 0.430745
vt 0.879416 0.484047
vt 0.879416 0.430745
vt 0.490520 0.603569
vt 0.479812 0.614623
vt 0.479812 0.603569
vt 0.334419 0.559956
vt 0.371453 0.519576
vt 0.371453 0.559956
vt 0.136361 0.532709
vt 0.102891 0.567260
vt 0.102891 0.532709
vt 0.174574 0.774253
vt 0.056279 0.899207
vt 0.056279 0.774253
vt 0.854406 0.449587
vt 0.843550 0.438120
vt 0.854406 0.438120
vt 0.294679 0.478739
vt 0.257646 0.519119
vt 0.257646 0.478739
vt 0.334644 0.478739
vt 0.295526 0.519119
vt 0.295526 0.478739
vt 0.334419 0.559956
vt 0.371453 0.519576
vt 0.371453 0.559956
vt 0.532412 0.614748
vt 0.521703 0.625802
vt 0.521703 0.614748
vt 0.174574 0.774253
vt 0.056279 0.899207
vt 0.056279 0.774253
vt 0.938547 0.566397
vt 0.849032 0.471843
vt 0.938547 0.471843
vt 0.928300 0.430745
vt 0.879416 0.484047
vt 0.879416 0.430745
vt 0.841574 0.807834
vt 0.808104 0.842384
vt 0.808104 0.807834
vt 0.096031 0.473868
vt 0.160026 0.404089
vt 0.160026 0.473868
vt 0.705890 0.337142
vt 0.654254 0.390445
vt 0.654254 0.337142
vt 0.174574 0.774253
vt 0.056279 0.899207
vt 0.056279 0.774253
vt 0.938547 0.566397
vt 0.849032 0.471843
vt 0.938547 0.471843
vt 0.344674 0.375433
vt 0.271504 0.455217
vt 0.271504 0.375433
vt 0.841574 0.807834
vt 0.808104 0.842384
vt 0.808104 0.807834
vt 0.096031 0.473868
vt 0.160026 0.404089
vt 0.160026 0.473868
vt 0.345770 0.539489
vt 0.335062 0.550543
vt 0.335062 0.539489
vt 0.174574 0.774253
vt 0.056279 0.899207
vt 0.056279 0.774253
vt 0.698050 0.614325
vt 0.657214 0.408899
vt 0.698050 0.408899
vt 0.294679 0.478739
vt 0.257646 0.519119
vt 0.257646 0.478739
vt 0.841574 0.807834
vt 0.808104 0.842384
vt 0.808104 0.807834
vt 0.080979 0.609334
vt 0.144975 0.539554
vt 0.144975 0.609334
vt 0.547903 0.424656
vt 0.459608 0.515801
vt 0.459608 0.424656
vt 0.174574 0.774253
vt 0.056279 0.899207
vt 0.056279 0.774253
vt 0.938547 0.566397
vt 0.849032 0.471843
vt 0.938547 0.471843
vt 0.928300 0.430745
vt 0.879416 0.484047
vt 0.879416 0.430745
vt 0.334644 0.478739
vt 0.295526 0.519119
vt 0.295526 0.478739
vt 0.841382 0.877325
vt 0.873068 0.842775
vt 0.873068 0.877325
vt 0.413916 0.404089
vt 0.346319 0.473868
vt 0.346319 0.404089
vt 0.174574 0.774253
vt 0.056279 0.899207
vt 0.056279 0.774253
vt 0.854406 0.449587
vt 0.843550 0.438120
vt 0.854406 0.438120
vt 0.294679 0.478739
vt 0.257646 0.519119
vt 0.257646 0.478739
vt 0.334644 0.478739
vt 0.295526 0.519119
vt 0.295526 0.478739
vt 0.682237 0.577111
vt 0.689998 0.568648
vt 0.689998 0.577111
vt 0.547903 0.424656
vt 0.459608 0.515801
vt 0.459608 0.424656
vt 0.436704 0.210866
vt 0.419324 0.173010
vt 0.204426 0.188303
vt 0.204323 0.175684
vt 0.174574 0.899207
vt 0.849032 0.566397
vt 0.928300 0.484047
vt 0.490520 0.614623
vt 0.334419 0.519576
vt 0.136361 0.567260
vt 0.174574 0.899207
vt 0.843550 0.449587
vt 0.294679 0.519119
vt 0.334644 0.519119
vt 0.334419 0.519576
vt 0.532412 0.625802
vt 0.174574 0.899207
vt 0.849032 0.566397
vt 0.928300 0.484047
vt 0.841574 0.842384
vt 0.096031 0.404089
vt 0.705890 0.390445
vt 0.174574 0.899207
vt 0.849032 0.566397
vt 0.344674 0.455217
vt 0.841574 0.842384
vt 0.096031 0.404089
vt 0.345770 0.550543
vt 0.174574 0.899207
vt 0.657214 0.614325
vt 0.294679 0.519119
vt 0.841574 0.842384
vt 0.080979 0.539554
vt 0.547903 0.515801
vt 0.174574 0.899207
vt 0.849032 0.566397
vt 0.928300 0.484047
vt 0.334644 0.519119
vt 0.841382 0.842775
vt 0.413916 0.473868
vt 0.174574 0.899207
vt 0.843550 0.449587
vt 0.294679 0.519119
vt 0.334644 0.519119
vt 0.682237 0.568648
vt 0.547903 0.515801
vn 0.0000 -0.0000 1.0000
vn 0.0000 0.0000 -1.0000
vn 1.0000 -0.0000 0.0000
vn -1.0000 -0.0000 0.0000
vn 0.0000 1.0000 0.0000
vn 0.0000 -1.0000 -0.0000
usemtl Default_OBJ.159
s 1
f 2/1/1 4/2/1 1/3/1
f 6/4/2 8/5/2 5/6/2
f 7/7/3 3/8/3 2/9/3
f 1/10/4 5/11/4 8/12/4
f 10/13/5 12/14/5 9/15/5
f 14/16/6 16/17/6 13/18/6
f 14/19/2 9/20/2 15/21/2
f 13/22/4 10/23/4 14/24/4
f 16/25/1 11/26/1 13/27/1
f 15/28/3 12/29/3 16/30/3
f 18/31/5 20/32/5 17/33/5
f 22/34/6 24/35/6 21/36/6
f 22/37/1 17/38/1 23/39/1
f 21/40/3 18/41/3 22/42/3
f 24/43/2 19/44/2 21/45/2
f 23/46/4 20/47/4 24/48/4
f 26/49/5 28/50/5 25/51/5
f 30/52/6 32/53/6 29/54/6
f 30/55/1 25/56/1 31/57/1
f 29/58/3 26/59/3 30/60/3
f 32/61/2 27/62/2 29/63/2
f 31/64/4 28/65/4 32/66/4
f 34/67/5 36/68/5 33/69/5
f 38/70/6 40/71/6 37/72/6
f 38/73/1 33/74/1 39/75/1
f 37/76/3 34/77/3 38/78/3
f 40/79/2 35/80/2 37/81/2
f 39/82/4 36/83/4 40/84/4
f 42/85/5 44/86/5 41/87/5
f 46/88/6 48/89/6 45/90/6
f 46/91/1 41/92/1 47/93/1
f 45/94/3 42/95/3 46/96/3
f 48/97/2 43/98/2 45/99/2
f 47/100/4 44/101/4 48/102/4
f 50/103/5 52/104/5 49/105/5
f 54/106/6 56/107/6 53/108/6
f 54/109/4 49/110/4 55/111/4
f 53/112/1 50/113/1 54/114/1
f 56/115/3 51/116/3 53/117/3
f 55/118/2 52/119/2 56/120/2
f 58/121/5 60/122/5 57/123/5
f 62/124/6 64/125/6 61/126/6
f 62/127/1 57/128/1 63/129/1
f 61/130/3 58/131/3 62/132/3
f 64/133/2 59/134/2 61/135/2
f 63/136/4 60/137/4 64/138/4
f 2/1/1 3/139/1 4/2/1
f 6/4/2 7/140/2 8/5/2
f 7/7/3 6/141/3 3/8/3
f 1/10/4 4/142/4 5/11/4
f 10/13/5 11/143/5 12/14/5
f 14/16/6 15/144/6 16/17/6
f 14/19/2 10/145/2 9/20/2
f 13/22/4 11/146/4 10/23/4
f 16/25/1 12/147/1 11/26/1
f 15/28/3 9/148/3 12/29/3
f 18/31/5 19/149/5 20/32/5
f 22/34/6 23/150/6 24/35/6
f 22/37/1 18/151/1 17/38/1
f 21/40/3 19/152/3 18/41/3
f 24/43/2 20/153/2 19/44/2
f 23/46/4 17/154/4 20/47/4
f 26/49/5 27/155/5 28/50/5
f 30/52/6 31/156/6 32/53/6
f 30/55/1 26/157/1 25/56/1
f 29/58/3 27/158/3 26/59/3
f 32/61/2 28/159/2 27/62/2
f 31/64/4 25/160/4 28/65/4
f 34/67/5 35/161/5 36/68/5
f 38/70/6 39/162/6 40/71/6
f 38/73/1 34/163/1 33/74/1
f 37/76/3 35/164/3 34/77/3
f 40/79/2 36/165/2 35/80/2
f 39/82/4 33/166/4 36/83/4
f 42/85/5 43/167/5 44/86/5
f 46/88/6 47/168/6 48/89/6
f 46/91/1 42/169/1 41/92/1
f 45/94/3 43/170/3 42/95/3
f 48/97/2 44/171/2 43/98/2
f 47/100/4 41/172/4 44/101/4
f 50/103/5 51/173/5 52/104/5
f 54/106/6 55/174/6 56/107/6
f 54/109/4 50/175/4 49/110/4
f 53/112/1 51/176/1 50/113/1
f 56/115/3 52/177/3 51/116/3
f 55/118/2 49/178/2 52/119/2
f 58/121/5 59/179/5 60/122/5
f 62/124/6 63/180/6 64/125/6
f 62/127/1 58/181/1 57/128/1
f 61/130/3 59/182/3 58/131/3
f 64/133/2 60/183/2 59/134/2
f 63/136/4 57/184/4 60/137/4
