# Blender v3.0.1 OBJ File: 'features.blend'
# www.blender.org
mtllib bed_red.mtl
o Prop_SingleBed_Red_Malla.162
v -89.736351 13.200867 43.223789
v -84.553413 13.200866 43.223789
v -84.553421 13.200866 37.515598
v -89.788177 13.200867 37.515598
v -89.736359 0.000015 43.223789
v -84.540466 0.000014 43.223789
v -84.566376 0.000014 37.515598
v -89.788177 0.000015 37.515598
v -89.736275 13.200878 -43.223866
v -84.553421 13.200877 -43.223866
v -84.553421 13.200877 -37.515675
v -89.788094 13.200878 -37.515675
v -89.736275 0.000015 -43.223866
v -84.540466 0.000014 -43.223866
v -84.566376 0.000014 -37.515675
v -89.788094 0.000015 -37.515675
v 88.221901 13.200838 43.223782
v 93.404755 13.200837 43.223782
v 93.404831 13.200837 37.515591
v 88.170074 13.200838 37.515591
v 88.221893 -0.000014 43.223782
v 93.417702 -0.000015 43.223782
v 93.391792 -0.000015 37.515591
v 88.170074 -0.000014 37.515591
v 88.221893 13.200850 -43.223873
v 93.404831 13.200849 -43.223873
v 93.404747 13.200849 -37.515682
v 88.170074 13.200850 -37.515682
v 88.221893 -0.000014 -43.223873
v 93.417786 -0.000015 -43.223873
v 93.391792 -0.000015 -37.515682
v 88.170074 -0.000014 -37.515682
v -94.415688 52.716175 34.627541
v -52.993668 52.716167 35.428925
v -94.415680 62.542130 34.627541
v -52.993668 62.542122 35.428925
v -93.162781 62.542130 -30.127682
v -51.740849 62.542122 -29.326302
v -93.162781 52.716175 -30.127682
v -51.740849 52.716167 -29.326302
v -91.366302 54.115257 34.686520
v -56.043056 54.115250 35.369946
v -56.043056 60.310699 35.369946
v -91.366302 60.310707 34.686520
v -102.886055 52.716175 52.864395
v 108.855904 52.716141 52.864388
v -102.886055 52.716175 -52.864471
v 108.855904 52.716141 -52.864479
v -21.840719 52.716164 -52.864475
v -32.454773 52.716164 52.864391
v -39.336445 52.716167 -52.864475
v -49.950584 52.716167 52.864395
v -32.454777 23.079651 52.864391
v -49.950588 23.079653 52.864395
v -102.886055 23.079662 52.864395
v -102.886063 23.079662 -52.864471
v -39.336452 23.079651 -52.864475
v -21.840723 23.079649 -52.864475
v 108.855896 23.079628 -52.864479
v 108.855904 23.079628 52.864388
v -50.101265 54.351845 54.210880
v -39.487209 54.351845 -54.210964
v -32.304008 54.351841 54.210876
v -21.689953 54.351841 -54.210964
v -50.101269 23.079653 54.210880
v -32.304012 23.079651 54.210876
v -39.487217 23.079649 -54.210964
v -21.689957 23.079647 -54.210964
v -62.096333 52.716171 -29.526669
v -64.207298 65.605705 -29.567492
v -65.460114 65.605705 35.187733
v -66.984726 63.374283 35.158245
v -64.873848 54.115253 35.199066
v -63.349152 52.716171 35.228642
v -82.807297 52.716175 -29.927315
v -84.918266 65.605713 -29.968138
v -86.171082 65.605713 34.787086
v -84.646385 63.374287 34.816574
v -82.535423 54.115257 34.857395
v -84.060120 52.716175 34.827908
v -98.832794 23.079660 -49.873207
v -39.336452 23.079651 -49.873211
v -21.840723 23.079649 -49.873211
v 104.802628 23.079628 -49.873215
v 104.802635 23.079628 49.873119
v -32.454777 23.079651 49.873123
v -49.950588 23.079653 49.873127
v -98.832787 23.079660 49.873127
v -98.832794 13.200880 -49.873207
v 104.802628 13.200847 -49.873215
v 104.802635 13.200847 49.873119
v -98.832787 13.200880 49.873127
v 98.633377 13.200848 45.320171
v -92.663528 13.200879 45.320179
v -92.663536 13.200879 -45.320255
v 98.633369 13.200848 -45.320263
v -32.454777 52.716164 -7.535180
v -32.304096 54.351841 -7.535180
v -50.101353 54.351845 -9.558106
v -49.950588 52.716167 -9.558106
v -104.486763 83.110954 49.981281
v -101.653595 83.110954 49.981281
v -101.653603 83.110954 -49.472473
v -104.515068 83.110954 -49.472473
v -104.486771 49.599510 49.981281
v -101.646530 49.599510 49.981281
v -101.660759 49.599510 -49.472473
v -104.515068 49.599510 -49.472473
v -108.804070 79.493767 -34.487934
v -103.621132 79.493767 -34.487934
v -103.621132 79.493767 -40.196121
v -108.855888 79.493767 -40.196121
v -108.804077 0.000018 -34.487934
v -103.608185 0.000017 -34.487934
v -103.634094 0.000017 -40.196121
v -108.855896 0.000018 -40.196121
v -108.804062 79.493767 41.936363
v -103.621124 79.493767 41.936363
v -103.621124 79.493767 36.228172
v -108.855881 79.493767 36.228172
v -108.804077 0.000018 41.936363
v -103.608185 0.000017 41.936363
v -103.634094 0.000017 36.228172
v -108.855896 0.000018 36.228172
vt 0.275074 0.398938
vt 0.275074 0.398938
vt 0.275074 0.398938
vt 0.357114 0.398134
vt 0.357114 0.398134
vt 0.357114 0.398134
vt 0.275074 0.398938
vt 0.275074 0.398938
vt 0.275074 0.398938
vt 0.357114 0.398134
vt 0.357114 0.398134
vt 0.357114 0.398134
vt 0.017105 0.398618
vt 0.017105 0.398618
vt 0.017105 0.398618
vt 0.275074 0.398938
vt 0.275074 0.398938
vt 0.275074 0.398938
vt 0.357114 0.398134
vt 0.357114 0.398134
vt 0.357114 0.398134
vt 0.275074 0.398938
vt 0.275074 0.398938
vt 0.275074 0.398938
vt 0.357114 0.398134
vt 0.357114 0.398134
vt 0.357114 0.398134
vt 0.017105 0.398618
vt 0.017105 0.398618
vt 0.017105 0.398618
vt 0.275074 0.398938
vt 0.275074 0.398938
vt 0.275074 0.398938
vt 0.357114 0.398134
vt 0.357114 0.398134
vt 0.357114 0.398134
vt 0.275074 0.398938
vt 0.275074 0.398938
vt 0.275074 0.398938
vt 0.357114 0.398134
vt 0.357114 0.398134
vt 0.357114 0.398134
vt 0.017105 0.398618
vt 0.017105 0.398618
vt 0.017105 0.398618
vt 0.275074 0.398938
vt 0.275074 0.398938
vt 0.275074 0.398938
vt 0.357114 0.398134
vt 0.357114 0.398134
vt 0.357114 0.398134
vt 0.275074 0.398938
vt 0.275074 0.398938
vt 0.275074 0.398938
vt 0.357114 0.398134
vt 0.357114 0.398134
vt 0.357114 0.398134
vt 0.017105 0.398618
vt 0.017105 0.398618
vt 0.017105 0.398618
vt 0.044539 0.442546
vt 0.044539 0.442546
vt 0.044539 0.442546
vt 0.355704 0.442815
vt 0.355703 0.442815
vt 0.355704 0.442815
vt 0.173418 0.442546
vt 0.173418 0.442546
vt 0.173418 0.442546
vt 0.261798 0.444871
vt 0.261798 0.444871
vt 0.261798 0.444871
vt 0.261798 0.444871
vt 0.261798 0.444871
vt 0.261798 0.444871
vt 0.201847 0.444442
vt 0.201847 0.444442
vt 0.201847 0.444442
vt 0.201847 0.444442
vt 0.201847 0.444442
vt 0.201847 0.444442
vt 0.201847 0.444442
vt 0.201847 0.444442
vt 0.201847 0.444442
vt 0.201847 0.444442
vt 0.418697 0.475218
vt 0.418697 0.475218
vt 0.418697 0.475218
vt 0.239555 0.170708
vt 0.239555 0.170708
vt 0.239555 0.170708
vt 0.424790 0.441411
vt 0.424790 0.441411
vt 0.424790 0.441411
vt 0.355505 0.441411
vt 0.355505 0.441411
vt 0.355505 0.441411
vt 0.391181 0.476705
vt 0.391181 0.476705
vt 0.391181 0.476705
vt 0.328711 0.477449
vt 0.328711 0.477449
vt 0.328711 0.477449
vt 0.391181 0.476705
vt 0.391181 0.476705
vt 0.391181 0.476705
vt 0.355505 0.443642
vt 0.355505 0.443642
vt 0.355505 0.443642
vt 0.141037 0.170708
vt 0.141037 0.170708
vt 0.141037 0.170708
vt 0.239555 0.170708
vt 0.239555 0.170708
vt 0.141037 0.170708
vt 0.141037 0.170708
vt 0.141037 0.170708
vt 0.297830 0.443642
vt 0.297830 0.443642
vt 0.297830 0.443642
vt 0.266501 0.442899
vt 0.266501 0.442899
vt 0.266501 0.442899
vt 0.297830 0.443642
vt 0.297830 0.443642
vt 0.233518 0.442495
vt 0.233518 0.442495
vt 0.233518 0.442495
vt 0.266501 0.442899
vt 0.266501 0.442899
vt 0.197821 0.441008
vt 0.197821 0.441008
vt 0.197821 0.441008
vt 0.297830 0.443642
vt 0.297830 0.443642
vt 0.297830 0.443642
vt 0.266501 0.442899
vt 0.266501 0.442899
vt 0.266501 0.442899
vt 0.173418 0.442546
vt 0.173418 0.442546
vt 0.173418 0.442546
vt 0.355704 0.442815
vt 0.355704 0.442815
vt 0.201847 0.444442
vt 0.201847 0.444442
vt 0.044539 0.442546
vt 0.201847 0.444442
vt 0.201847 0.444442
vt 0.173418 0.442546
vt 0.173418 0.442546
vt 0.355704 0.442815
vt 0.355704 0.442815
vt 0.201847 0.444442
vt 0.044539 0.442546
vt 0.044539 0.442546
vt 0.201847 0.444442
vt 0.046852 0.443239
vt 0.046852 0.443239
vt 0.046852 0.443239
vt 0.262522 0.474474
vt 0.262522 0.474474
vt 0.262522 0.474474
vt 0.197821 0.441008
vt 0.020080 0.171049
vt 0.020080 0.171049
vt 0.020080 0.171049
vt 0.020080 0.171049
vt 0.020080 0.171049
vt 0.020080 0.171049
vt 0.020080 0.171049
vt 0.233518 0.442495
vt 0.262522 0.474474
vt 0.262522 0.474474
vt 0.262522 0.474474
vt 0.262522 0.474474
vt 0.204515 0.442495
vt 0.204515 0.442495
vt 0.204515 0.442495
vt 0.204515 0.442495
vt 0.204515 0.442495
vt 0.204515 0.442495
vt 0.204515 0.442495
vt 0.204515 0.442495
vt 0.204515 0.442495
vt 0.204515 0.442495
vt 0.204515 0.442495
vt 0.204515 0.442495
vt 0.204515 0.442495
vt 0.204515 0.442495
vt 0.204515 0.442495
vt 0.204515 0.442495
vt 0.424790 0.441411
vt 0.275074 0.398938
vt 0.275074 0.398938
vt 0.275074 0.398938
vt 0.357114 0.398134
vt 0.357114 0.398134
vt 0.357114 0.398134
vt 0.275074 0.398938
vt 0.275074 0.398938
vt 0.275074 0.398938
vt 0.357114 0.398134
vt 0.357114 0.398134
vt 0.357114 0.398134
vt 0.017105 0.398618
vt 0.017105 0.398618
vt 0.017105 0.398618
vt 0.457369 0.400105
vt 0.457369 0.400105
vt 0.457369 0.400105
vt 0.275074 0.398938
vt 0.275074 0.398938
vt 0.275074 0.398938
vt 0.357114 0.398134
vt 0.357114 0.398134
vt 0.357114 0.398134
vt 0.275074 0.398938
vt 0.275074 0.398938
vt 0.275074 0.398938
vt 0.357114 0.398134
vt 0.357114 0.398134
vt 0.357114 0.398134
vt 0.017105 0.398618
vt 0.017105 0.398618
vt 0.017105 0.398618
vt 0.275074 0.398938
vt 0.275074 0.398938
vt 0.275074 0.398938
vt 0.357114 0.398134
vt 0.357114 0.398134
vt 0.357114 0.398134
vt 0.275074 0.398938
vt 0.275074 0.398938
vt 0.275074 0.398938
vt 0.357114 0.398134
vt 0.357114 0.398134
vt 0.357114 0.398134
vt 0.017105 0.398618
vt 0.017105 0.398618
vt 0.017105 0.398618
vt 0.457369 0.400105
vt 0.457369 0.400105
vt 0.457369 0.400105
vt 0.457369 0.400105
vt 0.457369 0.400105
vt 0.457369 0.400105
vt 0.275074 0.398938
vt 0.357114 0.398134
vt 0.275074 0.398938
vt 0.357114 0.398134
vt 0.017105 0.398618
vt 0.275074 0.398938
vt 0.357114 0.398134
vt 0.275074 0.398938
vt 0.357114 0.398134
vt 0.017105 0.398618
vt 0.275074 0.398938
vt 0.357114 0.398134
vt 0.275074 0.398938
vt 0.357114 0.398134
vt 0.017105 0.398618
vt 0.275074 0.398938
vt 0.357114 0.398134
vt 0.275074 0.398938
vt 0.357114 0.398134
vt 0.017105 0.398618
vt 0.044539 0.442546
vt 0.355703 0.442815
vt 0.261798 0.444871
vt 0.261798 0.444871
vt 0.418697 0.475218
vt 0.418697 0.475218
vt 0.239555 0.170708
vt 0.424790 0.441411
vt 0.355505 0.441411
vt 0.391181 0.476705
vt 0.328711 0.477449
vt 0.391181 0.476705
vt 0.355505 0.443642
vt 0.141037 0.170708
vt 0.239555 0.170708
vt 0.141037 0.170708
vt 0.266501 0.442899
vt 0.297830 0.443642
vt 0.233518 0.442495
vt 0.197821 0.441008
vt 0.297830 0.443642
vt 0.266501 0.442899
vt 0.044539 0.442546
vt 0.046852 0.443239
vt 0.262522 0.474474
vt 0.197821 0.441008
vt 0.020080 0.171049
vt 0.233518 0.442495
vt 0.424790 0.441411
vt 0.275074 0.398938
vt 0.357114 0.398134
vt 0.275074 0.398938
vt 0.357114 0.398134
vt 0.017105 0.398618
vt 0.457369 0.400105
vt 0.275074 0.398938
vt 0.357114 0.398134
vt 0.275074 0.398938
vt 0.357114 0.398134
vt 0.017105 0.398618
vt 0.275074 0.398938
vt 0.357114 0.398134
vt 0.275074 0.398938
vt 0.357114 0.398134
vt 0.017105 0.398618
vt 0.457369 0.400105
vt 0.457369 0.400105
vn 0.0000 0.0000 1.0000
vn 1.0000 -0.0005 -0.0034
vn 1.0000 0.0005 -0.0012
vn 1.0000 0.0010 -0.0000
vn 0.0000 0.0000 -1.0000
vn -1.0000 0.0000 0.0091
vn -0.0000 -1.0000 -0.0000
vn 1.0000 0.0005 0.0012
vn 1.0000 -0.0005 0.0034
vn -1.0000 0.0000 -0.0091
vn -0.0193 -0.0000 0.9998
vn 0.2386 0.9711 0.0046
vn 0.0193 0.0000 -0.9998
vn 0.9998 0.0000 0.0193
vn -0.9998 0.0000 -0.0193
vn -0.0193 0.0001 0.9998
vn 0.0000 1.0000 -0.0000
vn -1.0000 0.0000 0.0000
vn 1.0000 0.0000 -0.0000
vn -0.9958 -0.0917 0.0000
vn -0.9958 -0.0918 0.0000
vn 0.9958 -0.0918 -0.0000
vn 0.9958 -0.0917 -0.0000
vn -0.9938 0.0000 -0.1112
vn 0.9938 -0.0000 -0.1113
vn -0.9938 0.0000 0.1113
vn 0.9938 -0.0000 0.1113
vn -0.3482 0.9374 -0.0067
vn 0.9701 -0.0853 0.2270
vn 0.9712 0.0894 0.2209
vn 0.9709 0.0923 0.2208
vn -0.9670 -0.0936 -0.2368
vn -0.9376 -0.2667 -0.2230
vn -0.9674 -0.0892 -0.2371
vn 1.0000 0.0001 -0.0000
vn 1.0000 -0.0001 -0.0001
vn 1.0000 0.0002 -0.0000
vn -1.0000 0.0000 0.0003
vn 1.0000 -0.0001 -0.0043
vn 1.0000 0.0001 -0.0002
vn 1.0000 -0.0010 -0.0045
vn 1.0000 -0.0010 0.0045
vn 1.0000 -0.0010 0.0046
vn 0.9698 -0.0893 0.2271
vn -0.9368 -0.2697 -0.2227
vn 1.0000 -0.0002 -0.0001
vn 1.0000 -0.0002 -0.0045
usemtl Interiors:lambert121.049
s 1
f 5/1/1 2/2/1 1/3/1
f 6/4/2 3/5/3 2/6/4
f 7/7/5 4/8/5 3/9/5
f 8/10/6 1/11/6 4/12/6
f 7/13/7 5/14/7 8/15/7
f 10/16/5 13/17/5 9/18/5
f 11/19/8 14/20/9 10/21/4
f 12/22/1 15/23/1 11/24/1
f 9/25/10 16/26/10 12/27/10
f 13/28/7 15/29/7 16/30/7
f 21/31/1 18/32/1 17/33/1
f 22/34/2 19/35/3 18/36/4
f 23/37/5 20/38/5 19/39/5
f 24/40/6 17/41/6 20/42/6
f 23/43/7 21/44/7 24/45/7
f 26/46/5 29/47/5 25/48/5
f 27/49/8 30/50/9 26/51/4
f 28/52/1 31/53/1 27/54/1
f 25/55/10 32/56/10 28/57/10
f 29/58/7 31/59/7 32/60/7
f 73/61/11 43/62/11 72/63/11
f 71/64/12 38/65/12 70/66/12
f 69/67/13 38/68/13 40/69/13
f 40/70/14 36/71/14 34/72/14
f 33/73/15 37/74/15 39/75/15
f 74/76/11 42/77/11 73/78/16
f 34/79/11 43/80/11 42/77/11
f 71/81/11 43/80/11 36/82/11
f 33/83/11 44/84/11 35/85/11
f 100/86/17 51/87/17 47/88/17
f 48/89/17 49/90/17 97/91/17
f 61/92/17 98/93/17 99/94/17
f 65/95/1 63/96/1 61/97/1
f 54/98/1 45/99/1 55/100/1
f 45/101/18 56/102/18 55/103/18
f 51/104/5 56/105/5 47/106/5
f 67/107/5 64/108/5 68/109/5
f 58/110/5 48/111/5 59/112/5
f 46/113/19 59/114/19 48/89/19
f 53/115/1 46/116/1 50/117/1
f 52/118/20 99/119/21 100/120/21
f 50/121/22 98/122/23 63/123/22
f 52/118/24 65/124/24 61/125/24
f 53/126/7 65/127/7 54/128/7
f 50/121/25 66/129/25 53/130/25
f 57/131/7 68/132/7 58/133/7
f 51/134/26 67/135/26 57/136/26
f 49/137/27 68/138/27 64/139/27
f 70/140/13 75/141/13 76/142/13
f 71/64/17 76/143/17 77/144/17
f 71/81/11 78/145/11 72/146/11
f 72/63/11 79/147/11 73/61/11
f 80/148/11 73/78/16 79/149/11
f 37/150/13 75/141/13 39/151/13
f 35/152/28 76/143/28 37/153/28
f 77/154/11 44/84/11 78/145/11
f 79/147/11 44/155/11 41/156/11
f 80/148/11 41/157/11 33/83/11
f 94/158/7 96/159/7 93/160/7
f 57/161/7 81/162/7 56/163/7
f 58/133/7 82/164/7 57/131/7
f 58/165/7 84/166/7 83/167/7
f 85/168/7 59/169/7 60/170/7
f 53/171/7 85/168/7 60/170/7
f 54/128/7 86/172/7 53/126/7
f 54/173/7 88/174/7 87/175/7
f 55/176/7 81/162/7 88/174/7
f 81/177/5 82/178/5 89/179/5
f 82/178/5 83/180/5 89/179/5
f 83/180/5 90/181/5 89/179/5
f 91/182/19 84/183/19 85/184/19
f 85/184/1 86/185/1 91/182/1
f 86/185/1 87/186/1 92/187/1
f 87/186/1 88/188/1 92/187/1
f 88/188/18 89/179/18 92/187/18
f 91/182/1 86/185/1 92/187/1
f 83/180/5 84/183/5 90/181/5
f 92/187/7 93/189/7 91/182/7
f 92/187/7 95/190/7 94/191/7
f 90/181/7 95/190/7 89/179/7
f 96/192/7 91/182/7 93/189/7
f 98/122/29 49/137/30 64/139/31
f 98/93/17 62/193/17 99/94/17
f 99/119/32 51/134/33 100/120/34
f 105/194/1 102/195/1 101/196/1
f 106/197/35 103/198/36 102/199/37
f 107/200/5 104/201/5 103/202/5
f 108/203/38 101/204/38 104/205/38
f 107/206/7 105/207/7 108/208/7
f 103/209/17 101/210/17 102/211/17
f 113/212/1 110/213/1 109/214/1
f 114/215/39 111/216/40 110/217/37
f 115/218/5 112/219/5 111/220/5
f 116/221/6 109/222/6 112/223/6
f 115/224/7 113/225/7 116/226/7
f 121/227/1 118/228/1 117/229/1
f 122/230/39 119/231/40 118/232/37
f 123/233/5 120/234/5 119/235/5
f 124/236/6 117/237/6 120/238/6
f 123/239/7 121/240/7 124/241/7
f 111/242/17 109/243/17 110/244/17
f 119/245/17 117/246/17 118/247/17
f 5/1/1 6/248/1 2/2/1
f 6/4/2 7/249/41 3/5/3
f 7/7/5 8/250/5 4/8/5
f 8/10/6 5/251/6 1/11/6
f 7/13/7 6/252/7 5/14/7
f 10/16/5 14/253/5 13/17/5
f 11/19/8 15/254/42 14/20/9
f 12/22/1 16/255/1 15/23/1
f 9/25/10 13/256/10 16/26/10
f 13/28/7 14/257/7 15/29/7
f 21/31/1 22/258/1 18/32/1
f 22/34/2 23/259/41 19/35/3
f 23/37/5 24/260/5 20/38/5
f 24/40/6 21/261/6 17/41/6
f 23/43/7 22/262/7 21/44/7
f 26/46/5 30/263/5 29/47/5
f 27/49/8 31/264/43 30/50/9
f 28/52/1 32/265/1 31/53/1
f 25/55/10 29/266/10 32/56/10
f 29/58/7 30/267/7 31/59/7
f 73/61/11 42/268/11 43/62/11
f 71/64/12 36/269/12 38/65/12
f 69/67/13 70/140/13 38/68/13
f 40/70/14 38/270/14 36/71/14
f 33/73/15 35/271/15 37/74/15
f 74/76/11 34/79/11 42/77/11
f 34/79/11 36/82/11 43/80/11
f 71/81/11 72/146/11 43/80/11
f 33/83/11 41/157/11 44/84/11
f 47/88/17 45/272/17 100/86/17
f 45/272/17 52/273/17 100/86/17
f 97/91/17 50/274/17 46/113/17
f 46/113/17 48/89/17 97/91/17
f 61/92/17 63/275/17 98/93/17
f 65/95/1 66/276/1 63/96/1
f 54/98/1 52/277/1 45/99/1
f 45/101/18 47/278/18 56/102/18
f 51/104/5 57/279/5 56/105/5
f 67/107/5 62/280/5 64/108/5
f 58/110/5 49/281/5 48/111/5
f 46/113/19 60/282/19 59/114/19
f 53/115/1 60/283/1 46/116/1
f 52/118/20 61/125/20 99/119/21
f 50/121/22 97/284/23 98/122/23
f 52/118/24 54/285/24 65/124/24
f 53/126/7 66/286/7 65/127/7
f 50/121/25 63/123/25 66/129/25
f 57/131/7 67/287/7 68/132/7
f 51/134/26 62/288/26 67/135/26
f 49/137/27 58/289/27 68/138/27
f 70/140/13 69/67/13 75/141/13
f 71/64/17 70/66/17 76/143/17
f 71/81/11 77/154/11 78/145/11
f 72/63/11 78/290/11 79/147/11
f 80/148/11 74/76/16 73/78/16
f 37/150/13 76/142/13 75/141/13
f 35/152/28 77/144/28 76/143/28
f 77/154/11 35/85/11 44/84/11
f 79/147/11 78/290/11 44/155/11
f 80/148/11 79/149/11 41/157/11
f 94/158/7 95/291/7 96/159/7
f 57/161/7 82/292/7 81/162/7
f 58/133/7 83/293/7 82/164/7
f 58/165/7 59/169/7 84/166/7
f 85/168/7 84/166/7 59/169/7
f 53/171/7 86/294/7 85/168/7
f 54/128/7 87/295/7 86/172/7
f 54/173/7 55/176/7 88/174/7
f 55/176/7 56/163/7 81/162/7
f 91/182/19 90/181/19 84/183/19
f 88/188/18 81/177/18 89/179/18
f 92/187/7 94/191/7 93/189/7
f 92/187/7 89/179/7 95/190/7
f 90/181/7 96/192/7 95/190/7
f 96/192/7 90/181/7 91/182/7
f 98/122/29 97/284/44 49/137/30
f 98/93/17 64/296/17 62/193/17
f 99/119/32 62/288/45 51/134/33
f 105/194/1 106/297/1 102/195/1
f 106/197/35 107/298/46 103/198/36
f 107/200/5 108/299/5 104/201/5
f 108/203/38 105/300/38 101/204/38
f 107/206/7 106/301/7 105/207/7
f 103/209/17 104/302/17 101/210/17
f 113/212/1 114/303/1 110/213/1
f 114/215/39 115/304/47 111/216/40
f 115/218/5 116/305/5 112/219/5
f 116/221/6 113/306/6 109/222/6
f 115/224/7 114/307/7 113/225/7
f 121/227/1 122/308/1 118/228/1
f 122/230/39 123/309/47 119/231/40
f 123/233/5 124/310/5 120/234/5
f 124/236/6 121/311/6 117/237/6
f 123/239/7 122/312/7 121/240/7
f 111/242/17 112/313/17 109/243/17
f 119/245/17 120/314/17 117/246/17
