# 3ds Max Wavefront OBJ Exporter v0.99 - (c)2007 guruware
# File Created: 10.05.2022 22:53:51

mtllib FenixPieDer.mtl

#
# object pie_derecho001
#

v  0.0972 -0.7413 -0.1253
v  0.0972 -0.7413 0.1247
v  -0.1445 -0.7413 0.1247
v  -0.1445 -0.7413 -0.1253
v  -0.1445 0.0287 0.1247
v  0.0972 0.0287 0.1247
v  0.0972 0.0287 -0.1253
v  -0.1445 0.0287 -0.1253
# 8 vertices

vn 0.0000 -1.0000 -0.0000
vn 0.0000 1.0000 -0.0000
vn -1.0000 0.0000 -0.0000
vn 0.0000 0.0000 1.0000
vn 1.0000 0.0000 -0.0000
vn 0.0000 0.0000 -1.0000
# 6 vertex normals

vt 0.1824 0.6958 0.0000
vt 0.1824 0.7434 0.0000
vt 0.1364 0.7434 0.0000
vt 0.1364 0.6958 0.0000
vt 0.7516 0.3250 0.0000
vt 0.8155 0.3250 0.0000
vt 0.8155 0.3911 0.0000
vt 0.7516 0.3911 0.0000
vt 0.1106 0.5372 0.0000
vt 0.1105 0.6553 0.0000
vt 0.0722 0.6553 0.0000
vt 0.0722 0.5372 0.0000
vt 0.1219 0.5340 0.0000
vt 0.1219 0.6867 0.0000
vt 0.0758 0.6867 0.0000
vt 0.0758 0.5340 0.0000
vt 0.3800 0.0229 0.0000
vt 0.3799 0.2265 0.0000
vt 0.3138 0.2265 0.0000
vt 0.3138 0.0228 0.0000
vt 0.0574 0.6861 0.0000
vt 0.0575 0.5332 0.0000
vt 0.1055 0.5332 0.0000
vt 0.1054 0.6861 0.0000
# 24 texture coords

o pie_derecho001
g pie_derecho001
usemtl FenixPieDer_FenixPieIzq_JettCompleta_Material_001_003
s 1
f 1/1/1 2/2/1 3/3/1 
f 3/3/1 4/4/1 1/1/1 
f 5/5/2 6/6/2 7/7/2 
f 7/7/2 8/8/2 5/5/2 
f 3/9/3 5/10/3 8/11/3 
f 8/11/3 4/12/3 3/9/3 
f 2/13/4 6/14/4 5/15/4 
f 5/15/4 3/16/4 2/13/4 
f 1/17/5 7/18/5 6/19/5 
f 6/19/5 2/20/5 1/17/5 
f 7/21/6 1/22/6 4/23/6 
f 4/23/6 8/24/6 7/21/6 
# 12 faces

