# 3ds Max Wavefront OBJ Exporter v0.99 - (c)2007 guruware
# File Created: 10.05.2022 23:28:38

mtllib FenixBrazoDer.mtl

#
# object brazo_izquierdo_001
#

v  0.0873 -0.7046 0.1144
v  -0.1127 -0.7046 0.1144
v  -0.1127 -0.7046 -0.0856
v  0.0873 -0.7046 -0.0856
v  -0.1127 0.0334 -0.0856
v  -0.1127 0.0334 0.1144
v  0.0873 0.0334 0.1144
v  0.0873 0.0334 -0.0856
# 8 vertices

vn 0.0000 -1.0000 -0.0000
vn 0.0000 1.0000 -0.0000
vn 1.0000 0.0000 -0.0000
vn 0.0000 0.0000 1.0000
vn -1.0000 0.0000 -0.0000
vn 0.0000 0.0000 -1.0000
# 6 vertex normals

vt 0.6441 0.5960 0.0000
vt 0.6970 0.5960 0.0000
vt 0.6970 0.5431 0.0000
vt 0.6441 0.5431 0.0000
vt 0.7417 0.7411 0.0000
vt 0.7417 0.6882 0.0000
vt 0.6888 0.6882 0.0000
vt 0.6888 0.7411 0.0000
vt 0.6910 0.7017 0.0000
vt 0.7439 0.7017 0.0000
vt 0.7439 0.5064 0.0000
vt 0.6910 0.5064 0.0000
vt 0.8346 0.6901 0.0000
vt 0.7831 0.6901 0.0000
vt 0.7831 0.4999 0.0000
vt 0.8346 0.4999 0.0000
vt 0.7954 0.6824 0.0000
vt 0.8452 0.6824 0.0000
vt 0.8452 0.4988 0.0000
vt 0.7954 0.4988 0.0000
vt 0.7446 0.5034 0.0000
vt 0.6917 0.5034 0.0000
vt 0.6917 0.6987 0.0000
vt 0.7446 0.6987 0.0000
# 24 texture coords

o brazo_izquierdo_001
g brazo_izquierdo_001
usemtl FenixBrazoDer_FenixBrazoDer_JettCompleta_Material_001_001
s 1
f 1/1/1 2/2/1 3/3/1 
f 3/3/1 4/4/1 1/1/1 
f 5/5/2 6/6/2 7/7/2 
f 7/7/2 8/8/2 5/5/2 
f 8/9/3 7/10/3 1/11/3 
f 1/11/3 4/12/3 8/9/3 
f 7/13/4 6/14/4 2/15/4 
f 2/15/4 1/16/4 7/13/4 
f 6/17/5 5/18/5 3/19/5 
f 3/19/5 2/20/5 6/17/5 
f 4/21/6 3/22/6 5/23/6 
f 5/23/6 8/24/6 4/21/6 
# 12 faces

