# 3ds Max Wavefront OBJ Exporter v0.99 - (c)2007 guruware
# File Created: 10.05.2022 22:37:10

mtllib FenixCaraTorso.mtl

#
# object dorso
#

v  0.2397 0.8361 0.0991
v  -0.2603 0.8361 0.0991
v  -0.2603 0.8361 -0.1509
v  0.2397 0.8361 -0.1509
v  -0.2603 1.5867 -0.1509
v  -0.2603 1.5867 0.0991
v  0.2397 1.5867 0.0991
v  0.2397 1.5867 -0.1509
v  -0.2636 0.8446 -0.1259
v  -0.2636 1.5826 -0.1259
v  -0.2636 1.5826 0.0741
v  -0.2636 0.8446 0.0741
# 12 vertices

vn 0.0000 -1.0000 -0.0000
vn 0.0000 1.0000 -0.0000
vn 1.0000 0.0000 -0.0000
vn 0.0000 0.0000 1.0000
vn -1.0000 0.0000 -0.0000
vn 0.0000 0.0000 -1.0000
# 6 vertex normals

vt 0.3308 0.2920 0.0000
vt 0.1986 0.2920 0.0000
vt 0.1986 0.2259 0.0000
vt 0.3308 0.2259 0.0000
vt 0.3193 0.8328 0.0000
vt 0.3193 0.7667 0.0000
vt 0.4515 0.7667 0.0000
vt 0.4515 0.8328 0.0000
vt 0.6443 0.2159 0.0000
vt 0.5781 0.2159 0.0000
vt 0.5781 0.0174 0.0000
vt 0.6443 0.0174 0.0000
vt 0.4348 0.6747 0.0000
vt 0.3174 0.6747 0.0000
vt 0.3174 0.4981 0.0000
vt 0.4348 0.4981 0.0000
vt 0.6500 0.2264 0.0000
vt 0.5839 0.2264 0.0000
vt 0.5839 0.0278 0.0000
vt 0.6500 0.0278 0.0000
vt 0.5089 0.5196 0.0000
vt 0.6189 0.5196 0.0000
vt 0.6189 0.6849 0.0000
vt 0.5089 0.6849 0.0000
vt 0.7380 0.5064 0.0000
vt 0.7380 0.7017 0.0000
vt 0.6851 0.7017 0.0000
vt 0.6851 0.5064 0.0000
# 28 texture coords

o dorso
g dorso
usemtl FenixCaraTorso_FenixCaraTorso_Material_001
s 1
f 1/1/1 2/2/1 3/3/1 
f 3/3/1 4/4/1 1/1/1 
f 5/5/2 6/6/2 7/7/2 
f 7/7/2 8/8/2 5/5/2 
f 8/9/3 7/10/3 1/11/3 
f 1/11/3 4/12/3 8/9/3 
f 7/13/4 6/14/4 2/15/4 
f 2/15/4 1/16/4 7/13/4 
f 6/17/5 5/18/5 3/19/5 
f 3/19/5 2/20/5 6/17/5 
f 4/21/6 3/22/6 5/23/6 
f 5/23/6 8/24/6 4/21/6 
f 9/25/3 10/26/3 11/27/3 
f 11/27/3 12/28/3 9/25/3 
# 14 faces

#
# object cabeza
#

v  0.2279 1.5886 0.2241
v  -0.2721 1.5886 0.2241
v  -0.2721 1.5886 -0.2759
v  0.2279 1.5886 -0.2759
v  0.2279 2.0886 0.2241
v  0.2279 2.0886 -0.2759
v  -0.2721 2.0886 -0.2759
v  -0.2721 2.0886 0.2241
# 8 vertices

vn 0.0000 -1.0000 -0.0000
vn 0.0000 1.0000 -0.0000
vn 1.0000 0.0000 -0.0000
vn 0.0000 0.0000 1.0000
vn -1.0000 0.0000 -0.0000
vn 0.0000 0.0000 -1.0000
# 6 vertex normals

vt 0.3787 0.9968 0.0000
vt 0.2464 0.9975 0.0000
vt 0.2457 0.8652 0.0000
vt 0.3780 0.8646 0.0000
vt 0.7539 0.8681 0.0000
vt 0.7539 1.0004 0.0000
vt 0.6217 1.0004 0.0000
vt 0.6217 0.8681 0.0000
vt 0.3527 0.7597 0.0000
vt 0.3527 0.8720 0.0000
vt 0.2404 0.8720 0.0000
vt 0.2404 0.7597 0.0000
vt 0.2516 0.8764 0.0000
vt 0.1229 0.8764 0.0000
vt 0.1229 0.7475 0.0000
vt 0.2516 0.7475 0.0000
vt 0.1311 0.7485 0.0000
vt 0.1311 0.8808 0.0000
vt -0.0012 0.8808 0.0000
vt -0.0012 0.7485 0.0000
vt 0.1321 0.8785 0.0000
vt 0.2513 0.8785 0.0000
vt 0.2513 0.9978 0.0000
vt 0.1321 0.9978 0.0000
vt 0.7509 0.7490 0.0000
vt 0.6222 0.7490 0.0000
vt 0.7509 0.8779 0.0000
vt 0.6222 0.8779 0.0000
# 28 texture coords

o cabeza
g cabeza
usemtl FenixCaraTorso_FenixCaraTorso_Material_001
s 1
f 13/29/7 14/30/7 15/31/7 
f 15/31/7 16/32/7 13/29/7 
f 17/33/8 18/34/8 19/35/8 
f 19/35/8 20/36/8 17/33/8 
f 16/37/9 18/38/9 17/39/9 
f 17/39/9 13/40/9 16/37/9 
f 17/41/10 20/42/10 14/43/10 
f 14/43/10 13/44/10 17/41/10 
f 14/45/11 20/46/11 19/47/11 
f 19/47/11 15/48/11 14/45/11 
f 16/49/12 15/50/12 19/51/12 
f 19/51/12 18/52/12 16/49/12 
f 13/53/10 13/53/10 14/54/10 
f 14/54/10 14/54/10 13/53/10 
f 17/55/10 13/53/10 13/53/10 
f 13/53/10 17/55/10 17/55/10 
f 14/54/10 20/56/10 20/56/10 
f 20/56/10 14/54/10 14/54/10 
f 20/56/10 17/55/10 17/55/10 
f 17/55/10 20/56/10 20/56/10 
# 20 faces

