# 3ds Max Wavefront OBJ Exporter v0.99 - (c)2007 guruware
# File Created: 14.05.2022 09:48:51

mtllib helice_white_helicopter.mtl

#
# object blades
#

v  0.0000 -0.3550 -0.1218
v  0.0000 0.1791 -0.1218
v  0.0861 0.1791 -0.0861
v  0.0861 -0.3550 -0.0861
v  0.1218 0.1791 0.0000
v  0.1218 -0.3550 0.0000
v  0.0861 0.1791 0.0861
v  0.0861 -0.3550 0.0861
v  0.0000 0.1791 0.1218
v  0.0000 -0.3550 0.1218
v  0.1737 0.1791 0.0000
v  0.1228 0.1791 -0.1228
v  0.0000 0.1791 -0.1737
v  0.1228 0.1791 0.1229
v  0.0000 0.1791 0.1737
v  0.1228 0.3232 0.1229
v  0.0000 0.3232 0.1737
v  0.3006 0.3232 0.0000
v  0.1737 0.3232 0.0000
v  0.2497 0.3232 0.1229
v  0.3006 0.2307 0.0000
v  0.2497 0.2307 0.1229
v  0.0000 0.3232 -0.1737
v  0.1228 0.3232 -0.1228
v  0.0000 0.3550 -0.0798
v  0.0759 0.3550 -0.0565
v  0.0759 0.3550 0.0565
v  0.0833 0.3550 0.0000
v  5.6975 0.2570 -0.1205
v  5.7474 0.2570 0.0000
v  5.4069 0.2570 0.0000
v  5.4069 0.2570 -0.1205
v  5.6975 0.2898 0.1205
v  5.4069 0.2898 0.1205
v  5.4069 0.2570 0.1205
v  5.6975 0.2570 0.1205
v  0.2497 0.3232 -0.1228
v  0.2497 0.2307 -0.1228
v  0.3006 0.2898 0.0000
v  0.2577 0.2898 -0.1035
v  0.2577 0.2570 0.1036
v  0.3006 0.2570 0.0000
v  0.2577 0.2570 -0.1035
v  0.2577 0.2898 0.1036
v  5.7474 0.2898 0.0000
v  5.6975 0.2898 -0.1205
v  5.4069 0.2898 -0.1205
v  5.4069 0.2898 0.0000
v  0.0000 0.3550 0.0799
v  0.0000 0.3550 0.0000
v  -0.0861 -0.3550 -0.0861
v  -0.0861 0.1791 -0.0861
v  -0.1218 -0.3550 0.0000
v  -0.1218 0.1791 0.0000
v  -0.0861 -0.3550 0.0861
v  -0.0861 0.1791 0.0861
v  -0.1737 0.1791 0.0000
v  -0.1228 0.1791 -0.1228
v  -0.1228 0.1791 0.1229
v  -0.1228 0.3232 0.1229
v  -0.2497 0.3232 0.1229
v  -0.1737 0.3232 0.0000
v  -0.3006 0.3232 0.0000
v  -0.2497 0.2307 0.1229
v  -0.3006 0.2307 0.0000
v  -0.1228 0.3232 -0.1228
v  -0.0759 0.3550 -0.0565
v  -0.0759 0.3550 0.0565
v  -0.0833 0.3550 0.0000
v  -5.4069 0.2570 0.0000
v  -5.7474 0.2570 0.0000
v  -5.6975 0.2570 -0.1205
v  -5.4069 0.2570 -0.1205
v  -5.6975 0.2570 0.1205
v  -5.4069 0.2570 0.1205
v  -5.4069 0.2898 0.1205
v  -5.6975 0.2898 0.1205
v  -0.2497 0.3232 -0.1228
v  -0.2497 0.2307 -0.1228
v  -0.2577 0.2898 -0.1035
v  -0.3006 0.2898 0.0000
v  -0.2577 0.2570 0.1036
v  -0.3006 0.2570 0.0000
v  -0.2577 0.2570 -0.1035
v  -0.2577 0.2898 0.1036
v  -5.6975 0.2898 -0.1205
v  -5.7474 0.2898 0.0000
v  -5.4069 0.2898 -0.1205
v  -5.4069 0.2898 0.0000
# 89 vertices

vn 0.3827 0.0000 -0.9239
vn 0.9239 0.0000 -0.3827
vn 0.9239 0.0000 0.3827
vn 0.3827 0.0000 0.9239
vn 0.0000 -1.0000 -0.0000
vn 0.0000 1.0000 -0.0000
vn 0.3724 -0.9151 0.1543
vn 0.1250 0.9340 -0.3347
vn 0.3693 0.9215 0.1199
vn 0.0000 0.0000 1.0000
vn 0.0000 0.0000 -1.0000
vn 0.3724 -0.9151 -0.1543
vn 0.1250 0.9340 0.3347
vn 0.3693 0.9215 -0.1199
vn -0.0033 0.0000 -1.0000
vn -0.0033 0.0000 1.0000
vn -0.3827 0.0000 -0.9239
vn -0.9239 0.0000 -0.3827
vn -0.9239 0.0000 0.3827
vn -0.3827 0.0000 0.9239
vn -0.3724 -0.9151 0.1543
vn -0.1250 0.9340 -0.3347
vn -0.3693 0.9215 0.1199
vn -0.3724 -0.9151 -0.1543
vn -0.1250 0.9340 0.3347
vn -0.3693 0.9215 -0.1199
vn 0.0033 0.0000 -1.0000
vn 0.0033 0.0000 1.0000
# 28 vertex normals

vt 0.7802 0.9554 0.0000
vt 0.7902 0.9554 0.0000
vt 0.7902 0.9654 0.0000
vt 0.7802 0.9654 0.0000
vt 0.8150 0.6523 0.0000
vt 0.8050 0.6523 0.0000
vt 0.8050 0.6423 0.0000
vt 0.8150 0.6423 0.0000
# 8 texture coords

o blades
g blades
usemtl helice_white_helicopter_helicopter_Material
s off
f 1/1/1 2/2/1 3/3/1 
f 3/3/1 4/4/1 1/1/1 
f 3/2/2 5/3/2 6/4/2 
f 6/4/2 4/1/2 3/2/2 
f 7/3/3 8/4/3 6/1/3 
f 6/1/3 5/2/3 7/3/3 
f 9/3/4 10/4/4 8/1/4 
f 8/1/4 7/2/4 9/3/4 
f 11/4/5 5/1/5 3/2/5 
f 3/2/5 12/3/5 11/4/5 
f 3/1/5 2/2/5 13/3/5 
f 13/3/5 12/4/5 3/1/5 
f 7/1/5 5/2/5 11/3/5 
f 11/3/5 14/4/5 7/1/5 
f 14/3/5 15/4/5 9/1/5 
f 9/1/5 7/2/5 14/3/5 
f 15/1/4 14/2/4 16/3/4 
f 16/3/4 17/4/4 15/1/4 
f 18/4/6 19/1/6 16/2/6 
f 16/2/6 20/3/6 18/4/6 
f 14/1/7 11/2/7 21/3/7 
f 21/3/7 22/4/7 14/1/7 
f 13/2/1 23/3/1 24/4/1 
f 24/4/1 12/1/1 13/2/1 
f 23/2/8 25/3/8 26/4/8 
f 26/4/8 24/1/8 23/2/8 
f 27/4/9 16/1/9 19/2/9 
f 19/2/9 28/3/9 27/4/9 
f 29/5/5 30/6/5 31/7/5 
f 31/7/5 32/8/5 29/5/5 
f 33/6/10 34/7/10 35/8/10 
f 35/8/10 36/5/10 33/6/10 
f 37/3/11 38/4/11 12/1/11 
f 12/1/11 24/2/11 37/3/11 
f 16/1/10 14/2/10 22/3/10 
f 22/3/10 20/4/10 16/1/10 
f 11/1/12 12/2/12 38/3/12 
f 38/3/12 21/4/12 11/1/12 
f 19/2/6 18/3/6 37/4/6 
f 37/4/6 24/1/6 19/2/6 
f 18/4/2 39/1/2 40/2/2 
f 40/2/2 37/3/2 18/4/2 
f 41/2/3 22/3/3 21/4/3 
f 21/4/3 42/1/3 41/2/3 
f 21/3/2 38/4/2 43/1/2 
f 43/1/2 42/2/2 21/3/2 
f 20/4/3 44/1/3 39/2/3 
f 39/2/3 18/3/3 20/4/3 
f 22/4/3 41/1/3 44/2/3 
f 44/2/3 20/3/3 22/4/3 
f 38/3/2 37/4/2 40/1/2 
f 40/1/2 43/2/2 38/3/2 
f 45/4/2 30/1/2 29/2/2 
f 29/2/2 46/3/2 45/4/2 
f 45/3/3 33/4/3 36/1/3 
f 36/1/3 30/2/3 45/3/3 
f 45/5/6 46/6/6 47/7/6 
f 47/7/6 48/8/6 45/5/6 
f 29/6/11 32/7/11 47/8/11 
f 47/8/11 46/5/11 29/6/11 
f 33/5/6 45/6/6 48/7/6 
f 48/7/6 34/8/6 33/5/6 
f 36/6/5 35/7/5 31/8/5 
f 31/8/5 30/5/5 36/6/5 
f 49/3/6 27/4/6 28/1/6 
f 28/1/6 50/2/6 49/3/6 
f 26/1/6 25/2/6 50/3/6 
f 50/3/6 28/4/6 26/1/6 
f 27/3/13 49/4/13 17/1/13 
f 17/1/13 16/2/13 27/3/13 
f 28/4/14 19/1/14 24/2/14 
f 24/2/14 26/3/14 28/4/14 
f 41/1/5 42/2/5 31/3/5 
f 31/3/5 35/4/5 41/1/5 
f 34/3/6 48/4/6 39/1/6 
f 39/1/6 44/2/6 34/3/6 
f 43/1/15 40/2/15 47/3/15 
f 47/3/15 32/4/15 43/1/15 
f 39/2/6 48/3/6 47/4/6 
f 47/4/6 40/1/6 39/2/6 
f 44/1/16 41/2/16 35/3/16 
f 35/3/16 34/4/16 44/1/16 
f 42/1/5 43/2/5 32/3/5 
f 32/3/5 31/4/5 42/1/5 
f 2/2/17 1/1/17 51/4/17 
f 51/4/17 52/3/17 2/2/17 
f 52/2/18 51/1/18 53/4/18 
f 53/4/18 54/3/18 52/2/18 
f 54/2/19 53/1/19 55/4/19 
f 55/4/19 56/3/19 54/2/19 
f 9/3/20 56/2/20 55/1/20 
f 55/1/20 10/4/20 9/3/20 
f 54/1/5 57/4/5 58/3/5 
f 58/3/5 52/2/5 54/1/5 
f 58/4/5 13/3/5 2/2/5 
f 2/2/5 52/1/5 58/4/5 
f 54/2/5 56/1/5 59/4/5 
f 59/4/5 57/3/5 54/2/5 
f 15/4/5 59/3/5 56/2/5 
f 56/2/5 9/1/5 15/4/5 
f 60/3/20 59/2/20 15/1/20 
f 15/1/20 17/4/20 60/3/20 
f 61/3/6 60/2/6 62/1/6 
f 62/1/6 63/4/6 61/3/6 
f 57/2/21 59/1/21 64/4/21 
f 64/4/21 65/3/21 57/2/21 
f 23/3/17 13/2/17 58/1/17 
f 58/1/17 66/4/17 23/3/17 
f 25/3/22 23/2/22 66/1/22 
f 66/1/22 67/4/22 25/3/22 
f 68/4/23 69/3/23 62/2/23 
f 62/2/23 60/1/23 68/4/23 
f 70/7/5 71/6/5 72/5/5 
f 72/5/5 73/8/5 70/7/5 
f 74/5/10 75/8/10 76/7/10 
f 76/7/10 77/6/10 74/5/10 
f 78/3/11 66/2/11 58/1/11 
f 58/1/11 79/4/11 78/3/11 
f 60/1/10 61/4/10 64/3/10 
f 64/3/10 59/2/10 60/1/10 
f 79/3/24 58/2/24 57/1/24 
f 57/1/24 65/4/24 79/3/24 
f 63/3/6 62/2/6 66/1/6 
f 66/1/6 78/4/6 63/3/6 
f 78/3/18 80/2/18 81/1/18 
f 81/1/18 63/4/18 78/3/18 
f 64/3/19 82/2/19 83/1/19 
f 83/1/19 65/4/19 64/3/19 
f 79/4/18 65/3/18 83/2/18 
f 83/2/18 84/1/18 79/4/18 
f 61/4/19 63/3/19 81/2/19 
f 81/2/19 85/1/19 61/4/19 
f 64/4/19 61/3/19 85/2/19 
f 85/2/19 82/1/19 64/4/19 
f 79/3/18 84/2/18 80/1/18 
f 80/1/18 78/4/18 79/3/18 
f 86/3/18 72/2/18 71/1/18 
f 71/1/18 87/4/18 86/3/18 
f 74/1/19 77/4/19 87/3/19 
f 87/3/19 71/2/19 74/1/19 
f 88/7/6 86/6/6 87/5/6 
f 87/5/6 89/8/6 88/7/6 
f 72/6/11 86/5/11 88/8/11 
f 88/8/11 73/7/11 72/6/11 
f 76/8/6 89/7/6 87/6/6 
f 87/6/6 77/5/6 76/8/6 
f 71/5/5 70/8/5 75/7/5 
f 75/7/5 74/6/5 71/5/5 
f 68/4/6 49/3/6 50/2/6 
f 50/2/6 69/1/6 68/4/6 
f 69/4/6 50/3/6 25/2/6 
f 25/2/6 67/1/6 69/4/6 
f 60/2/25 17/1/25 49/4/25 
f 49/4/25 68/3/25 60/2/25 
f 69/4/26 67/3/26 66/2/26 
f 66/2/26 62/1/26 69/4/26 
f 83/2/5 82/1/5 75/4/5 
f 75/4/5 70/3/5 83/2/5 
f 76/3/6 85/2/6 81/1/6 
f 81/1/6 89/4/6 76/3/6 
f 73/4/27 88/3/27 80/2/27 
f 80/2/27 84/1/27 73/4/27 
f 89/3/6 81/2/6 80/1/6 
f 80/1/6 88/4/6 89/3/6 
f 75/3/28 82/2/28 85/1/28 
f 85/1/28 76/4/28 75/3/28 
f 83/1/5 70/4/5 73/3/5 
f 73/3/5 84/2/5 83/1/5 
# 168 faces

