# Blender v3.0.1 OBJ File: 'features.blend'
# www.blender.org
mtllib mueble.mtl
o Prop_Shelf_011_Malla.156
v -29.045321 0.000002 -14.028610
v -29.045382 -0.000002 14.028427
v -29.045321 89.247963 -14.028596
v -29.045382 89.247963 14.028441
v 29.045197 89.247963 -14.028596
v 29.045135 89.247963 14.028441
v 29.045197 0.000002 -14.028610
v 29.045135 -0.000002 14.028427
v 22.930389 12.697491 14.028429
v -22.930635 12.697491 14.028429
v 22.930389 85.104454 14.028441
v -22.930635 85.104454 14.028441
v 22.930389 12.697495 -9.630651
v -22.930635 12.697495 -9.630651
v 22.930389 85.104454 -9.630639
v -22.930635 85.104454 -9.630639
v 22.930450 35.714096 11.740044
v -22.930696 35.714096 11.740044
v 22.930389 35.714100 -9.630648
v -22.930635 35.714100 -9.630648
v 22.930450 37.891365 11.740044
v -22.930696 37.891365 11.740044
v 22.930389 37.891369 -9.630648
v -22.930635 37.891369 -9.630648
v 22.930450 60.567978 11.740047
v -22.930696 60.567978 11.740047
v 22.930389 60.567982 -9.630644
v -22.930635 60.567982 -9.630644
v 22.930450 62.745255 11.740048
v -22.930696 62.745255 11.740048
v 22.930389 62.745258 -9.630643
v -22.930635 62.745258 -9.630643
vt 0.171563 0.396179
vt 0.171563 0.396179
vt 0.171563 0.396179
vt 0.262881 0.396179
vt 0.262881 0.396179
vt 0.262881 0.396179
vt 0.171563 0.396179
vt 0.171563 0.396179
vt 0.171563 0.396179
vt 0.233212 0.396179
vt 0.233212 0.396179
vt 0.233212 0.396179
vt 0.203400 0.396179
vt 0.203400 0.396179
vt 0.203400 0.396179
vt 0.233212 0.396179
vt 0.233212 0.396179
vt 0.233212 0.396179
vt 0.233212 0.396179
vt 0.233212 0.396179
vt 0.233212 0.396179
vt 0.233212 0.396179
vt 0.233212 0.396179
vt 0.262881 0.396179
vt 0.262881 0.396179
vt 0.262881 0.396179
vt 0.171563 0.396179
vt 0.171563 0.396179
vt 0.171563 0.396179
vt 0.171563 0.396179
vt 0.171563 0.396179
vt 0.171563 0.396179
vt 0.171563 0.396179
vt 0.262881 0.396179
vt 0.262881 0.396179
vt 0.262881 0.396179
vt 0.171563 0.396179
vt 0.171563 0.396179
vt 0.171563 0.396179
vt 0.233212 0.396179
vt 0.233212 0.396179
vt 0.233212 0.396179
vt 0.233212 0.396179
vt 0.233212 0.396179
vt 0.233212 0.396179
vt 0.233212 0.396179
vt 0.233212 0.396179
vt 0.262881 0.396179
vt 0.262881 0.396179
vt 0.262881 0.396179
vt 0.171563 0.396179
vt 0.171563 0.396179
vt 0.171563 0.396179
vt 0.233212 0.396179
vt 0.233212 0.396179
vt 0.233212 0.396179
vt 0.233212 0.396179
vt 0.233212 0.396179
vt 0.233212 0.396179
vt 0.233212 0.396179
vt 0.233212 0.396179
vt 0.171563 0.396179
vt 0.262881 0.396179
vt 0.171563 0.396179
vt 0.203400 0.396179
vt 0.233212 0.396179
vt 0.262881 0.396179
vt 0.171563 0.396179
vt 0.262881 0.396179
vt 0.171563 0.396179
vt 0.262881 0.396179
vt 0.171563 0.396179
vn -1.0000 0.0000 -0.0000
vn 0.0000 1.0000 -0.0000
vn 1.0000 0.0000 0.0000
vn 0.0000 -1.0000 -0.0000
vn 0.0000 -0.0000 1.0000
vn 0.0000 0.0000 -1.0000
usemtl lambert1.106
s 1
f 2/1/1 3/2/1 1/3/1
f 3/4/2 6/5/2 5/6/2
f 6/7/3 7/8/3 5/9/3
f 8/10/4 1/11/4 7/12/4
f 13/13/5 16/14/5 14/15/5
f 1/11/6 5/16/6 7/12/6
f 8/10/5 10/17/5 2/18/5
f 6/19/5 9/20/5 8/10/5
f 4/21/5 11/22/5 6/19/5
f 4/21/5 10/17/5 12/23/5
f 9/24/2 14/25/2 10/26/2
f 11/27/1 13/28/1 9/29/1
f 12/30/4 15/31/4 11/27/4
f 10/32/3 16/33/3 12/30/3
f 21/34/2 24/35/2 22/36/2
f 20/37/4 17/38/4 18/39/4
f 17/40/5 22/41/5 18/42/5
f 19/43/3 21/44/3 17/40/3
f 20/45/6 23/46/6 19/43/6
f 18/42/1 24/47/1 20/45/1
f 29/48/2 32/49/2 30/50/2
f 28/51/4 25/52/4 26/53/4
f 25/54/5 30/55/5 26/56/5
f 27/57/3 29/58/3 25/54/3
f 28/59/6 31/60/6 27/57/6
f 26/56/1 32/61/1 28/59/1
f 2/1/1 4/62/1 3/2/1
f 3/4/2 4/63/2 6/5/2
f 6/7/3 8/64/3 7/8/3
f 8/10/4 2/18/4 1/11/4
f 13/13/5 15/65/5 16/14/5
f 1/11/6 3/66/6 5/16/6
f 8/10/5 9/20/5 10/17/5
f 6/19/5 11/22/5 9/20/5
f 4/21/5 12/23/5 11/22/5
f 4/21/5 2/18/5 10/17/5
f 9/24/2 13/67/2 14/25/2
f 11/27/1 15/31/1 13/28/1
f 12/30/4 16/33/4 15/31/4
f 10/32/3 14/68/3 16/33/3
f 21/34/2 23/69/2 24/35/2
f 20/37/4 19/70/4 17/38/4
f 17/40/5 21/44/5 22/41/5
f 19/43/3 23/46/3 21/44/3
f 20/45/6 24/47/6 23/46/6
f 18/42/1 22/41/1 24/47/1
f 29/48/2 31/71/2 32/49/2
f 28/51/4 27/72/4 25/52/4
f 25/54/5 29/58/5 30/55/5
f 27/57/3 31/60/3 29/58/3
f 28/59/6 32/61/6 31/60/6
f 26/56/1 30/55/1 32/61/1
