# Blender 3.1.0
# www.blender.org
mtllib ring_texturizado.mtl
o Poste1
v -42.000000 -0.000007 42.000000
v -40.000000 -0.000007 42.000000
v -42.000000 29.999992 42.000004
v -40.000000 29.999992 42.000004
v -42.000000 29.999994 40.000004
v -40.000000 29.999994 40.000004
v -42.000000 -0.000007 40.000000
v -40.000000 -0.000007 40.000000
vn -0.0000 -0.0000 1.0000
vn -0.0000 1.0000 -0.0000
vn -0.0000 -0.0000 -1.0000
vn -0.0000 -1.0000 -0.0000
vn 1.0000 -0.0000 -0.0000
vn -1.0000 -0.0000 -0.0000
vt 0.139402 0.417558
vt 0.138425 0.419511
vt 0.139402 0.417558
vt 0.138425 0.419511
vt 0.139402 0.417558
vt 0.138425 0.419511
vt 0.139402 0.417558
vt 0.138425 0.419511
vt 0.138425 0.419511
vt 0.138425 0.419511
vt 0.139402 0.417558
vt 0.138425 0.419511
vt 0.139402 0.417558
vt 0.138425 0.419511
s 1
usemtl SM_Buildings_Column_1x3_01_default
f 1/1/1 2/3/1 3/5/1
f 3/5/1 2/3/1 4/7/1
f 3/6/2 4/8/2 5/9/2
f 5/9/2 4/8/2 6/10/2
f 5/9/3 6/10/3 7/12/3
f 7/12/3 6/10/3 8/14/3
f 7/11/4 8/13/4 1/1/4
f 1/1/4 8/13/4 2/3/4
f 2/4/5 8/14/5 4/8/5
f 4/8/5 8/14/5 6/10/5
f 7/12/6 1/2/6 5/9/6
f 5/9/6 1/2/6 3/6/6
o Poste2
v 38.000000 -0.000007 42.000000
v 40.000000 -0.000007 42.000000
v 38.000000 29.999992 42.000004
v 40.000000 29.999992 42.000004
v 38.000000 29.999994 40.000004
v 40.000000 29.999994 40.000004
v 38.000000 -0.000007 40.000000
v 40.000000 -0.000007 40.000000
vn -0.0000 -0.0000 1.0000
vn -0.0000 1.0000 -0.0000
vn -0.0000 -0.0000 -1.0000
vn -0.0000 -1.0000 -0.0000
vn 1.0000 -0.0000 -0.0000
vn -1.0000 -0.0000 -0.0000
vt 0.139402 0.417558
vt 0.138425 0.419511
vt 0.139402 0.417558
vt 0.139402 0.417558
vt 0.138425 0.419511
vt 0.139402 0.417558
vt 0.138425 0.419511
vt 0.138425 0.419511
vt 0.138425 0.419511
vt 0.138425 0.419511
vt 0.139402 0.417558
vt 0.138425 0.419511
s 1
usemtl SM_Buildings_Column_1x3_01_default
f 9/15/7 10/17/7 11/18/7
f 11/18/7 10/17/7 12/20/7
f 11/19/8 12/21/8 13/22/8
f 13/22/8 12/21/8 14/23/8
f 13/22/9 14/23/9 15/24/9
f 15/24/9 14/23/9 16/26/9
f 15/24/10 16/26/10 9/16/10
f 9/15/10 16/25/10 10/17/10
f 10/17/11 16/25/11 12/20/11
f 12/21/11 16/26/11 14/23/11
f 15/24/12 9/16/12 13/22/12
f 13/22/12 9/16/12 11/19/12
o Poste003
v -42.000000 0.000006 -38.000000
v -40.000000 0.000006 -38.000000
v -42.000000 30.000006 -37.999996
v -40.000000 30.000006 -37.999996
v -42.000000 30.000006 -39.999996
v -40.000000 30.000006 -39.999996
v -42.000000 0.000007 -40.000000
v -40.000000 0.000007 -40.000000
vn -0.0000 -0.0000 1.0000
vn -0.0000 1.0000 -0.0000
vn -0.0000 -0.0000 -1.0000
vn -0.0000 -1.0000 -0.0000
vn 1.0000 -0.0000 -0.0000
vn -1.0000 -0.0000 -0.0000
vt 0.139402 0.417558
vt 0.138425 0.419511
vt 0.139402 0.417558
vt 0.138425 0.419511
vt 0.139402 0.417558
vt 0.138425 0.419511
vt 0.139402 0.417558
vt 0.138425 0.419511
vt 0.138425 0.419511
vt 0.138425 0.419511
vt 0.138425 0.419511
vt 0.139402 0.417558
vt 0.138425 0.419511
s 1
usemtl SM_Buildings_Column_1x3_01_default
f 17/27/13 18/29/13 19/31/13
f 19/31/13 18/29/13 20/33/13
f 19/32/14 20/34/14 21/35/14
f 21/35/14 20/34/14 22/36/14
f 21/35/15 22/36/15 23/37/15
f 23/37/15 22/36/15 24/39/15
f 23/37/16 24/39/16 17/28/16
f 17/27/16 24/38/16 18/29/16
f 18/30/17 24/39/17 20/34/17
f 20/34/17 24/39/17 22/36/17
f 23/37/18 17/28/18 21/35/18
f 21/35/18 17/28/18 19/32/18
o Poste004
v 38.000000 0.000006 -38.000000
v 40.000000 0.000006 -38.000000
v 38.000000 30.000006 -37.999996
v 40.000000 30.000006 -37.999996
v 38.000000 30.000006 -39.999996
v 40.000000 30.000006 -39.999996
v 38.000000 0.000007 -40.000000
v 40.000000 0.000007 -40.000000
vn -0.0000 -0.0000 1.0000
vn -0.0000 1.0000 -0.0000
vn -0.0000 -0.0000 -1.0000
vn -0.0000 -1.0000 -0.0000
vn 1.0000 -0.0000 -0.0000
vn -1.0000 -0.0000 -0.0000
vt 0.139402 0.417558
vt 0.138425 0.419511
vt 0.139402 0.417558
vt 0.138425 0.419511
vt 0.139402 0.417558
vt 0.138425 0.419511
vt 0.139402 0.417558
vt 0.138425 0.419511
vt 0.138425 0.419511
vt 0.138425 0.419511
vt 0.138425 0.419511
vt 0.139402 0.417558
vt 0.138425 0.419511
s 1
usemtl SM_Buildings_Column_1x3_01_default
f 25/40/19 26/42/19 27/44/19
f 27/44/19 26/42/19 28/46/19
f 27/45/20 28/47/20 29/48/20
f 29/48/20 28/47/20 30/49/20
f 29/48/21 30/49/21 31/50/21
f 31/50/21 30/49/21 32/52/21
f 31/50/22 32/52/22 25/41/22
f 25/40/22 32/51/22 26/42/22
f 26/43/23 32/52/23 28/47/23
f 28/47/23 32/52/23 30/49/23
f 31/50/24 25/41/24 29/48/24
f 29/48/24 25/41/24 27/45/24
o default
v -41.250000 3.374993 41.249699
v 40.000000 3.374993 41.249699
v -41.250000 4.999993 41.249699
v 40.000000 4.999993 41.249699
v -41.250000 5.000007 -40.000000
v 40.000000 5.000007 -40.000000
v -41.250000 3.375006 -40.000000
v 40.000000 3.375006 -40.000000
vn -0.0000 -0.0000 1.0000
vn -0.0000 1.0000 -0.0000
vn -0.0000 -0.0000 -1.0000
vn -0.0000 -1.0000 -0.0000
vn 1.0000 -0.0000 -0.0000
vn -1.0000 -0.0000 -0.0000
vt 0.247800 0.303300
vt 0.247800 0.303300
vt 0.999162 0.501735
vt 0.247800 0.303300
vt 0.500001 0.501735
vt 0.247800 0.303300
vt 0.999162 0.005299
vt 0.247800 0.303300
vt 0.500001 0.005299
vt 0.247800 0.303300
vt 0.247800 0.303300
vt 0.247800 0.303300
s 1
usemtl SM_Buildings_Floor_5x5_01_default
f 33/53/25 34/54/25 35/56/25
f 35/56/25 34/54/25 36/58/25
f 35/55/26 36/57/26 37/59/26
f 37/59/26 36/57/26 38/61/26
f 37/60/27 38/62/27 39/63/27
f 39/63/27 38/62/27 40/64/27
f 39/63/28 40/64/28 33/53/28
f 33/53/28 40/64/28 34/54/28
f 34/54/29 40/64/29 36/58/29
f 36/58/29 40/64/29 38/62/29
f 39/63/30 33/53/30 37/60/30
f 37/60/30 33/53/30 35/56/30
o Cuerda001
v 40.000000 13.833306 -39.161995
v 40.000000 15.000007 -39.161995
v -41.923100 13.833207 -39.161995
v -41.923100 15.000007 -39.161995
v -41.923100 13.833207 -39.999996
v -41.923100 15.000007 -39.999996
v 40.000000 13.833306 -39.999996
v 40.000000 15.000007 -39.999996
vn -0.0000 -0.0000 1.0000
vn -1.0000 -0.0000 -0.0000
vn -0.0000 -0.0000 -1.0000
vn 1.0000 -0.0000 -0.0000
vn -0.0000 1.0000 -0.0000
vn -0.0000 -1.0000 -0.0000
vt 0.247800 0.303300
vt 0.247800 0.303300
vt 0.247800 0.303300
vt 0.247800 0.303300
vt 0.247800 0.303300
vt 0.247800 0.303300
vt 0.247800 0.303300
vt 0.247800 0.303300
s 1
usemtl SM_Buildings_Column_1x3_01_default
f 41/65/31 42/66/31 43/67/31
f 43/67/31 42/66/31 44/68/31
f 43/67/32 44/68/32 45/69/32
f 45/69/32 44/68/32 46/70/32
f 45/69/33 46/70/33 47/71/33
f 47/71/33 46/70/33 48/72/33
f 47/71/34 48/72/34 41/65/34
f 41/65/34 48/72/34 42/66/34
f 42/66/35 48/72/35 44/68/35
f 44/68/35 48/72/35 46/70/35
f 47/71/36 41/65/36 45/69/36
f 45/69/36 41/65/36 43/67/36
o Cuerda002
v 40.000000 18.833305 -39.161995
v 40.000000 20.000006 -39.161995
v -41.923100 18.833206 -39.161995
v -41.923100 20.000006 -39.161995
v -41.923100 18.833206 -39.999996
v -41.923100 20.000006 -39.999996
v 40.000000 18.833305 -39.999996
v 40.000000 20.000006 -39.999996
vn -0.0000 -0.0000 1.0000
vn -1.0000 -0.0000 -0.0000
vn -0.0000 -0.0000 -1.0000
vn 1.0000 -0.0000 -0.0000
vn -0.0000 1.0000 -0.0000
vn -0.0000 -1.0000 -0.0000
vt 0.247800 0.303300
vt 0.247800 0.303300
vt 0.247800 0.303300
vt 0.247800 0.303300
vt 0.247800 0.303300
vt 0.247800 0.303300
vt 0.247800 0.303300
vt 0.247800 0.303300
s 1
usemtl SM_Buildings_Column_1x3_01_default
f 49/73/37 50/74/37 51/75/37
f 51/75/37 50/74/37 52/76/37
f 51/75/38 52/76/38 53/77/38
f 53/77/38 52/76/38 54/78/38
f 53/77/39 54/78/39 55/79/39
f 55/79/39 54/78/39 56/80/39
f 55/79/40 56/80/40 49/73/40
f 49/73/40 56/80/40 50/74/40
f 50/74/41 56/80/41 52/76/41
f 52/76/41 56/80/41 54/78/41
f 55/79/42 49/73/42 53/77/42
f 53/77/42 49/73/42 51/75/42
o Cuerda003
v 40.000000 23.833305 -39.161995
v 40.000000 25.000006 -39.161995
v -41.923100 23.833206 -39.161995
v -41.923100 25.000006 -39.161995
v -41.923100 23.833206 -39.999996
v -41.923100 25.000006 -39.999996
v 40.000000 23.833305 -39.999996
v 40.000000 25.000006 -39.999996
vn -0.0000 -0.0000 1.0000
vn -1.0000 -0.0000 -0.0000
vn -0.0000 -0.0000 -1.0000
vn 1.0000 -0.0000 -0.0000
vn -0.0000 1.0000 -0.0000
vn -0.0000 -1.0000 -0.0000
vt 0.247800 0.303300
vt 0.247800 0.303300
vt 0.247800 0.303300
vt 0.247800 0.303300
vt 0.247800 0.303300
vt 0.247800 0.303300
vt 0.247800 0.303300
vt 0.247800 0.303300
s 1
usemtl SM_Buildings_Column_1x3_01_default
f 57/81/43 58/82/43 59/83/43
f 59/83/43 58/82/43 60/84/43
f 59/83/44 60/84/44 61/85/44
f 61/85/44 60/84/44 62/86/44
f 61/85/45 62/86/45 63/87/45
f 63/87/45 62/86/45 64/88/45
f 63/87/46 64/88/46 57/81/46
f 57/81/46 64/88/46 58/82/46
f 58/82/47 64/88/47 60/84/47
f 60/84/47 64/88/47 62/86/47
f 63/87/48 57/81/48 61/85/48
f 61/85/48 57/81/48 59/83/48
o Cuerda004
v 40.000000 13.833293 40.838005
v 40.000000 14.999993 40.838005
v -41.923100 13.833194 40.838005
v -41.923100 14.999993 40.838005
v -41.923100 13.833194 40.000004
v -41.923100 14.999993 40.000004
v 40.000000 13.833293 40.000004
v 40.000000 14.999993 40.000004
vn -0.0000 -0.0000 1.0000
vn -1.0000 -0.0000 -0.0000
vn -0.0000 -0.0000 -1.0000
vn 1.0000 -0.0000 -0.0000
vn -0.0000 1.0000 -0.0000
vn -0.0000 -1.0000 -0.0000
vt 0.247800 0.303300
vt 0.247800 0.303300
vt 0.247800 0.303300
vt 0.247800 0.303300
vt 0.247800 0.303300
vt 0.247800 0.303300
vt 0.247800 0.303300
vt 0.247800 0.303300
s 1
usemtl SM_Buildings_Column_1x3_01_default
f 65/89/49 66/90/49 67/91/49
f 67/91/49 66/90/49 68/92/49
f 67/91/50 68/92/50 69/93/50
f 69/93/50 68/92/50 70/94/50
f 69/93/51 70/94/51 71/95/51
f 71/95/51 70/94/51 72/96/51
f 71/95/52 72/96/52 65/89/52
f 65/89/52 72/96/52 66/90/52
f 66/90/53 72/96/53 68/92/53
f 68/92/53 72/96/53 70/94/53
f 71/95/54 65/89/54 69/93/54
f 69/93/54 65/89/54 67/91/54
o Cuerda005
v 40.000000 23.833294 40.838005
v 40.000000 24.999994 40.838005
v -41.923100 23.833195 40.838005
v -41.923100 24.999994 40.838005
v -41.923100 23.833195 40.000004
v -41.923100 24.999994 40.000004
v 40.000000 23.833294 40.000004
v 40.000000 24.999994 40.000004
vn -0.0000 -0.0000 1.0000
vn -1.0000 -0.0000 -0.0000
vn -0.0000 -0.0000 -1.0000
vn 1.0000 -0.0000 -0.0000
vn -0.0000 1.0000 -0.0000
vn -0.0000 -1.0000 -0.0000
vt 0.247800 0.303300
vt 0.247800 0.303300
vt 0.247800 0.303300
vt 0.247800 0.303300
vt 0.247800 0.303300
vt 0.247800 0.303300
vt 0.247800 0.303300
vt 0.247800 0.303300
s 1
usemtl SM_Buildings_Column_1x3_01_default
f 73/97/55 74/98/55 75/99/55
f 75/99/55 74/98/55 76/100/55
f 75/99/56 76/100/56 77/101/56
f 77/101/56 76/100/56 78/102/56
f 77/101/57 78/102/57 79/103/57
f 79/103/57 78/102/57 80/104/57
f 79/103/58 80/104/58 73/97/58
f 73/97/58 80/104/58 74/98/58
f 74/98/59 80/104/59 76/100/59
f 76/100/59 80/104/59 78/102/59
f 79/103/60 73/97/60 77/101/60
f 77/101/60 73/97/60 75/99/60
o Cuerda006
v 40.000000 18.833294 40.838005
v 40.000000 19.999994 40.838005
v -41.923100 18.833195 40.838005
v -41.923100 19.999994 40.838005
v -41.923100 18.833195 40.000004
v -41.923100 19.999994 40.000004
v 40.000000 18.833294 40.000004
v 40.000000 19.999994 40.000004
vn -0.0000 -0.0000 1.0000
vn -1.0000 -0.0000 -0.0000
vn -0.0000 -0.0000 -1.0000
vn 1.0000 -0.0000 -0.0000
vn -0.0000 1.0000 -0.0000
vn -0.0000 -1.0000 -0.0000
vt 0.247800 0.303300
vt 0.247800 0.303300
vt 0.247800 0.303300
vt 0.247800 0.303300
vt 0.247800 0.303300
vt 0.247800 0.303300
vt 0.247800 0.303300
vt 0.247800 0.303300
s 1
usemtl SM_Buildings_Column_1x3_01_default
f 81/105/61 82/106/61 83/107/61
f 83/107/61 82/106/61 84/108/61
f 83/107/62 84/108/62 85/109/62
f 85/109/62 84/108/62 86/110/62
f 85/109/63 86/110/63 87/111/63
f 87/111/63 86/110/63 88/112/63
f 87/111/64 88/112/64 81/105/64
f 81/105/64 88/112/64 82/106/64
f 82/106/65 88/112/65 84/108/65
f 84/108/65 88/112/65 86/110/65
f 87/111/66 81/105/66 85/109/66
f 85/109/66 81/105/66 83/107/66
o Cuerda007
v 40.838001 18.833305 -39.999996
v 40.838001 20.000006 -39.999996
v 40.838001 18.833292 41.923103
v 40.838001 19.999992 41.923103
v 40.000000 18.833292 41.923103
v 40.000000 19.999992 41.923103
v 40.000000 18.833305 -39.999996
v 40.000000 20.000006 -39.999996
vn 1.0000 -0.0000 -0.0000
vn -0.0000 -0.0000 1.0000
vn -1.0000 -0.0000 -0.0000
vn -0.0000 -0.0000 -1.0000
vn -0.0000 1.0000 -0.0000
vn -0.0000 -1.0000 -0.0000
vt 0.247800 0.303300
vt 0.247800 0.303300
vt 0.247800 0.303300
vt 0.247800 0.303300
vt 0.247800 0.303300
vt 0.247800 0.303300
vt 0.247800 0.303300
vt 0.247800 0.303300
s 1
usemtl SM_Buildings_Column_1x3_01_default
f 89/113/67 90/114/67 91/115/67
f 91/115/67 90/114/67 92/116/67
f 91/115/68 92/116/68 93/117/68
f 93/117/68 92/116/68 94/118/68
f 93/117/69 94/118/69 95/119/69
f 95/119/69 94/118/69 96/120/69
f 95/119/70 96/120/70 89/113/70
f 89/113/70 96/120/70 90/114/70
f 90/114/71 96/120/71 92/116/71
f 92/116/71 96/120/71 94/118/71
f 95/119/72 89/113/72 93/117/72
f 93/117/72 89/113/72 91/115/72
o Cuerda008
v 40.838001 23.833305 -39.999996
v 40.838001 25.000006 -39.999996
v 40.838001 23.833292 41.923103
v 40.838001 24.999992 41.923103
v 40.000000 23.833292 41.923103
v 40.000000 24.999992 41.923103
v 40.000000 23.833305 -39.999996
v 40.000000 25.000006 -39.999996
vn 1.0000 -0.0000 -0.0000
vn -0.0000 -0.0000 1.0000
vn -1.0000 -0.0000 -0.0000
vn -0.0000 -0.0000 -1.0000
vn -0.0000 1.0000 -0.0000
vn -0.0000 -1.0000 -0.0000
vt 0.247800 0.303300
vt 0.247800 0.303300
vt 0.247800 0.303300
vt 0.247800 0.303300
vt 0.247800 0.303300
vt 0.247800 0.303300
vt 0.247800 0.303300
vt 0.247800 0.303300
s 1
usemtl SM_Buildings_Column_1x3_01_default
f 97/121/73 98/122/73 99/123/73
f 99/123/73 98/122/73 100/124/73
f 99/123/74 100/124/74 101/125/74
f 101/125/74 100/124/74 102/126/74
f 101/125/75 102/126/75 103/127/75
f 103/127/75 102/126/75 104/128/75
f 103/127/76 104/128/76 97/121/76
f 97/121/76 104/128/76 98/122/76
f 98/122/77 104/128/77 100/124/77
f 100/124/77 104/128/77 102/126/77
f 103/127/78 97/121/78 101/125/78
f 101/125/78 97/121/78 99/123/78
o Cuerda009
v 40.838001 13.833306 -39.999996
v 40.838001 15.000007 -39.999996
v 40.838001 13.833293 41.923103
v 40.838001 14.999993 41.923103
v 40.000000 13.833293 41.923103
v 40.000000 14.999993 41.923103
v 40.000000 13.833306 -39.999996
v 40.000000 15.000007 -39.999996
vn 1.0000 -0.0000 -0.0000
vn -0.0000 -0.0000 1.0000
vn -1.0000 -0.0000 -0.0000
vn -0.0000 -0.0000 -1.0000
vn -0.0000 1.0000 -0.0000
vn -0.0000 -1.0000 -0.0000
vt 0.247800 0.303300
vt 0.247800 0.303300
vt 0.247800 0.303300
vt 0.247800 0.303300
vt 0.247800 0.303300
vt 0.247800 0.303300
vt 0.247800 0.303300
vt 0.247800 0.303300
s 1
usemtl SM_Buildings_Column_1x3_01_default
f 105/129/79 106/130/79 107/131/79
f 107/131/79 106/130/79 108/132/79
f 107/131/80 108/132/80 109/133/80
f 109/133/80 108/132/80 110/134/80
f 109/133/81 110/134/81 111/135/81
f 111/135/81 110/134/81 112/136/81
f 111/135/82 112/136/82 105/129/82
f 105/129/82 112/136/82 106/130/82
f 106/130/83 112/136/83 108/132/83
f 108/132/83 112/136/83 110/134/83
f 111/135/84 105/129/84 109/133/84
f 109/133/84 105/129/84 107/131/84
o Cuerda010
v -39.161999 18.833305 -39.999996
v -39.161999 20.000006 -39.999996
v -39.161999 18.833292 41.923103
v -39.161999 19.999992 41.923103
v -40.000000 18.833292 41.923103
v -40.000000 19.999992 41.923103
v -40.000000 18.833305 -39.999996
v -40.000000 20.000006 -39.999996
vn 1.0000 -0.0000 -0.0000
vn -0.0000 -0.0000 1.0000
vn -1.0000 -0.0000 -0.0000
vn -0.0000 -0.0000 -1.0000
vn -0.0000 1.0000 -0.0000
vn -0.0000 -1.0000 -0.0000
vt 0.247800 0.303300
vt 0.247800 0.303300
vt 0.247800 0.303300
vt 0.247800 0.303300
vt 0.247800 0.303300
vt 0.247800 0.303300
vt 0.247800 0.303300
vt 0.247800 0.303300
s 1
usemtl SM_Buildings_Column_1x3_01_default
f 113/137/85 114/138/85 115/139/85
f 115/139/85 114/138/85 116/140/85
f 115/139/86 116/140/86 117/141/86
f 117/141/86 116/140/86 118/142/86
f 117/141/87 118/142/87 119/143/87
f 119/143/87 118/142/87 120/144/87
f 119/143/88 120/144/88 113/137/88
f 113/137/88 120/144/88 114/138/88
f 114/138/89 120/144/89 116/140/89
f 116/140/89 120/144/89 118/142/89
f 119/143/90 113/137/90 117/141/90
f 117/141/90 113/137/90 115/139/90
o Cuerda011
v -39.161999 23.833305 -39.999996
v -39.161999 25.000006 -39.999996
v -39.161999 23.833292 41.923103
v -39.161999 24.999992 41.923103
v -40.000000 23.833292 41.923103
v -40.000000 24.999992 41.923103
v -40.000000 23.833305 -39.999996
v -40.000000 25.000006 -39.999996
vn 1.0000 -0.0000 -0.0000
vn -0.0000 -0.0000 1.0000
vn -1.0000 -0.0000 -0.0000
vn -0.0000 -0.0000 -1.0000
vn -0.0000 1.0000 -0.0000
vn -0.0000 -1.0000 -0.0000
vt 0.247800 0.303300
vt 0.247800 0.303300
vt 0.247800 0.303300
vt 0.247800 0.303300
vt 0.247800 0.303300
vt 0.247800 0.303300
vt 0.247800 0.303300
vt 0.247800 0.303300
s 1
usemtl SM_Buildings_Column_1x3_01_default
f 121/145/91 122/146/91 123/147/91
f 123/147/91 122/146/91 124/148/91
f 123/147/92 124/148/92 125/149/92
f 125/149/92 124/148/92 126/150/92
f 125/149/93 126/150/93 127/151/93
f 127/151/93 126/150/93 128/152/93
f 127/151/94 128/152/94 121/145/94
f 121/145/94 128/152/94 122/146/94
f 122/146/95 128/152/95 124/148/95
f 124/148/95 128/152/95 126/150/95
f 127/151/96 121/145/96 125/149/96
f 125/149/96 121/145/96 123/147/96
o Cuerda012
v -39.161999 13.833306 -39.999996
v -39.161999 15.000007 -39.999996
v -39.161999 13.833293 41.923103
v -39.161999 14.999993 41.923103
v -40.000000 13.833293 41.923103
v -40.000000 14.999993 41.923103
v -40.000000 13.833306 -39.999996
v -40.000000 15.000007 -39.999996
vn 1.0000 -0.0000 -0.0000
vn -0.0000 -0.0000 1.0000
vn -1.0000 -0.0000 -0.0000
vn -0.0000 -0.0000 -1.0000
vn -0.0000 1.0000 -0.0000
vn -0.0000 -1.0000 -0.0000
vt 0.247800 0.303300
vt 0.247800 0.303300
vt 0.247800 0.303300
vt 0.247800 0.303300
vt 0.247800 0.303300
vt 0.247800 0.303300
vt 0.247800 0.303300
vt 0.247800 0.303300
s 1
usemtl SM_Buildings_Column_1x3_01_default
f 129/153/97 130/154/97 131/155/97
f 131/155/97 130/154/97 132/156/97
f 131/155/98 132/156/98 133/157/98
f 133/157/98 132/156/98 134/158/98
f 133/157/99 134/158/99 135/159/99
f 135/159/99 134/158/99 136/160/99
f 135/159/100 136/160/100 129/153/100
f 129/153/100 136/160/100 130/154/100
f 130/154/101 136/160/101 132/156/101
f 132/156/101 136/160/101 134/158/101
f 135/159/102 129/153/102 133/157/102
f 133/157/102 129/153/102 131/155/102
