# 3ds Max Wavefront OBJ Exporter v0.99 - (c)2007 guruware
# File Created: 14.05.2022 09:45:13

mtllib rotor_white_helicopter.mtl

#
# object tail_rotor
#

v  0.1047 0.0501 -0.0502
v  -0.2210 0.0501 -0.0502
v  -0.2210 0.0709 -0.0000
v  0.1047 0.0709 -0.0000
v  -0.2210 -0.0001 -0.0710
v  0.1047 -0.0001 -0.0710
v  0.1257 0.0832 -0.0833
v  0.1047 -0.0001 -0.1178
v  0.1257 0.1177 -0.0000
v  0.1430 1.0891 -0.0462
v  0.1413 0.9888 -0.0499
v  0.1413 0.9888 -0.0000
v  0.1430 1.1133 -0.0000
v  0.1817 0.0832 -0.0833
v  0.2028 -0.0001 -0.1178
v  0.1644 1.0891 -0.1236
v  0.1662 0.9888 -0.1335
v  0.2210 0.0846 -0.0000
v  0.2210 0.0598 -0.0598
v  0.1817 0.1177 -0.0000
v  0.2210 -0.0001 -0.0846
v  0.1644 1.1133 -0.0000
v  0.1662 0.9888 -0.0000
v  0.2210 -0.0001 -0.0000
v  0.1047 0.0501 0.0502
v  -0.2210 0.0501 0.0502
v  0.1047 -0.0001 0.0710
v  -0.2210 -0.0001 0.0710
v  0.1257 0.0832 0.0833
v  0.1047 -0.0001 0.1178
v  0.1413 0.9888 0.0499
v  0.1430 1.0891 0.0462
v  0.1817 0.0832 0.0833
v  0.2028 -0.0001 0.1178
v  0.1644 1.0891 0.1236
v  0.1662 0.9888 0.1335
v  0.2210 0.0598 0.0599
v  0.2210 -0.0001 0.0846
v  -0.2210 -0.0711 -0.0000
v  -0.2210 -0.0503 -0.0502
v  0.1047 -0.0503 -0.0502
v  0.1047 -0.0711 -0.0000
v  0.1257 -0.0834 -0.0833
v  0.1257 -0.1179 -0.0000
v  0.1413 -0.9889 -0.0000
v  0.1413 -0.9889 -0.0499
v  0.1430 -1.0891 -0.0462
v  0.1430 -1.1133 -0.0000
v  0.1817 -0.0834 -0.0833
v  0.1662 -0.9889 -0.1335
v  0.1644 -1.0891 -0.1236
v  0.2210 -0.0598 -0.0598
v  0.2210 -0.0847 -0.0000
v  0.1817 -0.1179 -0.0000
v  0.1644 -1.1133 -0.0000
v  0.1662 -0.9889 -0.0000
v  -0.2210 -0.0503 0.0502
v  0.1047 -0.0503 0.0502
v  0.1257 -0.0834 0.0833
v  0.1430 -1.0891 0.0462
v  0.1413 -0.9889 0.0499
v  0.1817 -0.0834 0.0833
v  0.1644 -1.0891 0.1236
v  0.1662 -0.9889 0.1335
v  0.2210 -0.0598 0.0599
# 65 vertices

vn 0.0000 0.9239 -0.3827
vn 0.0000 0.3827 -0.9239
vn -0.9620 0.2193 -0.1629
vn -0.8989 0.4048 -0.1677
vn -0.9999 0.0154 -0.0039
vn -0.9609 0.0187 -0.2762
vn 0.6161 0.7277 -0.3014
vn 0.7270 0.3514 -0.5899
vn -0.4440 0.8617 -0.2457
vn 0.9999 0.0154 -0.0014
vn 0.9998 0.0174 -0.0028
vn -0.7190 -0.0064 -0.6950
vn -0.9998 0.0176 -0.0046
vn 1.0000 0.0000 -0.0000
vn 0.0000 0.9239 0.3827
vn 0.0000 0.3827 0.9239
vn -0.9620 0.2193 0.1629
vn -0.8989 0.4048 0.1677
vn -0.9999 0.0154 0.0039
vn -0.9609 0.0187 0.2762
vn 0.6161 0.7277 0.3014
vn 0.7270 0.3514 0.5899
vn -0.4440 0.8617 0.2457
vn 0.9999 0.0154 0.0014
vn 0.9998 0.0174 0.0028
vn -0.7190 -0.0064 0.6950
vn -0.9998 0.0176 0.0046
vn 0.0000 -0.9239 -0.3827
vn 0.0000 -0.3827 -0.9239
vn -0.9620 -0.2193 -0.1629
vn -0.8989 -0.4048 -0.1677
vn -0.9999 -0.0154 -0.0039
vn -0.9609 -0.0187 -0.2762
vn 0.6161 -0.7277 -0.3014
vn 0.7270 -0.3514 -0.5899
vn -0.4440 -0.8617 -0.2457
vn 0.9999 -0.0154 -0.0014
vn 0.9998 -0.0174 -0.0028
vn -0.7190 0.0064 -0.6950
vn -0.9998 -0.0176 -0.0046
vn 0.0000 -0.9239 0.3827
vn 0.0000 -0.3827 0.9239
vn -0.9620 -0.2193 0.1629
vn -0.8989 -0.4048 0.1677
vn -0.9999 -0.0154 0.0039
vn -0.9609 -0.0187 0.2762
vn 0.6161 -0.7277 0.3014
vn 0.7270 -0.3514 0.5899
vn -0.4440 -0.8617 0.2457
vn 0.9999 -0.0154 0.0014
vn 0.9998 -0.0174 0.0028
vn -0.7190 0.0064 0.6950
vn -0.9998 -0.0176 0.0046
# 53 vertex normals

vt 0.8274 0.9701 0.0000
vt 0.8174 0.9701 0.0000
vt 0.8174 0.9601 0.0000
vt 0.8274 0.9601 0.0000
vt 0.7182 0.6662 0.0000
vt 0.7182 0.6562 0.0000
vt 0.7282 0.6562 0.0000
vt 0.7282 0.6662 0.0000
# 8 texture coords

o tail_rotor
g tail_rotor
usemtl rotor_white_helicopter_helicopter_Material
s off
f 1/1/1 2/2/1 3/3/1 
f 3/3/1 4/4/1 1/1/1 
f 5/2/2 2/3/2 1/4/2 
f 1/4/2 6/1/2 5/2/2 
f 6/3/3 1/4/3 7/1/3 
f 7/1/3 8/2/3 6/3/3 
f 1/3/4 4/4/4 9/1/4 
f 9/1/4 7/2/4 1/3/4 
f 10/5/5 11/6/5 12/7/5 
f 12/7/5 13/8/5 10/5/5 
f 7/4/2 14/1/2 15/2/2 
f 15/2/2 8/3/2 7/4/2 
f 16/5/6 17/6/6 11/7/6 
f 11/7/6 10/8/6 16/5/6 
f 18/3/7 19/4/7 14/1/7 
f 14/1/7 20/2/7 18/3/7 
f 15/1/8 14/2/8 19/3/8 
f 19/3/8 21/4/8 15/1/8 
f 10/6/9 13/7/9 22/8/9 
f 22/8/9 16/5/9 10/6/9 
f 22/5/10 23/6/10 17/7/10 
f 17/7/10 16/8/10 22/5/10 
f 23/2/11 20/3/11 14/4/11 
f 14/4/11 17/1/11 23/2/11 
f 11/1/12 17/2/12 14/3/12 
f 14/3/12 7/4/12 11/1/12 
f 12/1/13 11/2/13 7/3/13 
f 7/3/13 9/4/13 12/1/13 
f 19/1/14 18/2/14 24/3/14 
f 24/3/14 21/4/14 19/1/14 
f 25/1/15 4/4/15 3/3/15 
f 3/3/15 26/2/15 25/1/15 
f 27/1/16 25/4/16 26/3/16 
f 26/3/16 28/2/16 27/1/16 
f 29/1/17 25/4/17 27/3/17 
f 27/3/17 30/2/17 29/1/17 
f 25/3/18 29/2/18 9/1/18 
f 9/1/18 4/4/18 25/3/18 
f 31/6/19 32/5/19 13/8/19 
f 13/8/19 12/7/19 31/6/19 
f 33/1/16 29/4/16 30/3/16 
f 30/3/16 34/2/16 33/1/16 
f 35/5/20 32/8/20 31/7/20 
f 31/7/20 36/6/20 35/5/20 
f 37/4/21 18/3/21 20/2/21 
f 20/2/21 33/1/21 37/4/21 
f 37/3/22 33/2/22 34/1/22 
f 34/1/22 38/4/22 37/3/22 
f 35/5/23 22/8/23 13/7/23 
f 13/7/23 32/6/23 35/5/23 
f 22/5/24 35/8/24 36/7/24 
f 36/7/24 23/6/24 22/5/24 
f 20/3/25 23/2/25 36/1/25 
f 36/1/25 33/4/25 20/3/25 
f 31/1/26 29/4/26 33/3/26 
f 33/3/26 36/2/26 31/1/26 
f 12/1/27 9/4/27 29/3/27 
f 29/3/27 31/2/27 12/1/27 
f 24/3/14 18/2/14 37/1/14 
f 37/1/14 38/4/14 24/3/14 
f 39/3/28 40/2/28 41/1/28 
f 41/1/28 42/4/28 39/3/28 
f 6/1/29 41/4/29 40/3/29 
f 40/3/29 5/2/29 6/1/29 
f 41/4/30 6/3/30 8/2/30 
f 8/2/30 43/1/30 41/4/30 
f 42/4/31 41/3/31 43/2/31 
f 43/2/31 44/1/31 42/4/31 
f 45/7/32 46/6/32 47/5/32 
f 47/5/32 48/8/32 45/7/32 
f 49/1/29 43/4/29 8/3/29 
f 8/3/29 15/2/29 49/1/29 
f 47/8/33 46/7/33 50/6/33 
f 50/6/33 51/5/33 47/8/33 
f 49/1/34 52/4/34 53/3/34 
f 53/3/34 54/2/34 49/1/34 
f 15/1/35 21/4/35 52/3/35 
f 52/3/35 49/2/35 15/1/35 
f 47/6/36 51/5/36 55/8/36 
f 55/8/36 48/7/36 47/6/36 
f 56/6/37 55/5/37 51/8/37 
f 51/8/37 50/7/37 56/6/37 
f 56/2/38 50/1/38 49/4/38 
f 49/4/38 54/3/38 56/2/38 
f 43/4/39 49/3/39 50/2/39 
f 50/2/39 46/1/39 43/4/39 
f 45/1/40 44/4/40 43/3/40 
f 43/3/40 46/2/40 45/1/40 
f 24/3/14 53/2/14 52/1/14 
f 52/1/14 21/4/14 24/3/14 
f 57/2/41 39/3/41 42/4/41 
f 42/4/41 58/1/41 57/2/41 
f 27/1/42 28/2/42 57/3/42 
f 57/3/42 58/4/42 27/1/42 
f 30/2/43 27/3/43 58/4/43 
f 58/4/43 59/1/43 30/2/43 
f 58/3/44 42/4/44 44/1/44 
f 44/1/44 59/2/44 58/3/44 
f 45/7/45 48/8/45 60/5/45 
f 60/5/45 61/6/45 45/7/45 
f 62/1/42 34/2/42 30/3/42 
f 30/3/42 59/4/42 62/1/42 
f 60/8/46 63/5/46 64/6/46 
f 64/6/46 61/7/46 60/8/46 
f 62/1/47 54/2/47 53/3/47 
f 53/3/47 65/4/47 62/1/47 
f 34/1/48 62/2/48 65/3/48 
f 65/3/48 38/4/48 34/1/48 
f 48/7/49 55/8/49 63/5/49 
f 63/5/49 60/6/49 48/7/49 
f 63/8/50 55/5/50 56/6/50 
f 56/6/50 64/7/50 63/8/50 
f 56/2/51 54/3/51 62/4/51 
f 62/4/51 64/1/51 56/2/51 
f 64/2/52 62/3/52 59/4/52 
f 59/4/52 61/1/52 64/2/52 
f 45/1/53 61/2/53 59/3/53 
f 59/3/53 44/4/53 45/1/53 
f 65/1/14 53/2/14 24/3/14 
f 24/3/14 38/4/14 65/1/14 
# 120 faces

