# Blender 3.1.0
# www.blender.org
mtllib Rotor_Bryan.mtl
o Hauptwelt___Kopie__153_140_415_to_171_255_434.002
v -0.103400 0.010500 -0.055100
v -0.103400 0.010500 0.056000
v -0.103400 0.121600 0.056000
v -0.103400 0.121600 -0.055100
v 0.007700 0.010500 0.056000
v 0.007700 0.010500 -0.055100
v 0.007700 0.121600 -0.055100
v 0.007700 0.121600 0.056000
v -0.325600 -0.045100 0.056000
v -0.325600 -0.045100 -0.055100
v -0.325600 -0.100600 -0.055100
v -0.325600 -0.100600 0.056000
v -0.214500 -0.100600 0.056000
v -0.214500 -0.100600 -0.055100
v -0.214500 -0.045100 -0.055100
v -0.214500 -0.045100 0.056000
v -0.214500 0.010500 0.056000
v -0.214500 0.010500 -0.055100
v -0.103400 -0.045100 0.056000
v -0.103400 -0.045100 -0.055100
v 0.007700 0.177100 0.056000
v 0.007700 0.177100 -0.055100
v 0.118800 0.121600 0.056000
v 0.118800 0.121600 -0.055100
v 0.118800 0.177100 -0.055100
v 0.118800 0.177100 0.056000
v 0.118800 0.232700 0.056000
v 0.118800 0.232700 -0.055100
v 0.229900 0.177100 0.056000
v 0.229900 0.177100 -0.055100
v 0.229900 0.232700 -0.055100
v 0.229900 0.232700 0.056000
v -0.068700 0.079900 0.069900
v -0.068700 0.079900 0.056000
v -0.068700 0.052100 0.056000
v -0.068700 0.052100 0.069900
v -0.020100 0.052100 0.069900
v -0.020100 0.052100 0.056000
v -0.020100 0.079900 0.056000
v -0.020100 0.079900 0.069900
vn -1.0000 -0.0000 -0.0000
vn -0.0000 -1.0000 -0.0000
vn -0.0000 -0.0000 -1.0000
vn 1.0000 -0.0000 -0.0000
vn -0.0000 1.0000 -0.0000
vn -0.0000 -0.0000 1.0000
vt 0.811000 0.334300
vt 0.811000 0.365600
vt 0.842300 0.334300
vt 0.565300 0.469400
vt 0.596500 0.469400
vt 0.810000 0.368700
vt 0.842300 0.334300
vt 0.811000 0.334300
vt 0.565300 0.469400
vt 0.810000 0.337400
vt 0.596500 0.469400
vt 0.842300 0.365600
vt 0.811000 0.334300
vt 0.811000 0.365600
vt 0.842300 0.365600
vt 0.811000 0.365600
vt 0.811000 0.334300
vt 0.842300 0.334300
vt 0.842300 0.365600
vt 0.811000 0.334300
vt 0.842300 0.334300
vt 0.811000 0.365600
vt 0.842300 0.365600
vt 0.565300 0.438200
vt 0.778700 0.368700
vt 0.596500 0.438200
vt 0.811000 0.365600
vt 0.842300 0.334300
vt 0.842300 0.365600
vt 0.596500 0.438200
vt 0.778700 0.337400
vt 0.565300 0.438200
vt 0.596500 0.453800
vt 0.778700 0.337400
vt 0.565300 0.453800
vt 0.565300 0.453800
vt 0.596500 0.453800
vt 0.778700 0.368700
vt 0.565300 0.438200
vt 0.778700 0.368700
vt 0.596500 0.438200
vt 0.596500 0.438200
vt 0.778700 0.337400
vt 0.565300 0.438200
vt 0.810000 0.337400
vt 0.565300 0.438200
vt 0.596500 0.438200
vt 0.810000 0.368700
vt 0.565300 0.438200
vt 0.596500 0.438200
vt 0.810000 0.368700
vt 0.565300 0.453800
vt 0.778700 0.368700
vt 0.596500 0.453800
vt 0.810000 0.337400
vt 0.596500 0.453800
vt 0.778700 0.337400
vt 0.565300 0.453800
vt 0.596500 0.469400
vt 0.778700 0.337400
vt 0.565300 0.469400
vt 0.565300 0.469400
vt 0.596500 0.469400
vt 0.778700 0.368700
vt 0.810000 0.337400
vt 0.565300 0.453800
vt 0.596500 0.453800
vt 0.810000 0.368700
vt 0.565300 0.453800
vt 0.596500 0.453800
vt 0.596500 0.453800
vt 0.778700 0.337400
vt 0.565300 0.453800
vt 0.565300 0.453800
vt 0.596500 0.453800
vt 0.778700 0.368700
vt 0.810000 0.337400
vt 0.565300 0.438200
vt 0.596500 0.438200
vt 0.810000 0.368700
vt 0.565300 0.438200
vt 0.596500 0.438200
vt 0.810000 0.368700
vt 0.565300 0.453800
vt 0.778700 0.368700
vt 0.596500 0.453800
vt 0.810000 0.337400
vt 0.596500 0.453800
vt 0.778700 0.337400
vt 0.565300 0.453800
vt 0.596500 0.469400
vt 0.778700 0.337400
vt 0.565300 0.469400
vt 0.565300 0.469400
vt 0.596500 0.469400
vt 0.778700 0.368700
vt 0.810000 0.337400
vt 0.565300 0.453800
vt 0.596500 0.453800
vt 0.810000 0.368700
vt 0.565300 0.453800
vt 0.596500 0.453800
vt 0.565300 0.469400
vt 0.596500 0.469400
vt 0.810000 0.368700
vt 0.565300 0.469400
vt 0.810000 0.337400
vt 0.596500 0.469400
vt 0.324700 0.288700
vt 0.330600 0.296600
vt 0.330600 0.288700
vt 0.320800 0.288700
vt 0.330600 0.300500
vt 0.320800 0.280900
vt 0.330600 0.300500
vt 0.324700 0.280900
vt 0.330600 0.296600
vt 0.330600 0.280900
vt 0.344200 0.296600
vt 0.348100 0.280900
vt 0.344200 0.280900
vt 0.344200 0.300500
vt 0.352000 0.280900
vt 0.352000 0.288700
vt 0.344200 0.300500
vt 0.348100 0.288700
vt 0.344200 0.296600
vt 0.344200 0.288700
s 1
usemtl wire_224198087.002
f 1/1/1 2/7/1 3/12/1
f 3/12/1 4/16/1 1/1/1
f 5/18/2 2/8/2 1/2/2
f 1/2/2 6/19/2 5/18/2
f 6/20/3 1/3/3 4/15/3
f 4/15/3 7/22/3 6/20/3
f 8/27/4 5/17/4 6/21/4
f 6/21/4 7/23/4 8/27/4
f 4/16/5 3/13/5 8/28/5
f 8/28/5 7/23/5 4/16/5
f 3/14/6 2/8/6 5/18/6
f 5/18/6 8/29/6 3/14/6
f 9/33/1 10/36/1 11/39/1
f 11/39/1 12/42/1 9/33/1
f 13/45/2 12/43/2 11/40/2
f 11/40/2 14/48/2 13/45/2
f 10/37/3 15/52/3 14/49/3
f 14/49/3 11/41/3 10/37/3
f 14/50/4 15/54/4 16/58/4
f 16/58/4 13/46/4 14/50/4
f 16/55/5 15/51/5 10/38/5
f 10/38/5 9/34/5 16/55/5
f 13/47/6 16/56/6 9/35/6
f 9/35/6 12/44/6 13/47/6
f 17/59/1 18/62/1 15/52/1
f 15/52/1 16/56/1 17/59/1
f 19/65/2 16/57/2 15/53/2
f 15/53/2 20/68/2 19/65/2
f 18/63/3 1/4/3 20/69/3
f 20/69/3 15/54/3 18/63/3
f 20/70/4 1/5/4 2/9/4
f 2/9/4 19/66/4 20/70/4
f 2/10/5 1/6/5 18/64/5
f 18/64/5 17/60/5 2/10/5
f 19/67/6 2/11/6 17/61/6
f 17/61/6 16/58/6 19/67/6
f 21/71/1 22/74/1 7/24/1
f 7/24/1 8/30/1 21/71/1
f 23/77/2 8/31/2 7/25/2
f 7/25/2 24/80/2 23/77/2
f 22/75/3 25/84/3 24/81/3
f 24/81/3 7/26/3 22/75/3
f 24/82/4 25/86/4 26/90/4
f 26/90/4 23/78/4 24/82/4
f 26/87/5 25/83/5 22/76/5
f 22/76/5 21/72/5 26/87/5
f 23/79/6 26/88/6 21/73/6
f 21/73/6 8/32/6 23/79/6
f 27/91/1 28/94/1 25/84/1
f 25/84/1 26/88/1 27/91/1
f 29/97/2 26/89/2 25/85/2
f 25/85/2 30/100/2 29/97/2
f 28/95/3 31/103/3 30/101/3
f 30/101/3 25/86/3 28/95/3
f 30/102/4 31/104/4 32/106/4
f 32/106/4 29/98/4 30/102/4
f 32/107/5 31/105/5 28/96/5
f 28/96/5 27/92/5 32/107/5
f 29/99/6 32/108/6 27/93/6
f 27/93/6 26/90/6 29/99/6
f 33/109/1 34/112/1 35/114/1
f 35/114/1 36/116/1 33/109/1
f 37/119/2 36/117/2 35/115/2
f 35/115/2 38/122/2 37/119/2
f 38/123/4 39/124/4 40/126/4
f 40/126/4 37/120/4 38/123/4
f 40/127/5 39/125/5 34/113/5
f 34/113/5 33/110/5 40/127/5
f 37/121/6 40/128/6 33/111/6
f 33/111/6 36/118/6 37/121/6
