# Blender v3.0.1 OBJ File: 'features.blend'
# www.blender.org
mtllib silla_desk.mtl
o Prop_Desk_Chair_Base_Malla.247
v -3.701972 7.022936 -4.041899
v -3.701867 7.022937 2.089958
v 3.745013 7.022936 -4.041897
v 3.745012 7.022937 2.089933
v 3.745013 5.520735 -4.041897
v 3.745012 5.520736 3.335639
v -3.701868 5.520736 3.335638
v -3.701972 5.520735 -4.041898
v -3.701974 15.552528 2.897446
v 3.745012 15.552528 2.897447
v -3.701974 15.552529 4.143152
v 3.745011 15.552529 4.143153
v -3.701974 10.061353 3.524660
v -3.701973 10.061345 -2.587714
v -4.690586 10.061353 3.524660
v -4.690585 10.061352 -2.587688
v -4.690586 9.353088 3.524660
v -4.690585 9.353087 -1.775454
v -3.701973 9.353087 -1.775454
v -3.701974 9.353088 3.524660
v -3.701973 6.163175 -2.587687
v -4.690585 6.163175 -2.587687
v -3.701973 6.163175 -1.775454
v -4.690585 6.163175 -1.775454
v 4.733677 10.061353 3.524661
v 4.733678 10.061345 -2.587713
v 3.745012 10.061353 3.524661
v 3.745013 10.061352 -2.587687
v 3.745012 9.353088 3.524661
v 3.745012 9.353087 -1.775453
v 4.733678 9.353087 -1.775453
v 4.733677 9.353088 3.524661
v 4.733678 6.163175 -2.587686
v 3.745013 6.163175 -2.587686
v 4.733678 6.163175 -1.775452
v 3.745012 6.163175 -1.775453
vt 0.262965 0.065225
vt 0.262965 0.065225
vt 0.262965 0.065225
vt 0.108109 0.063141
vt 0.108109 0.063141
vt 0.108109 0.063141
vt 0.140778 0.063695
vt 0.140778 0.063695
vt 0.140778 0.063695
vt 0.140778 0.063695
vt 0.140778 0.063695
vt 0.140778 0.063695
vt 0.163481 0.064803
vt 0.163481 0.064803
vt 0.163481 0.064803
vt 0.202543 0.065225
vt 0.202543 0.065225
vt 0.202543 0.065225
vt 0.163481 0.064803
vt 0.163481 0.064803
vt 0.163481 0.064803
vt 0.139099 0.065225
vt 0.139099 0.065225
vt 0.139099 0.065225
vt 0.258260 0.063695
vt 0.258260 0.063695
vt 0.258260 0.063695
vt 0.140778 0.063695
vt 0.140778 0.063695
vt 0.140778 0.063695
vt 0.140778 0.063695
vt 0.140778 0.063695
vt 0.354606 0.064486
vt 0.354606 0.064486
vt 0.354606 0.064486
vt 0.199749 0.062402
vt 0.199749 0.062402
vt 0.199749 0.062402
vt 0.232418 0.062956
vt 0.232418 0.062956
vt 0.232418 0.062956
vt 0.232418 0.062956
vt 0.232418 0.062956
vt 0.232418 0.062956
vt 0.255121 0.064064
vt 0.255121 0.064064
vt 0.255121 0.064064
vt 0.294183 0.064486
vt 0.294183 0.064486
vt 0.294183 0.064486
vt 0.255121 0.064064
vt 0.255121 0.064064
vt 0.255121 0.064064
vt 0.230739 0.064486
vt 0.230739 0.064486
vt 0.230739 0.064486
vt 0.349900 0.062956
vt 0.349900 0.062956
vt 0.349900 0.062956
vt 0.232418 0.062956
vt 0.232418 0.062956
vt 0.232418 0.062956
vt 0.232418 0.062956
vt 0.354606 0.064486
vt 0.354606 0.064486
vt 0.354606 0.064486
vt 0.199749 0.062402
vt 0.199749 0.062402
vt 0.199749 0.062402
vt 0.232418 0.062956
vt 0.232418 0.062956
vt 0.232418 0.062956
vt 0.232418 0.062956
vt 0.232418 0.062956
vt 0.232418 0.062956
vt 0.255121 0.064064
vt 0.255121 0.064064
vt 0.255121 0.064064
vt 0.294183 0.064486
vt 0.294183 0.064486
vt 0.294183 0.064486
vt 0.255121 0.064064
vt 0.255121 0.064064
vt 0.255121 0.064064
vt 0.230739 0.064486
vt 0.230739 0.064486
vt 0.230739 0.064486
vt 0.349900 0.062956
vt 0.349900 0.062956
vt 0.349900 0.062956
vt 0.232418 0.062956
vt 0.232418 0.062956
vt 0.232418 0.062956
vt 0.232418 0.062956
vt 0.262965 0.065225
vt 0.108109 0.063141
vt 0.140778 0.063695
vt 0.163481 0.064803
vt 0.202543 0.065225
vt 0.163481 0.064803
vt 0.258260 0.063695
vt 0.354606 0.064486
vt 0.199749 0.062402
vt 0.232418 0.062956
vt 0.232418 0.062956
vt 0.255121 0.064064
vt 0.294183 0.064486
vt 0.255121 0.064064
vt 0.349900 0.062956
vt 0.354606 0.064486
vt 0.199749 0.062402
vt 0.232418 0.062956
vt 0.232418 0.062956
vt 0.255121 0.064064
vt 0.294183 0.064486
vt 0.255121 0.064064
vt 0.349900 0.062956
vn -0.0000 1.0000 -0.0000
vn -0.0000 -1.0000 0.0000
vn 1.0000 0.0000 0.0000
vn -1.0000 0.0000 0.0000
vn 0.0000 -0.0000 -1.0000
vn -0.0000 0.0942 -0.9955
vn -0.0000 0.0943 -0.9955
vn -0.0000 -0.0802 0.9968
vn 0.0000 0.0000 1.0000
usemtl lambert2SG1.001
s 1
f 2/1/1 3/2/1 1/3/1
f 5/4/2 7/5/2 8/6/2
f 4/7/3 5/8/3 3/9/3
f 2/10/4 8/11/4 7/12/4
f 3/13/5 8/14/5 1/15/5
f 2/16/6 10/17/6 4/18/7
f 7/19/8 12/20/8 11/21/8
f 6/22/3 4/23/3 10/24/3
f 9/25/1 12/26/1 10/27/1
f 6/28/3 10/29/3 12/30/3
f 2/10/4 11/31/4 9/32/4
f 13/33/1 16/34/1 15/35/1
f 18/36/2 20/37/2 17/38/2
f 15/39/4 18/40/4 17/41/4
f 13/42/3 19/43/3 14/44/3
f 15/45/9 20/46/9 13/47/9
f 14/48/5 22/49/5 16/50/5
f 18/51/9 23/52/9 19/53/9
f 18/54/4 16/55/4 22/56/4
f 21/57/2 24/58/2 22/59/2
f 18/40/4 22/60/4 24/61/4
f 21/62/3 19/43/3 23/63/3
f 25/64/1 28/65/1 27/66/1
f 30/67/2 32/68/2 29/69/2
f 27/70/4 30/71/4 29/72/4
f 25/73/3 31/74/3 26/75/3
f 27/76/9 32/77/9 25/78/9
f 26/79/5 34/80/5 28/81/5
f 30/82/9 35/83/9 31/84/9
f 30/85/4 28/86/4 34/87/4
f 33/88/2 36/89/2 34/90/2
f 30/71/4 34/91/4 36/92/4
f 33/93/3 31/74/3 35/94/3
f 2/1/1 4/95/1 3/2/1
f 5/4/2 6/96/2 7/5/2
f 4/7/3 6/28/3 5/8/3
f 2/10/4 1/97/4 8/11/4
f 3/13/5 5/98/5 8/14/5
f 2/16/6 9/99/6 10/17/6
f 7/19/8 6/100/8 12/20/8
f 9/25/1 11/101/1 12/26/1
f 2/10/4 7/12/4 11/31/4
f 13/33/1 14/102/1 16/34/1
f 18/36/2 19/103/2 20/37/2
f 15/39/4 16/104/4 18/40/4
f 13/42/3 20/105/3 19/43/3
f 15/45/9 17/106/9 20/46/9
f 14/48/5 21/107/5 22/49/5
f 18/51/9 24/108/9 23/52/9
f 21/57/2 23/109/2 24/58/2
f 21/62/3 14/44/3 19/43/3
f 25/64/1 26/110/1 28/65/1
f 30/67/2 31/111/2 32/68/2
f 27/70/4 28/112/4 30/71/4
f 25/73/3 32/113/3 31/74/3
f 27/76/9 29/114/9 32/77/9
f 26/79/5 33/115/5 34/80/5
f 30/82/9 36/116/9 35/83/9
f 33/88/2 35/117/2 36/89/2
f 33/93/3 26/75/3 31/74/3
o Prop_Desk_Chair_Malla.246
v 0.610403 1.832324 -0.623555
v -0.610810 1.832324 -0.623556
v 0.629038 5.520735 -0.642164
v -0.629444 5.520735 -0.642164
v 0.629038 5.520735 0.616239
v -0.629444 5.520735 0.616238
v 0.610403 1.832325 0.597631
v -0.610810 1.832325 0.597631
v 0.610403 1.011680 0.597631
v -0.610810 1.011680 0.597631
v -0.610810 1.011680 -0.623556
v 0.610403 1.011680 -0.623555
v 0.330937 1.832325 4.608700
v -0.331345 1.832325 4.608700
v -0.331345 1.011680 4.608700
v 0.330937 1.011680 4.608700
v 0.330939 1.832324 -4.634625
v -0.331344 1.832324 -4.634625
v 0.330939 1.011679 -4.634624
v -0.331344 1.011679 -4.634624
v -4.666252 1.832325 0.290624
v -4.666252 1.832325 -0.316656
v -4.666252 1.011680 -0.316656
v -4.666252 1.011680 0.290624
v 4.665872 1.832325 0.290625
v 4.665872 1.832325 -0.316655
v 4.665872 1.011680 0.290625
v 4.665872 1.011680 -0.316654
v -0.413146 0.000003 4.032063
v -0.413146 0.000003 4.878279
v -0.413146 1.011680 4.032063
v -0.413146 1.011681 4.878279
v 0.433017 1.011680 4.032063
v 0.433016 1.011681 4.878279
v 0.433017 0.000003 4.032063
v 0.433016 0.000003 4.878279
v -4.045268 0.000002 -0.425918
v -4.891377 0.000002 -0.425918
v -4.045268 1.011680 -0.425918
v -4.891377 1.011680 -0.425919
v -4.045268 1.011680 0.420244
v -4.891377 1.011680 0.420244
v -4.045268 0.000002 0.420245
v -4.891377 0.000002 0.420244
v 4.044835 0.000002 0.399994
v 4.890998 0.000002 0.399994
v 4.044835 1.011680 0.399994
v 4.890998 1.011680 0.399994
v 4.044835 1.011680 -0.446169
v 4.890998 1.011680 -0.446169
v 4.044835 0.000002 -0.446169
v 4.890998 0.000002 -0.446168
v 0.412713 0.000001 -4.057987
v 0.412713 0.000001 -4.904202
v 0.412713 1.011679 -4.057987
v 0.412713 1.011679 -4.904202
v -0.433423 1.011679 -4.057987
v -0.433423 1.011679 -4.904202
v -0.433423 0.000001 -4.057987
v -0.433423 0.000001 -4.904202
vt 0.293353 0.082395
vt 0.293353 0.082395
vt 0.293353 0.082395
vt 0.293353 0.082395
vt 0.293353 0.082395
vt 0.293353 0.082395
vt 0.293353 0.082395
vt 0.293353 0.082395
vt 0.293353 0.082395
vt 0.264269 0.081941
vt 0.264269 0.081941
vt 0.264269 0.081941
vt 0.264269 0.081941
vt 0.264269 0.081941
vt 0.264269 0.081941
vt 0.293353 0.082395
vt 0.293353 0.082395
vt 0.293353 0.082395
vt 0.264269 0.081941
vt 0.264269 0.081941
vt 0.264269 0.081941
vt 0.293353 0.082395
vt 0.293353 0.082395
vt 0.293353 0.082395
vt 0.264269 0.081941
vt 0.264269 0.081941
vt 0.264269 0.081941
vt 0.323345 0.083304
vt 0.323345 0.083304
vt 0.323345 0.083304
vt 0.264269 0.081941
vt 0.264269 0.081941
vt 0.293353 0.082395
vt 0.264269 0.081941
vt 0.264269 0.081941
vt 0.323345 0.083304
vt 0.323345 0.083304
vt 0.323345 0.083304
vt 0.264269 0.081941
vt 0.264269 0.081941
vt 0.293353 0.082395
vt 0.293353 0.082395
vt 0.264269 0.081941
vt 0.264269 0.081941
vt 0.323345 0.083304
vt 0.293353 0.082395
vt 0.293353 0.082395
vt 0.293353 0.082395
vt 0.293353 0.082395
vt 0.323345 0.083304
vt 0.323345 0.083304
vt 0.293353 0.082395
vt 0.293353 0.082395
vt 0.293353 0.082395
vt 0.079236 0.477728
vt 0.079236 0.477728
vt 0.079236 0.477728
vt 0.138394 0.474379
vt 0.138394 0.474379
vt 0.138394 0.474379
vt 0.079236 0.477728
vt 0.079236 0.477728
vt 0.079236 0.477728
vt 0.109373 0.475495
vt 0.109373 0.475495
vt 0.109373 0.475495
vt 0.109373 0.475495
vt 0.109373 0.475495
vt 0.109373 0.475495
vt 0.079236 0.477728
vt 0.079236 0.477728
vt 0.079236 0.477728
vt 0.138394 0.474379
vt 0.138394 0.474379
vt 0.138394 0.474379
vt 0.079236 0.477728
vt 0.079236 0.477728
vt 0.079236 0.477728
vt 0.109373 0.475495
vt 0.109373 0.475495
vt 0.109373 0.475495
vt 0.109373 0.475495
vt 0.109373 0.475495
vt 0.109373 0.475495
vt 0.079236 0.477728
vt 0.079236 0.477728
vt 0.079236 0.477728
vt 0.138394 0.474379
vt 0.138394 0.474379
vt 0.138394 0.474379
vt 0.079236 0.477728
vt 0.079236 0.477728
vt 0.079236 0.477728
vt 0.109373 0.475495
vt 0.109373 0.475495
vt 0.109373 0.475495
vt 0.109373 0.475495
vt 0.109373 0.475495
vt 0.109373 0.475495
vt 0.079236 0.477728
vt 0.079236 0.477728
vt 0.079236 0.477728
vt 0.138394 0.474379
vt 0.138394 0.474379
vt 0.138394 0.474379
vt 0.079236 0.477728
vt 0.079236 0.477728
vt 0.079236 0.477728
vt 0.109373 0.475495
vt 0.109373 0.475495
vt 0.109373 0.475495
vt 0.109373 0.475495
vt 0.109373 0.475495
vt 0.109373 0.475495
vt 0.293353 0.082395
vt 0.264269 0.081941
vt 0.264269 0.081941
vt 0.264269 0.081941
vt 0.264269 0.081941
vt 0.323345 0.083304
vt 0.264269 0.081941
vt 0.264269 0.081941
vt 0.323345 0.083304
vt 0.264269 0.081941
vt 0.264269 0.081941
vt 0.323345 0.083304
vt 0.293353 0.082395
vt 0.293353 0.082395
vt 0.079236 0.477728
vt 0.138394 0.474379
vt 0.079236 0.477728
vt 0.109373 0.475495
vt 0.109373 0.475495
vt 0.079236 0.477728
vt 0.138394 0.474379
vt 0.079236 0.477728
vt 0.109373 0.475495
vt 0.109373 0.475495
vt 0.079236 0.477728
vt 0.138394 0.474379
vt 0.079236 0.477728
vt 0.109373 0.475495
vt 0.109373 0.475495
vt 0.079236 0.477728
vt 0.138394 0.474379
vt 0.079236 0.477728
vt 0.109373 0.475495
vt 0.109373 0.475495
vn 0.0000 -0.0050 -1.0000
vn -0.0000 -0.0050 1.0000
vn 0.0000 -1.0000 0.0000
vn -1.0000 -0.0051 -0.0000
vn 1.0000 -0.0051 0.0000
vn 0.0000 0.0000 1.0000
vn -1.0000 -0.0000 0.0000
vn 0.0000 -0.0000 -1.0000
vn 1.0000 0.0000 0.0000
vn 0.0000 1.0000 -0.0000
vn -0.9976 0.0000 0.0695
vn 0.9976 0.0000 0.0695
vn 0.9976 0.0000 -0.0695
vn -0.9976 -0.0000 -0.0695
vn -0.0755 -0.0000 -0.9971
vn -0.0755 0.0000 0.9971
vn 0.0755 0.0000 0.9971
vn 0.0755 -0.0000 -0.9971
usemtl lambert2SG1.001
s 1
f 38/118/10 39/119/10 37/120/10
f 42/121/11 43/122/11 41/123/11
f 46/124/12 48/125/12 45/126/12
f 44/127/13 40/128/13 38/129/13
f 37/130/14 41/131/14 43/132/14
f 50/133/15 52/134/15 49/135/15
f 58/136/16 60/137/16 57/138/16
f 53/139/17 56/140/17 54/141/17
f 61/142/18 64/143/18 62/144/18
f 44/145/19 49/146/19 43/147/19
f 46/148/20 50/149/20 44/127/20
f 45/126/12 51/150/12 46/124/12
f 43/132/21 52/151/21 45/152/21
f 37/153/19 54/154/19 38/155/19
f 48/156/22 53/157/22 37/130/22
f 47/158/12 55/159/12 48/125/12
f 38/129/23 56/160/23 47/161/23
f 38/155/19 57/162/19 44/145/19
f 47/158/24 58/163/24 38/118/24
f 47/158/12 60/164/12 59/165/12
f 44/166/25 60/164/25 46/124/25
f 37/153/19 61/167/19 62/168/19
f 45/126/26 61/169/26 43/122/26
f 48/125/12 63/170/12 45/126/12
f 37/120/27 64/171/27 48/125/27
f 66/172/16 67/173/16 65/174/16
f 68/175/19 69/176/19 67/177/19
f 70/178/18 71/179/18 69/180/18
f 72/181/12 65/182/12 71/183/12
f 72/181/15 68/184/15 66/185/15
f 65/182/17 69/186/17 71/183/17
f 74/187/17 75/188/17 73/189/17
f 76/190/19 77/191/19 75/192/19
f 78/193/15 79/194/15 77/195/15
f 80/196/12 73/197/12 79/198/12
f 80/196/16 76/199/16 74/200/16
f 73/197/18 77/201/18 79/198/18
f 82/202/15 83/203/15 81/204/15
f 84/205/19 85/206/19 83/207/19
f 86/208/17 87/209/17 85/210/17
f 88/211/12 81/212/12 87/213/12
f 88/211/18 84/214/18 82/215/18
f 81/212/16 85/216/16 87/213/16
f 90/217/18 91/218/18 89/219/18
f 92/220/19 93/221/19 91/222/19
f 94/223/16 95/224/16 93/225/16
f 96/226/12 89/227/12 95/228/12
f 96/226/17 92/229/17 90/230/17
f 89/227/15 93/231/15 95/228/15
f 38/118/10 40/232/10 39/119/10
f 42/121/11 44/166/11 43/122/11
f 46/124/12 47/158/12 48/125/12
f 44/127/13 42/233/13 40/128/13
f 37/130/14 39/234/14 41/131/14
f 50/133/15 51/150/15 52/134/15
f 58/136/16 59/235/16 60/137/16
f 53/139/17 55/159/17 56/140/17
f 61/142/18 63/236/18 64/143/18
f 44/145/19 50/237/19 49/146/19
f 46/148/20 51/238/20 50/149/20
f 45/126/12 52/134/12 51/150/12
f 43/132/21 49/239/21 52/151/21
f 37/153/19 53/240/19 54/154/19
f 48/156/22 55/241/22 53/157/22
f 47/158/12 56/140/12 55/159/12
f 38/129/23 54/242/23 56/160/23
f 38/155/19 58/243/19 57/162/19
f 47/158/24 59/165/24 58/163/24
f 47/158/12 46/124/12 60/164/12
f 44/166/25 57/244/25 60/164/25
f 37/153/19 43/147/19 61/167/19
f 45/126/26 63/170/26 61/169/26
f 48/125/12 64/171/12 63/170/12
f 37/120/27 62/245/27 64/171/27
f 66/172/16 68/246/16 67/173/16
f 68/175/19 70/247/19 69/176/19
f 70/178/18 72/248/18 71/179/18
f 72/181/12 66/185/12 65/182/12
f 72/181/15 70/249/15 68/184/15
f 65/182/17 67/250/17 69/186/17
f 74/187/17 76/251/17 75/188/17
f 76/190/19 78/252/19 77/191/19
f 78/193/15 80/253/15 79/194/15
f 80/196/12 74/200/12 73/197/12
f 80/196/16 78/254/16 76/199/16
f 73/197/18 75/255/18 77/201/18
f 82/202/15 84/256/15 83/203/15
f 84/205/19 86/257/19 85/206/19
f 86/208/17 88/258/17 87/209/17
f 88/211/12 82/215/12 81/212/12
f 88/211/18 86/259/18 84/214/18
f 81/212/16 83/260/16 85/216/16
f 90/217/18 92/261/18 91/218/18
f 92/220/19 94/262/19 93/221/19
f 94/223/16 96/263/16 95/224/16
f 96/226/12 90/230/12 89/227/12
f 96/226/17 94/264/17 92/229/17
f 89/227/15 91/265/15 93/231/15
