# 3ds Max Wavefront OBJ Exporter v0.99 - (c)2007 guruware
# File Created: 12.04.2022 15:44:32

mtllib SM_Prop_Chair_BeanBag_03_OBJ.mtl

#
# object SM_Prop_Chair_BeanBag_03
#

v  32.9300 3.0430 -19.3770
v  14.3469 -0.4606 -25.3559
v  18.6168 7.0197 -35.7643
v  39.0659 11.6946 -25.4015
v  -10.2541 -0.4606 -25.6107
v  -13.7433 7.0992 -36.2122
v  -28.9832 3.0608 -20.0441
v  -34.8483 12.0725 -26.7058
v  18.9201 21.5375 -32.9743
v  40.4690 31.4485 -20.7097
v  -13.2479 21.7270 -33.3820
v  -33.0702 32.4505 -22.8181
v  16.4256 31.8970 -23.8292
v  11.6853 35.4641 0.0962
v  -12.3174 32.2817 -24.3871
v  -11.7410 36.2596 -1.1144
v  -25.8135 41.6820 -7.8323
v  32.6208 41.2258 -6.4525
v  11.5293 45.8468 13.7871
v  36.4678 50.5775 5.2565
v  -12.9680 46.5029 12.5879
v  -30.3222 52.4951 3.6146
v  19.0809 66.5665 27.5577
v  -11.6453 66.7486 27.1045
v  -33.4672 57.9386 24.0165
v  37.9824 59.4480 24.0726
v  15.0610 65.4239 42.7896
v  33.3666 54.4996 41.4714
v  -9.5527 65.4444 42.5230
v  -28.8336 54.9300 40.5984
v  17.4838 40.5080 58.6064
v  38.1835 34.9940 48.7021
v  -14.8563 40.4238 58.3470
v  -35.6194 34.9940 47.9376
v  17.3279 7.8262 60.0841
v  38.1835 11.4956 48.7021
v  -15.0040 7.8262 59.7491
v  -35.6194 11.4956 47.9376
v  13.5824 -0.4606 48.4473
v  32.2992 2.9320 42.6946
v  -11.0186 -0.4606 48.1925
v  -29.6119 2.9320 42.0533
v  17.6628 -5.4607 27.7519
v  38.4383 -0.4606 24.1011
v  -14.6691 -5.4607 27.4169
v  -35.3646 -0.4606 23.3366
v  17.9977 -5.4607 -4.5800
v  38.6690 -0.2088 -0.8645
v  -14.3342 -5.4607 -4.9149
v  -35.1262 -0.2925 -1.5079
v  -47.0270 12.8496 26.6979
v  -46.8338 14.3194 -7.7608
v  -46.9827 40.1337 24.9981
v  -44.7565 35.7471 -3.3800
v  -39.6799 51.0571 13.5962
v  -39.8011 47.6428 0.2078
v  49.9544 13.0045 27.4786
v  50.1461 14.4893 -7.0024
v  50.3044 39.7994 26.0483
v  50.3503 39.0561 -2.9836
v  44.4986 51.7461 15.3827
v  44.1160 47.3776 -2.6083
# 62 vertices

vn 0.3772 -0.7690 -0.5161
vn 0.0060 -0.8132 -0.5820
vn -0.3648 -0.7625 -0.5343
vn 0.4198 0.1736 -0.8909
vn 0.0138 0.1890 -0.9819
vn -0.3692 0.1982 -0.9080
vn 0.0367 0.9894 -0.1402
vn 0.0276 0.9875 -0.1554
vn 0.5215 0.5902 -0.6161
vn -0.3526 0.7631 -0.5417
vn 0.0543 0.7990 -0.5989
vn 0.5021 0.7160 -0.4849
vn -0.3581 0.6038 -0.7121
vn 0.0333 0.5630 -0.8258
vn -0.3227 0.9009 -0.2902
vn 0.4480 0.8500 0.2773
vn 0.0026 0.9968 0.0797
vn -0.4368 0.8748 0.2097
vn 0.4214 0.4708 0.7751
vn -0.0083 0.5356 0.8445
vn -0.4309 0.5022 0.7498
vn 0.4566 0.0221 0.8894
vn -0.0092 0.0441 0.9990
vn -0.4737 0.0233 0.8803
vn 0.3661 -0.7646 0.5304
vn -0.0060 -0.8136 0.5814
vn -0.3770 -0.7646 0.5227
vn 0.2606 -0.9281 0.2660
vn -0.0024 -0.9721 0.2344
vn -0.2660 -0.9281 0.2606
vn 0.2401 -0.9707 -0.0019
vn 0.0000 -1.0000 -0.0000
vn -0.2380 -0.9713 -0.0053
vn 0.2708 -0.9270 -0.2594
vn 0.0024 -0.9721 -0.2344
vn -0.2643 -0.9270 -0.2663
vn -0.6661 -0.6735 0.3204
vn -0.7654 -0.6431 -0.0233
vn -0.6573 -0.6736 -0.3378
vn -0.8878 0.0162 0.4599
vn -0.9981 0.0457 -0.0405
vn -0.8250 0.1819 -0.5351
vn -0.7617 0.5005 0.4115
vn -0.7925 0.6056 0.0726
vn -0.7258 0.4573 -0.5139
vn 0.6666 -0.6677 0.3314
vn 0.7740 -0.6331 -0.0130
vn 0.6719 -0.6706 -0.3145
vn 0.8778 0.0075 0.4790
vn 0.9999 -0.0110 0.0037
vn 0.8539 0.0704 -0.5157
vn 0.7826 0.4449 0.4353
vn 0.2946 0.8943 -0.3369
vn -0.2118 0.7710 -0.6006
vn -0.3840 0.6492 -0.6566
vn 0.5280 0.4718 -0.7061
vn 0.2479 0.8684 -0.4294
vn -0.0047 0.9857 -0.1684
vn 0.0181 0.6559 -0.7547
vn 0.1076 0.6724 -0.7323
vn -0.0520 0.6504 -0.7578
vn -0.4166 0.8696 -0.2652
vn -0.0073 0.7971 -0.6037
vn 0.8311 0.5361 0.1481
vn 0.6419 0.5069 -0.5754
vn 0.8712 0.4874 -0.0592
vn -0.8912 0.4355 -0.1262
# 67 vertex normals

vt 0.1224 0.2026 0.0000
vt 0.1223 0.2027 0.0000
vt 0.1225 0.2025 0.0000
vt 0.1220 0.2027 0.0000
vt 0.1220 0.2026 0.0000
vt 0.1219 0.2026 0.0000
vt 0.1218 0.2025 0.0000
vt 0.1224 0.2025 0.0000
vt 0.1226 0.2023 0.0000
vt 0.1221 0.2025 0.0000
vt 0.1219 0.2023 0.0000
vt 0.1224 0.2023 0.0000
vt 0.1224 0.2022 0.0000
vt 0.1221 0.2023 0.0000
vt 0.1222 0.2021 0.0000
vt 0.1219 0.2021 0.0000
vt 0.1226 0.2022 0.0000
vt 0.1224 0.2019 0.0000
vt 0.1226 0.2020 0.0000
vt 0.1221 0.2019 0.0000
vt 0.1219 0.2020 0.0000
vt 0.1224 0.2017 0.0000
vt 0.1220 0.2017 0.0000
vt 0.1218 0.2018 0.0000
vt 0.1225 0.2018 0.0000
vt 0.1223 0.2017 0.0000
vt 0.1224 0.2018 0.0000
vt 0.1219 0.2018 0.0000
vt 0.1222 0.2018 0.0000
vt 0.1218 0.2019 0.0000
vt 0.1222 0.2020 0.0000
vt 0.1224 0.2020 0.0000
vt 0.1217 0.2020 0.0000
vt 0.1221 0.2022 0.0000
vt 0.1223 0.2022 0.0000
vt 0.1219 0.2022 0.0000
vt 0.1218 0.2022 0.0000
vt 0.1222 0.2024 0.0000
vt 0.1219 0.2024 0.0000
vt 0.1217 0.2023 0.0000
vt 0.1222 0.2026 0.0000
vt 0.1217 0.2022 0.0000
vt 0.1217 0.2024 0.0000
vt 0.1218 0.2020 0.0000
vt 0.1218 0.2021 0.0000
vt 0.1225 0.2022 0.0000
vt 0.1226 0.2024 0.0000
vt 0.1227 0.2022 0.0000
vt 0.1226 0.2021 0.0000
# 49 texture coords

o SM_Prop_Chair_BeanBag_03
g SM_Prop_Chair_BeanBag_03
usemtl SM_Prop_Chair_BeanBag_03_OBJ_OfficeSHD9
s off
f 1/1/1 2/2/1 3/1/1 
f 3/1/1 4/3/1 1/1/1 
f 2/2/2 5/4/2 6/5/2 
f 6/5/2 3/1/2 2/2/2 
f 5/4/3 7/6/3 8/7/3 
f 8/7/3 6/5/3 5/4/3 
f 4/3/4 3/1/4 9/8/4 
f 9/8/4 10/9/4 4/3/4 
f 3/1/5 6/5/5 11/10/5 
f 11/10/5 9/8/5 3/1/5 
f 6/5/6 8/7/6 12/11/6 
f 12/11/6 11/10/6 6/5/6 
f 10/9/7 13/12/7 14/13/7 
f 13/12/8 15/14/8 16/15/8 
f 16/15/8 14/13/8 13/12/8 
f 16/15/9 12/11/9 17/16/9 
f 18/17/10 14/13/10 19/18/10 
f 19/18/10 20/19/10 18/17/10 
f 14/13/11 16/15/11 21/20/11 
f 21/20/11 19/18/11 14/13/11 
f 16/15/12 17/16/12 22/21/12 
f 22/21/12 21/20/12 16/15/12 
f 20/19/13 19/18/13 23/22/13 
f 19/18/14 21/20/14 24/23/14 
f 24/23/14 23/22/14 19/18/14 
f 24/23/15 22/21/15 25/24/15 
f 26/25/16 23/22/16 27/26/16 
f 27/26/16 28/27/16 26/25/16 
f 23/22/17 24/23/17 29/23/17 
f 29/23/17 27/26/17 23/22/17 
f 24/23/18 25/24/18 30/28/18 
f 30/28/18 29/23/18 24/23/18 
f 28/27/19 27/26/19 31/29/19 
f 31/29/19 32/18/19 28/27/19 
f 27/26/20 29/23/20 33/28/20 
f 33/28/20 31/29/20 27/26/20 
f 29/23/21 30/28/21 34/30/21 
f 34/30/21 33/28/21 29/23/21 
f 32/18/22 31/29/22 35/31/22 
f 35/31/22 36/32/22 32/18/22 
f 31/29/23 33/28/23 37/21/23 
f 37/21/23 35/31/23 31/29/23 
f 33/28/24 34/30/24 38/33/24 
f 38/33/24 37/21/24 33/28/24 
f 36/32/25 35/31/25 39/34/25 
f 39/34/25 40/35/25 36/32/25 
f 35/31/26 37/21/26 41/36/26 
f 41/36/26 39/34/26 35/31/26 
f 37/21/27 38/33/27 42/37/27 
f 42/37/27 41/36/27 37/21/27 
f 40/35/28 39/34/28 43/38/28 
f 43/38/28 44/12/28 40/35/28 
f 39/34/29 41/36/29 45/39/29 
f 45/39/29 43/38/29 39/34/29 
f 41/36/30 42/37/30 46/40/30 
f 46/40/30 45/39/30 41/36/30 
f 44/12/31 43/38/31 47/41/31 
f 47/41/31 48/8/31 44/12/31 
f 43/38/32 45/39/32 49/6/32 
f 49/6/32 47/41/32 43/38/32 
f 45/39/33 46/40/33 50/7/33 
f 50/7/33 49/6/33 45/39/33 
f 48/8/34 47/41/34 2/2/34 
f 2/2/34 1/1/34 48/8/34 
f 47/41/35 49/6/35 5/4/35 
f 5/4/35 2/2/35 47/41/35 
f 49/6/36 50/7/36 7/6/36 
f 7/6/36 5/4/36 49/6/36 
f 46/40/37 42/37/37 38/33/37 
f 38/33/37 51/42/37 46/40/37 
f 50/7/38 46/40/38 51/42/38 
f 51/42/38 52/43/38 50/7/38 
f 7/6/39 50/7/39 52/43/39 
f 52/43/39 8/7/39 7/6/39 
f 51/42/40 38/33/40 34/30/40 
f 34/30/40 53/33/40 51/42/40 
f 52/43/41 51/42/41 53/33/41 
f 53/33/41 54/42/41 52/43/41 
f 8/7/42 52/43/42 54/42/42 
f 54/42/42 12/11/42 8/7/42 
f 53/33/43 34/30/43 30/28/43 
f 30/28/43 25/24/43 53/33/43 
f 55/44/44 53/33/44 25/24/44 
f 12/11/45 54/42/45 56/45/45 
f 40/35/46 44/12/46 57/46/46 
f 57/46/46 36/32/46 40/35/46 
f 44/12/47 48/8/47 58/47/47 
f 58/47/47 57/46/47 44/12/47 
f 48/8/48 1/1/48 4/3/48 
f 4/3/48 58/47/48 48/8/48 
f 36/32/49 57/46/49 59/19/49 
f 59/19/49 32/18/49 36/32/49 
f 57/46/50 58/47/50 60/48/50 
f 60/48/50 59/19/50 57/46/50 
f 58/47/51 4/3/51 10/9/51 
f 10/9/51 60/48/51 58/47/51 
f 32/18/52 59/19/52 26/25/52 
f 26/25/52 28/27/52 32/18/52 
f 26/25/53 61/19/53 62/49/53 
f 62/49/53 20/19/53 26/25/53 
f 62/49/54 10/9/54 18/17/54 
f 18/17/54 20/19/54 62/49/54 
f 10/9/55 14/13/55 18/17/55 
f 21/20/56 22/21/56 24/23/56 
f 20/19/57 23/22/57 26/25/57 
f 15/14/58 12/11/58 16/15/58 
f 13/12/59 9/8/59 11/10/59 
f 11/10/59 15/14/59 13/12/59 
f 13/12/60 10/9/60 9/8/60 
f 15/14/61 11/10/61 12/11/61 
f 56/45/62 55/44/62 25/24/62 
f 25/24/62 22/21/62 56/45/62 
f 12/11/63 56/45/63 22/21/63 
f 22/21/63 17/16/63 12/11/63 
f 59/19/64 61/19/64 26/25/64 
f 60/48/65 10/9/65 62/49/65 
f 59/19/66 60/48/66 62/49/66 
f 62/49/66 61/19/66 59/19/66 
f 54/42/67 53/33/67 55/44/67 
f 55/44/67 56/45/67 54/42/67 
# 120 faces

