# Blender 3.1.0
# www.blender.org
mtllib SM_Prop_Bin_03_OBJ.mtl
o SM_Prop_Bin_03
v 0.481800 0.473001 -6.696962
v -0.136948 0.473001 -6.335680
v -0.376255 1.606701 -6.485331
v 0.469094 1.606701 -6.978923
v 0.563884 1.606701 -4.875206
v 1.409231 1.606701 -5.368797
v 0.551177 0.473001 -5.157167
v 1.169924 0.473001 -5.518449
v -6.448946 0.473001 -2.650157
v -6.688254 1.606701 -2.799809
v -5.842905 1.606701 -3.293400
v -5.830200 0.473001 -3.011440
v -5.748116 1.606701 -1.189684
v -4.902767 1.606701 -1.683276
v -5.760822 0.473001 -1.471645
v -5.142076 0.473001 -1.832926
v -0.843543 2.249599 8.785389
v 7.685669 2.249599 3.805254
v 8.873549 22.418900 4.001230
v -1.256806 22.418898 9.916258
v -0.687888 2.809799 7.719248
v 6.680688 2.809799 3.416800
v 0.703186 2.809801 -6.820552
v -6.665390 2.809801 -2.518104
v -8.858335 22.418900 -3.102478
v 1.272021 22.418901 -9.017505
v 0.858841 2.249701 -7.886693
v -7.670372 2.249701 -2.906559
v -7.041893 1.606701 -2.874364
v 0.577981 1.606701 -7.323544
v 7.057191 1.606699 3.773059
v -0.562683 1.606699 8.222239
v -1.102827 22.716698 9.286730
v 8.249713 22.716700 3.825862
v 7.425920 22.418900 3.566452
v -0.923843 22.418898 8.441807
v 1.118128 22.716702 -8.388029
v 0.939145 22.418901 -7.543104
v -8.234411 22.716700 -2.927159
v -7.410617 22.418900 -2.667750
v 6.464244 0.472999 3.548852
v 6.703552 1.606699 3.698504
v 5.858204 1.606699 4.192095
v 5.845496 0.472999 3.910134
v 5.763413 1.606699 2.088380
v 4.918066 1.606699 2.581971
v 5.776121 0.472999 2.370341
v 5.157373 0.472999 2.731622
v -0.466502 0.472999 7.595658
v 0.152245 0.472999 7.234375
v 0.391553 1.606699 7.384027
v -0.453795 1.606699 7.877619
v -0.548585 1.606699 5.773902
v -1.393933 1.606699 6.267494
v -0.535878 0.472999 6.055863
v -1.154625 0.472999 6.417145
vn -0.4924 -0.2153 -0.8433
vn -0.0000 1.0000 -0.0000
vn 0.4924 -0.2153 0.8433
vn -0.0000 -1.0000 -0.0000
vn -0.8578 -0.1150 0.5009
vn 0.8578 -0.1150 -0.5009
vn 0.5039 -0.0381 0.8629
vn -0.5039 -0.0381 -0.8629
vn 0.8627 -0.0459 -0.5037
vn -0.8627 -0.0459 0.5037
vn -0.2129 0.9065 -0.3646
vn -0.3941 0.8898 0.2301
vn 0.2129 0.9065 0.3646
vn 0.3941 0.8898 -0.2301
vn -0.5041 0.0257 -0.8633
vn -0.8632 0.0290 0.5040
vn 0.5041 0.0257 0.8633
vn 0.8632 0.0290 -0.5040
vn 0.2715 0.8426 0.4650
vn 0.4764 0.8341 -0.2781
vn -0.2715 0.8426 -0.4650
vn -0.4763 0.8342 0.2781
vn -0.4444 -0.4725 -0.7611
vn 0.6682 -0.6335 -0.3901
vn 0.6681 -0.6336 -0.3901
vn 0.4444 -0.4725 0.7611
vn -0.6681 -0.6336 0.3901
vn -0.6682 -0.6335 0.3901
vt 0.083018 0.256676
vt 0.112855 0.276977
vt 0.079019 0.250524
vt 0.083018 0.256676
vt 0.112855 0.276977
vt 0.079019 0.250524
vt 0.083018 0.256676
vt 0.112855 0.276977
vt 0.079019 0.250524
vt 0.083018 0.256676
vt 0.112855 0.276977
vt 0.079019 0.250524
vt 0.112755 0.276977
vt 0.078919 0.250524
vt 0.112755 0.276977
vt 0.078919 0.250524
vt 0.112755 0.276977
vt 0.078919 0.250524
vt 0.112755 0.276977
vt 0.078919 0.250524
vt 0.082918 0.256676
vt 0.112755 0.276977
vt 0.078919 0.250524
vt 0.082918 0.256576
vt 0.112755 0.276877
vt 0.078919 0.250424
vt 0.082918 0.256576
vt 0.112755 0.276877
vt 0.078919 0.250424
vt 0.082918 0.256676
vt 0.112755 0.276977
vt 0.078919 0.250524
vt 0.112655 0.276877
vt 0.078819 0.250424
vt 0.112655 0.276877
vt 0.078819 0.250424
vt 0.112655 0.276977
vt 0.078819 0.250524
vt 0.112655 0.276977
vt 0.078819 0.250524
vt 0.135328 0.348287
vt 0.090419 0.228324
vt 0.135128 0.347987
vt 0.090219 0.228024
vt 0.135028 0.347487
vt 0.114112 0.303501
vt 0.135328 0.347787
vt 0.114412 0.303801
vt 0.124255 0.254677
vt 0.103327 0.380631
vt 0.124055 0.254477
vt 0.103127 0.380431
vt 0.124355 0.254277
vt 0.103427 0.380231
vt 0.103039 0.380231
vt 0.124555 0.254477
vt 0.098976 0.375780
vt 0.103239 0.380431
vt 0.103627 0.380431
vt 0.135828 0.347487
vt 0.114911 0.303501
vt 0.135528 0.347287
vt 0.114612 0.303301
vt 0.135428 0.347787
vt 0.092057 0.233361
vt 0.090519 0.227824
vt 0.135628 0.347987
vt 0.092257 0.233561
vt 0.090719 0.228024
vt 0.131937 0.350448
vt 0.092257 0.233561
vt 0.090719 0.228024
vt 0.131737 0.350348
vt 0.092057 0.233461
vt 0.090519 0.227924
vt 0.131437 0.350548
vt 0.090219 0.228124
vt 0.131637 0.350748
vt 0.090419 0.228324
vt 0.080576 0.228132
vt 0.114412 0.303801
vt 0.080276 0.227832
vt 0.114112 0.303501
vt 0.080276 0.227832
vt 0.103027 0.379931
vt 0.080576 0.228132
vt 0.103327 0.380231
vt 0.080776 0.227632
vt 0.114612 0.303301
vt 0.080776 0.227632
vt 0.103527 0.379731
vt 0.098876 0.375080
vt 0.103139 0.379731
vt 0.080976 0.227832
vt 0.114812 0.303501
vt 0.080976 0.227832
vt 0.099076 0.375280
vt 0.103727 0.379931
vt 0.112055 0.276977
vt 0.078219 0.250524
vt 0.112055 0.276977
vt 0.078219 0.250524
vt 0.112055 0.276977
vt 0.078219 0.250524
vt 0.112055 0.276977
vt 0.078219 0.250524
vt 0.112155 0.276977
vt 0.082318 0.256676
vt 0.078319 0.250524
vt 0.112155 0.276977
vt 0.082318 0.256676
vt 0.078319 0.250524
vt 0.082318 0.256676
vt 0.112155 0.276977
vt 0.078319 0.250524
vt 0.082318 0.256676
vt 0.112155 0.276977
vt 0.078319 0.250524
vt 0.111855 0.276977
vt 0.078019 0.250524
vt 0.111855 0.276977
vt 0.078019 0.250524
vt 0.111855 0.276977
vt 0.078019 0.250524
vt 0.111855 0.276977
vt 0.078019 0.250524
vt 0.111955 0.276977
vt 0.082118 0.256676
vt 0.078119 0.250524
vt 0.111955 0.276877
vt 0.082118 0.256576
vt 0.078119 0.250424
vt 0.082118 0.256676
vt 0.111955 0.276977
vt 0.078119 0.250524
vt 0.082118 0.256676
vt 0.111955 0.276977
vt 0.078119 0.250524
s 1
usemtl lambert1.001
f 1/1/1 2/4/1 3/7/1
f 3/7/1 4/10/1 1/1/1
f 4/11/2 3/8/2 5/13/2
f 5/13/2 6/15/2 4/11/2
f 6/16/3 5/14/3 7/18/3
f 7/18/3 8/20/3 6/16/3
f 8/19/4 7/17/4 2/5/4
f 2/5/4 1/2/4 8/19/4
f 2/6/5 7/18/5 5/14/5
f 5/14/5 3/9/5 2/6/5
f 8/20/6 1/3/6 4/12/6
f 4/12/6 6/16/6 8/20/6
f 9/21/1 10/24/1 11/27/1
f 11/27/1 12/30/1 9/21/1
f 10/25/2 13/33/2 14/35/2
f 14/35/2 11/28/2 10/25/2
f 13/34/3 15/38/3 16/40/3
f 16/40/3 14/36/3 13/34/3
f 15/37/4 9/22/4 12/31/4
f 12/31/4 16/39/4 15/37/4
f 12/32/6 11/29/6 14/36/6
f 14/36/6 16/40/6 12/32/6
f 15/38/5 13/34/5 10/26/5
f 10/26/5 9/23/5 15/38/5
f 17/41/7 18/43/7 19/45/7
f 19/45/7 20/47/7 17/41/7
f 21/49/2 22/51/2 23/53/2
f 23/53/2 24/56/2 21/49/2
f 25/60/8 26/62/8 27/64/8
f 27/64/8 28/67/8 25/60/8
f 29/70/4 30/73/4 31/76/4
f 31/76/4 32/78/4 29/70/4
f 18/43/9 27/64/9 26/62/9
f 26/62/9 19/45/9 18/43/9
f 28/67/10 17/41/10 20/47/10
f 20/47/10 25/60/10 28/67/10
f 33/80/11 34/82/11 35/84/11
f 35/84/11 36/86/11 33/80/11
f 34/82/12 37/88/12 38/90/12
f 38/90/12 35/84/12 34/82/12
f 37/88/13 39/94/13 40/96/13
f 40/96/13 38/90/13 37/88/13
f 39/94/14 33/80/14 36/86/14
f 36/86/14 40/96/14 39/94/14
f 36/87/15 35/85/15 22/52/15
f 22/52/15 21/50/15 36/87/15
f 35/85/16 38/91/16 23/54/16
f 23/54/16 22/52/16 35/85/16
f 38/92/17 40/97/17 24/57/17
f 24/58/17 23/55/17 38/93/17
f 40/98/18 36/87/18 21/50/18
f 21/50/18 24/59/18 40/98/18
f 20/48/19 19/46/19 34/83/19
f 34/83/19 33/81/19 20/48/19
f 19/46/20 26/63/20 37/89/20
f 37/89/20 34/83/20 19/46/20
f 26/63/21 25/61/21 39/95/21
f 39/95/21 37/89/21 26/63/21
f 25/61/22 20/48/22 33/81/22
f 33/81/22 39/95/22 25/61/22
f 28/68/23 27/65/23 30/74/23
f 30/74/23 29/71/23 28/68/23
f 27/66/24 18/44/25 31/77/25
f 31/77/25 30/75/24 27/66/24
f 18/44/26 17/42/26 32/79/26
f 32/79/26 31/77/26 18/44/26
f 17/42/27 28/69/28 29/72/28
f 29/72/28 32/79/27 17/42/27
f 41/100/3 42/102/3 43/104/3
f 43/104/3 44/106/3 41/100/3
f 42/101/2 45/107/2 46/110/2
f 46/110/2 43/103/2 42/101/2
f 45/108/1 47/113/1 48/116/1
f 48/116/1 46/111/1 45/108/1
f 47/114/4 41/99/4 44/105/4
f 44/105/4 48/117/4 47/114/4
f 44/106/5 43/104/5 46/112/5
f 46/112/5 48/118/5 44/106/5
f 47/115/6 45/109/6 42/102/6
f 42/102/6 41/100/6 47/115/6
f 49/120/3 50/122/3 51/124/3
f 51/124/3 52/126/3 49/120/3
f 52/125/2 51/123/2 53/127/2
f 53/127/2 54/130/2 52/125/2
f 54/131/1 53/128/1 55/133/1
f 55/133/1 56/136/1 54/131/1
f 56/137/4 55/134/4 50/121/4
f 50/121/4 49/119/4 56/137/4
f 50/122/6 55/135/6 53/129/6
f 53/129/6 51/124/6 50/122/6
f 56/138/5 49/120/5 52/126/5
f 52/126/5 54/132/5 56/138/5
