# Blender 3.1.0
# www.blender.org
mtllib SM_Prop_Chair_BeanBag_03_OBJ.mtl
o SM_Prop_Desk_02
v -293.322815 -0.000226 1385.080566
v -293.322815 -0.000226 1388.235718
v -293.322815 59.304874 1388.235718
v -293.322815 59.304874 1385.080566
v -290.167603 59.304874 1385.080566
v -290.167603 59.304874 1388.235718
v -290.167603 -0.000226 1388.235718
v -290.167603 -0.000226 1385.080566
v -235.317703 -0.000250 1534.956787
v -235.317703 -0.000251 1538.111938
v -235.317703 59.304848 1538.111938
v -235.317703 59.304848 1534.956787
v -232.162292 59.304848 1534.956787
v -232.162292 59.304848 1538.111938
v -232.162292 -0.000251 1538.111938
v -232.162292 -0.000250 1534.956787
v -293.183289 -0.000250 1534.303223
v -293.183289 -0.000250 1537.458496
v -293.183289 59.304848 1537.458496
v -293.183289 59.304848 1534.303223
v -290.028015 59.304848 1534.303223
v -290.028015 59.304848 1537.458496
v -290.028015 -0.000250 1537.458496
v -290.028015 -0.000250 1534.303223
v -299.056885 62.653561 1465.377563
v -299.056885 60.334961 1465.377563
v -299.056885 59.121647 1543.850708
v -299.056885 61.072048 1543.850708
v -299.056885 62.653549 1536.050659
v -229.321503 58.131062 1476.225220
v -226.650101 59.121647 1543.850708
v -226.650101 62.653549 1543.850708
v -292.998688 62.653549 1543.850708
v -229.593597 62.653557 1487.563721
v -229.792892 60.157360 1476.849487
v -231.522705 62.653561 1476.908569
v -203.503006 58.131065 1450.013306
v -299.056885 59.121674 1380.277954
v -226.067795 62.653561 1473.010498
v -299.056885 62.653576 1385.704224
v -299.056793 61.527874 1380.277954
v -143.571304 -0.000226 1386.056030
v -146.726700 -0.000226 1386.056030
v -146.726700 59.304874 1386.056030
v -143.571304 59.304874 1386.056030
v -143.571304 59.304874 1389.211304
v -146.726700 59.304874 1389.211304
v -146.726700 -0.000226 1389.211304
v -143.571304 -0.000226 1389.211304
v -143.053497 -0.000235 1442.527100
v -146.208801 -0.000235 1442.527100
v -146.208801 59.304863 1442.527100
v -143.053497 59.304863 1442.527100
v -143.053497 59.304863 1445.682495
v -146.208801 59.304863 1445.682495
v -146.208801 -0.000236 1445.682495
v -143.053497 -0.000236 1445.682495
v -220.959503 62.653576 1380.277954
v -215.407394 62.653576 1382.622314
v -216.268097 61.530174 1380.277954
v -216.268097 60.335075 1380.277954
v -135.484207 59.121662 1452.684814
v -135.484207 59.121674 1380.277954
v -135.484207 62.653576 1380.277954
v -135.484207 62.653564 1442.509155
v -135.484207 60.889664 1452.684814
v -138.881302 62.653564 1452.321289
v -203.503098 62.653564 1449.204346
v -204.727997 62.653576 1380.277954
v -297.502289 59.957661 1465.377563
v -297.502289 57.161758 1465.377563
v -297.502289 55.698547 1541.575195
v -297.502289 59.957649 1541.575073
v -229.431595 55.698547 1541.501343
v -229.431595 59.957649 1541.501343
v -231.919601 54.504059 1476.062988
v -232.728500 58.696861 1477.134155
v -205.256302 58.696964 1446.951416
v -205.256302 54.504063 1447.760254
v -297.502289 55.698574 1381.643311
v -297.502289 59.957775 1381.643311
v -216.268097 59.957775 1381.643311
v -216.268097 57.161774 1381.643311
v -138.420197 55.698563 1450.431763
v -138.420197 55.698574 1381.643311
v -138.420197 59.957775 1381.643311
v -138.420197 59.957664 1450.431763
v -234.070999 55.821747 1536.726440
v -236.166595 54.602459 1474.769287
v -292.217102 55.604549 1536.725830
v -292.160492 57.011959 1466.271118
v -207.418304 54.674664 1444.044434
v -292.057495 55.651474 1386.386108
v -215.027405 56.987675 1385.672241
v -142.923904 55.822163 1445.422363
v -142.924606 55.604977 1386.013184
v -234.070999 59.972248 1536.726440
v -236.166595 58.752960 1474.769287
v -292.217102 59.755047 1536.725830
v -292.160492 61.162460 1466.271118
v -207.418304 58.825062 1444.044434
v -292.057495 59.801975 1386.386108
v -215.027405 61.138176 1385.672241
v -142.923904 59.972565 1445.422363
v -142.924606 59.755474 1386.013184
v -291.715912 62.653576 1380.277954
vn -1.0000 -0.0000 -0.0000
vn 1.0000 -0.0000 -0.0000
vn -0.0000 -1.0000 -0.0000
vn -0.0000 -0.0000 1.0000
vn -0.0000 -0.0000 -1.0000
vn -0.0171 -0.9999 -0.0010
vn -0.0182 -0.9998 0.0028
vn -0.0157 -0.9999 -0.0010
vn -0.0154 -0.9999 -0.0012
vn 0.8114 0.5658 -0.1469
vn -0.0221 -0.9997 0.0058
vn 0.5428 0.3582 0.7596
vn -1.0000 0.0001 -0.0000
vn 0.2039 0.8516 -0.4829
vn 0.0146 -0.9993 -0.0343
vn -0.0014 -0.9999 -0.0152
vn -0.0012 -0.9999 -0.0154
vn -0.0011 -0.9999 -0.0155
vn -0.0449 0.1243 0.9912
vn -0.0886 0.9105 -0.4038
vn 0.0011 -0.0000 1.0000
vn 0.9938 0.1010 -0.0462
vn 0.7330 0.0495 0.6785
vn -0.0475 0.0952 0.9943
vn -0.0388 -0.9990 0.0203
vn 0.0017 -1.0000 -0.0029
vn -0.0302 -0.9994 -0.0196
vn -0.0236 -0.9994 -0.0234
vn -0.0273 -0.9995 0.0172
vn 0.0175 -0.9991 -0.0385
vn 0.0193 -0.9986 -0.0484
vn -0.0189 -0.9991 -0.0392
vn -0.0189 -0.9990 -0.0393
vn -0.0034 -1.0000 0.0017
vn -0.9994 -0.0000 0.0338
vn 1.0000 -0.0000 0.0008
vn 1.0000 -0.0000 0.0010
vn -0.7302 -0.0000 -0.6832
vn 1.0000 -0.0000 0.0013
vn 0.0093 -0.0000 1.0000
vn -0.0047 -0.0000 1.0000
vn 0.0092 -0.0000 1.0000
vn 0.0214 -0.0000 -0.9998
vn 0.4424 0.8836 0.1532
vn -0.0000 1.0000 -0.0000
vn -0.1485 0.9683 -0.2009
vn -0.2479 0.9495 0.1925
vn 0.9934 0.1042 -0.0471
vn 0.7184 0.0471 0.6940
vt 0.450900 0.425500
vt 0.450200 0.426100
vt 0.451300 0.426800
vt 0.450200 0.426600
vt 0.450300 0.425600
vt 0.451400 0.425700
vt 0.450700 0.426900
vt 0.451400 0.426300
vt 0.460700 0.465000
vt 0.450900 0.418800
vt 0.460000 0.465600
vt 0.450200 0.419400
vt 0.451300 0.420100
vt 0.450200 0.419900
vt 0.450300 0.418900
vt 0.451400 0.419100
vt 0.460500 0.466300
vt 0.450700 0.420200
vt 0.461200 0.465700
vt 0.451400 0.419600
vt 0.460500 0.467700
vt 0.450700 0.425500
vt 0.461200 0.467100
vt 0.451400 0.424900
vt 0.450300 0.424300
vt 0.451400 0.424400
vt 0.451300 0.425400
vt 0.450200 0.425300
vt 0.460700 0.466300
vt 0.450900 0.424200
vt 0.460000 0.466900
vt 0.450200 0.424800
vt 0.449600 0.469900
vt 0.444700 0.468300
vt 0.444700 0.468300
vt 0.444700 0.468300
vt 0.444700 0.468300
vt 0.451200 0.446200
vt 0.444700 0.468300
vt 0.451200 0.446200
vt 0.449600 0.469900
vt 0.444700 0.468300
vt 0.444700 0.468300
vt 0.449600 0.469900
vt 0.444700 0.468300
vt 0.444700 0.468300
vt 0.451200 0.446200
vt 0.449600 0.469900
vt 0.452400 0.447700
vt 0.449600 0.469900
vt 0.444700 0.468300
vt 0.452400 0.447700
vt 0.444700 0.468300
vt 0.452400 0.447700
vt 0.449600 0.469900
vt 0.444700 0.468300
vt 0.444700 0.468300
vt 0.444700 0.468300
vt 0.452400 0.447700
vt 0.444700 0.468300
vt 0.450200 0.448000
vt 0.444700 0.468300
vt 0.444700 0.468300
vt 0.450200 0.448000
vt 0.460700 0.463600
vt 0.450900 0.421500
vt 0.460000 0.464200
vt 0.450200 0.422100
vt 0.461100 0.464900
vt 0.451300 0.422700
vt 0.460000 0.464700
vt 0.450200 0.422600
vt 0.450300 0.421600
vt 0.451400 0.421700
vt 0.450700 0.422800
vt 0.461200 0.464400
vt 0.451400 0.422200
vt 0.450900 0.420100
vt 0.460000 0.462900
vt 0.450200 0.420700
vt 0.451300 0.421400
vt 0.450200 0.421300
vt 0.450300 0.420200
vt 0.451400 0.420400
vt 0.460500 0.463600
vt 0.450700 0.421500
vt 0.461200 0.463000
vt 0.451400 0.420900
vt 0.451500 0.444900
vt 0.444700 0.468300
vt 0.451500 0.444900
vt 0.444700 0.468300
vt 0.451500 0.444900
vt 0.444700 0.468300
vt 0.444700 0.468300
vt 0.444700 0.468300
vt 0.444700 0.468300
vt 0.444700 0.468300
vt 0.451100 0.446200
vt 0.444700 0.468300
vt 0.444700 0.468300
vt 0.451100 0.446200
vt 0.451100 0.446200
vt 0.444700 0.468300
vt 0.444700 0.468300
vt 0.451500 0.444900
vt 0.444700 0.468300
vt 0.452700 0.437700
vt 0.452600 0.438000
vt 0.446300 0.437700
vt 0.446200 0.437400
vt 0.443800 0.441100
vt 0.443400 0.441000
vt 0.446500 0.445400
vt 0.446100 0.445400
vt 0.446700 0.449400
vt 0.447000 0.449200
vt 0.459100 0.440400
vt 0.459400 0.440200
vt 0.459400 0.447300
vt 0.459100 0.447200
vt 0.451100 0.453800
vt 0.456800 0.453100
vt 0.457100 0.453600
vt 0.450900 0.454200
vt 0.444200 0.441100
vt 0.444800 0.466000
vt 0.446800 0.445300
vt 0.447400 0.470200
vt 0.446500 0.438100
vt 0.447100 0.463100
vt 0.452500 0.438400
vt 0.453100 0.463400
vt 0.447400 0.448900
vt 0.448000 0.473800
vt 0.458700 0.440700
vt 0.459300 0.465600
vt 0.458700 0.447300
vt 0.459300 0.472200
vt 0.451300 0.453300
vt 0.451900 0.478200
vt 0.456600 0.452800
vt 0.457200 0.477700
vt 0.445200 0.466000
vt 0.447800 0.470000
vt 0.447200 0.463300
vt 0.453000 0.463700
vt 0.448300 0.473700
vt 0.459000 0.465900
vt 0.459000 0.472100
vt 0.452100 0.477800
vt 0.457000 0.477400
vt 0.450200 0.448000
vt 0.444700 0.468300
s 1
usemtl SM_Prop_Desk_02_OBJ_lambert1
f 1/1/1 2/2/1 3/3/1
f 3/3/1 4/4/1 1/1/1
f 5/5/2 6/6/2 7/7/2
f 7/7/2 8/8/2 5/5/2
f 8/8/3 7/7/3 2/2/3
f 2/2/3 1/1/3 8/8/3
f 2/2/4 7/7/4 6/6/4
f 6/6/4 3/3/4 2/2/4
f 8/8/5 1/1/5 4/4/5
f 4/4/5 5/5/5 8/8/5
f 9/10/1 10/12/1 11/13/1
f 11/13/1 12/14/1 9/10/1
f 13/15/2 14/16/2 15/18/2
f 15/18/2 16/20/2 13/15/2
f 16/19/3 15/17/3 10/11/3
f 10/11/3 9/9/3 16/19/3
f 10/12/4 15/18/4 14/16/4
f 14/16/4 11/13/4 10/12/4
f 16/20/5 9/10/5 12/14/5
f 12/14/5 13/15/5 16/20/5
f 17/22/1 18/24/1 19/25/1
f 19/25/1 20/26/1 17/22/1
f 21/27/2 22/28/2 23/30/2
f 23/30/2 24/32/2 21/27/2
f 24/31/3 23/29/3 18/23/3
f 18/23/3 17/21/3 24/31/3
f 18/24/4 23/30/4 22/28/4
f 22/28/4 19/25/4 18/24/4
f 24/32/5 17/22/5 20/26/5
f 20/26/5 21/27/5 24/32/5
f 25/34/1 26/35/1 27/36/1
f 25/34/1 27/36/1 28/37/1
f 25/34/1 28/37/1 29/39/1
f 26/35/6 30/42/7 31/43/8
f 31/43/8 27/36/9 26/35/6
f 27/36/4 31/43/4 32/45/4
f 27/36/4 32/45/4 33/46/4
f 27/36/4 33/46/4 28/37/4
f 34/49/10 35/52/10 36/54/10
f 37/57/11 30/42/7 26/35/6
f 26/35/6 38/58/11 37/57/11
f 35/52/12 39/59/12 36/54/12
f 38/58/1 26/35/1 25/34/1
f 38/58/1 25/34/1 40/62/1
f 38/58/1 40/62/1 41/63/13
f 42/65/5 43/67/5 44/69/5
f 44/69/5 45/71/5 42/65/5
f 46/73/4 47/74/4 48/75/4
f 48/75/4 49/77/4 46/73/4
f 49/77/3 48/75/3 43/68/3
f 43/67/3 42/65/3 49/76/3
f 43/68/1 48/75/1 47/74/1
f 47/74/1 44/70/1 43/68/1
f 49/77/2 42/66/2 45/72/2
f 45/72/2 46/73/2 49/77/2
f 50/78/5 51/80/5 52/81/5
f 52/81/5 53/82/5 50/78/5
f 54/83/4 55/84/4 56/86/4
f 56/86/4 57/88/4 54/83/4
f 57/87/3 56/85/3 51/79/3
f 51/80/3 50/78/3 57/88/3
f 51/80/1 56/86/1 55/84/1
f 55/84/1 52/81/1 51/80/1
f 57/88/2 50/78/2 53/82/2
f 53/82/2 54/83/2 57/88/2
f 58/89/14 59/91/14 60/93/14
f 61/95/15 37/57/15 38/58/15
f 62/96/2 63/97/2 64/98/2
f 62/96/2 64/98/2 65/100/2
f 62/96/2 65/100/2 66/101/2
f 62/96/16 37/57/17 61/95/18
f 61/95/18 63/97/17 62/96/16
f 66/101/19 67/104/19 68/105/19
f 66/101/19 68/105/19 37/57/19
f 66/101/19 37/57/19 62/96/19
f 59/91/20 69/106/20 60/93/20
f 70/108/1 71/109/1 72/110/1
f 72/110/1 73/111/1 70/108/1
f 72/110/21 74/112/21 75/113/21
f 75/113/21 73/111/21 72/110/21
f 76/114/22 77/115/22 75/113/22
f 75/113/22 74/112/22 76/114/22
f 78/116/23 77/115/23 76/114/23
f 76/114/23 79/117/23 78/116/23
f 80/118/1 71/109/1 70/108/1
f 70/108/1 81/119/1 80/118/1
f 82/120/5 83/121/5 80/118/5
f 80/118/5 81/119/5 82/120/5
f 84/122/2 85/123/2 86/124/2
f 86/124/2 87/125/2 84/122/2
f 87/125/24 78/116/24 79/117/24
f 79/117/24 84/122/24 87/125/24
f 85/123/5 83/121/5 82/120/5
f 82/120/5 86/124/5 85/123/5
f 76/114/25 74/112/25 88/126/25
f 88/126/25 89/128/25 76/114/25
f 74/112/26 72/110/26 90/130/26
f 90/130/26 88/126/26 74/112/26
f 72/110/27 71/109/27 91/132/27
f 91/132/27 90/130/27 72/110/27
f 79/117/28 76/114/28 89/128/28
f 89/128/28 92/134/28 79/117/28
f 71/109/29 80/118/29 93/136/29
f 93/136/29 91/132/29 71/109/29
f 80/118/30 83/121/30 94/138/30
f 94/138/30 93/136/30 80/118/30
f 84/122/31 79/117/31 92/134/31
f 92/134/31 95/140/31 84/122/31
f 83/121/32 85/123/33 96/142/33
f 96/142/33 94/138/32 83/121/32
f 85/123/34 84/122/34 95/140/34
f 95/140/34 96/142/34 85/123/34
f 89/129/35 88/127/35 97/144/35
f 97/144/35 98/145/35 89/129/35
f 88/127/5 90/131/5 99/146/5
f 99/146/5 97/144/5 88/127/5
f 90/131/36 91/133/37 100/147/37
f 100/147/37 99/146/36 90/131/36
f 92/135/38 89/129/38 98/145/38
f 98/145/38 101/148/38 92/135/38
f 91/133/37 93/137/39 102/149/39
f 102/149/39 100/147/37 91/133/37
f 93/137/40 94/139/41 103/150/42
f 103/150/42 102/149/40 93/137/40
f 95/141/43 92/135/43 101/148/43
f 101/148/43 104/151/43 95/141/43
f 94/139/41 96/143/41 105/152/41
f 105/152/41 103/150/42 94/139/41
f 96/143/1 95/141/1 104/151/1
f 104/151/1 105/152/1 96/143/1
f 66/102/44 65/99/44 67/103/44
f 64/98/45 69/107/45 59/92/45
f 64/98/45 59/92/45 68/105/45
f 64/98/45 68/105/45 67/104/45
f 64/98/45 67/104/45 65/100/45
f 63/97/5 61/95/5 60/94/5
f 63/97/5 60/94/5 69/107/5
f 63/97/5 69/107/5 64/98/5
f 58/90/5 60/94/5 61/95/5
f 58/90/5 61/95/5 38/58/5
f 58/90/5 38/58/5 41/63/5
f 58/90/5 41/63/5 106/154/5
f 68/105/45 59/92/45 58/90/45
f 58/90/45 106/154/45 68/105/45
f 41/64/46 40/61/46 106/153/46
f 33/47/47 29/40/47 28/38/47
f 34/50/45 36/55/45 25/33/45
f 34/50/45 25/33/45 29/41/45
f 34/50/45 29/41/45 33/48/45
f 34/50/45 33/48/45 32/44/45
f 30/42/48 35/53/48 34/51/48
f 30/42/48 34/51/48 32/45/48
f 30/42/48 32/45/48 31/43/48
f 68/105/49 39/60/49 35/53/49
f 68/105/49 35/53/49 30/42/49
f 68/105/49 30/42/49 37/57/49
f 39/60/45 40/62/45 25/34/45
f 25/34/45 36/56/45 39/60/45
f 106/154/45 40/62/45 39/60/45
f 39/60/45 68/105/45 106/154/45
o SM_Prop_Chair_BeanBag_03
v 32.930000 3.043003 -19.377001
v 14.346900 -0.460596 -25.355900
v 18.616800 7.019706 -35.764301
v 39.065899 11.694604 -25.401499
v -10.254100 -0.460596 -25.610701
v -13.743300 7.099205 -36.212200
v -28.983200 3.060803 -20.044100
v -34.848301 12.072505 -26.705797
v 18.920099 21.537506 -32.974297
v 40.469002 31.448503 -20.709694
v -13.247900 21.727005 -33.381996
v -33.070202 32.450504 -22.818094
v 16.425600 31.897003 -23.829195
v 11.685300 35.464100 0.096206
v -12.317400 32.281704 -24.387094
v -11.741000 36.259602 -1.114394
v -25.813499 41.681999 -7.832294
v 32.620800 41.225800 -6.452493
v 11.529300 45.846798 13.787107
v 36.467800 50.577499 5.256508
v -12.968000 46.502895 12.587908
v -30.322201 52.495098 3.614609
v 19.080900 66.566490 27.557711
v -11.645300 66.748589 27.104511
v -33.467201 57.938595 24.016510
v 37.982399 59.447998 24.072609
v 15.061000 65.423889 42.789612
v 33.366600 54.499592 41.471409
v -9.552700 65.444389 42.523010
v -28.833599 54.929993 40.598408
v 17.483801 40.507988 58.606407
v 38.183498 34.993992 48.702103
v -14.856300 40.423794 58.347008
v -35.619400 34.993992 47.937603
v 17.327900 7.826190 60.084099
v 38.183498 11.495592 48.702099
v -15.004000 7.826190 59.749100
v -35.619400 11.495592 47.937599
v 13.582400 -0.460608 48.447300
v 32.299198 2.931993 42.694599
v -11.018600 -0.460608 48.192501
v -29.611900 2.931993 42.053299
v 17.662800 -5.460704 27.751900
v 38.438301 -0.460604 24.101101
v -14.669100 -5.460704 27.416901
v -35.364601 -0.460604 23.336599
v 17.997700 -5.460699 -4.580001
v 38.668999 -0.208800 -0.864500
v -14.334200 -5.460699 -4.914901
v -35.126202 -0.292500 -1.507900
v -47.027000 12.849595 26.697903
v -46.833801 14.319401 -7.760798
v -46.982700 40.133698 24.998106
v -44.756500 35.747101 -3.379994
v -39.679901 51.057095 13.596209
v -39.801102 47.642799 0.207808
v 49.954399 13.004496 27.478601
v 50.146099 14.489301 -7.002398
v 50.304401 39.799397 26.048306
v 50.350300 39.056099 -2.983593
v 44.498600 51.746098 15.382709
v 44.116001 47.377602 -2.608292
vn 0.3772 -0.7690 -0.5161
vn 0.0061 -0.8132 -0.5819
vn 0.0060 -0.8132 -0.5819
vn -0.3648 -0.7625 -0.5343
vn 0.4198 0.1737 -0.8908
vn 0.4198 0.1736 -0.8909
vn 0.0137 0.1887 -0.9819
vn 0.0139 0.1892 -0.9818
vn 0.0138 0.1890 -0.9819
vn -0.3692 0.1982 -0.9080
vn 0.0367 0.9894 -0.1403
vn 0.0276 0.9875 -0.1554
vn 0.0273 0.9874 -0.1557
vn 0.5216 0.5902 -0.6161
vn -0.3526 0.7631 -0.5417
vn 0.0543 0.7990 -0.5989
vn 0.5021 0.7160 -0.4850
vn 0.5021 0.7160 -0.4849
vn 0.5022 0.7161 -0.4849
vn -0.3581 0.6038 -0.7121
vn 0.0331 0.5629 -0.8259
vn 0.0333 0.5630 -0.8258
vn -0.3227 0.9009 -0.2901
vn 0.4480 0.8499 0.2773
vn 0.4480 0.8500 0.2773
vn 0.0026 0.9968 0.0797
vn 0.0026 0.9968 0.0798
vn -0.4368 0.8748 0.2097
vn 0.4214 0.4708 0.7751
vn -0.0079 0.5356 0.8445
vn -0.0083 0.5356 0.8444
vn -0.0081 0.5356 0.8444
vn -0.4309 0.5022 0.7498
vn -0.4309 0.5022 0.7497
vn 0.4566 0.0221 0.8894
vn -0.0092 0.0441 0.9990
vn -0.4737 0.0233 0.8804
vn 0.3661 -0.7646 0.5304
vn -0.0060 -0.8136 0.5813
vn -0.3770 -0.7646 0.5227
vn 0.2606 -0.9281 0.2660
vn -0.0024 -0.9721 0.2344
vn -0.2659 -0.9282 0.2605
vn -0.2660 -0.9281 0.2606
vn 0.2401 -0.9707 -0.0019
vn -0.0000 -1.0000 -0.0000
vn -0.2380 -0.9713 -0.0053
vn -0.2380 -0.9712 -0.0053
vn 0.2709 -0.9270 -0.2595
vn 0.2708 -0.9270 -0.2594
vn 0.0024 -0.9721 -0.2344
vn -0.2643 -0.9270 -0.2662
vn -0.2643 -0.9270 -0.2663
vn -0.6661 -0.6735 0.3204
vn -0.7654 -0.6431 -0.0233
vn -0.6573 -0.6737 -0.3378
vn -0.6573 -0.6738 -0.3377
vn -0.6573 -0.6736 -0.3378
vn -0.8878 0.0162 0.4599
vn -0.9981 0.0457 -0.0405
vn -0.8249 0.1820 -0.5352
vn -0.8250 0.1819 -0.5351
vn -0.8250 0.1818 -0.5350
vn -0.7617 0.5005 0.4115
vn -0.7925 0.6056 0.0726
vn -0.7258 0.4573 -0.5139
vn 0.6666 -0.6677 0.3314
vn 0.7740 -0.6331 -0.0130
vn 0.6719 -0.6705 -0.3145
vn 0.6719 -0.6706 -0.3145
vn 0.8778 0.0074 0.4789
vn 0.8778 0.0075 0.4790
vn 0.8778 0.0074 0.4790
vn 0.9999 -0.0109 0.0038
vn 0.9999 -0.0110 0.0037
vn 0.9999 -0.0111 0.0037
vn 0.8539 0.0704 -0.5157
vn 0.8538 0.0704 -0.5157
vn 0.7826 0.4449 0.4353
vn 0.7827 0.4449 0.4353
vn 0.2946 0.8943 -0.3369
vn -0.2118 0.7710 -0.6006
vn -0.3840 0.6492 -0.6566
vn 0.5280 0.4718 -0.7061
vn 0.2479 0.8684 -0.4294
vn -0.0047 0.9857 -0.1684
vn 0.0181 0.6559 -0.7546
vn 0.0181 0.6559 -0.7547
vn 0.1076 0.6724 -0.7323
vn -0.0520 0.6504 -0.7578
vn -0.4166 0.8696 -0.2652
vn -0.0073 0.7971 -0.6037
vn -0.0073 0.7972 -0.6037
vn 0.8311 0.5361 0.1481
vn 0.6419 0.5069 -0.5754
vn 0.8712 0.4874 -0.0592
vn -0.8913 0.4355 -0.1262
vt 0.349939 0.470178
vt 0.349839 0.470278
vt 0.349939 0.470178
vt 0.350039 0.470078
vt 0.349539 0.470278
vt 0.349539 0.470178
vt 0.349439 0.470178
vt 0.349339 0.470078
vt 0.349939 0.470078
vt 0.349631 0.490072
vt 0.351062 0.487871
vt 0.350139 0.489409
vt 0.349831 0.489872
vt 0.350139 0.469878
vt 0.349639 0.470078
vt 0.349331 0.490072
vt 0.349439 0.469878
vt 0.350362 0.487871
vt 0.349131 0.489872
vt 0.349439 0.489409
vt 0.350862 0.487871
vt 0.349631 0.489872
vt 0.350862 0.487771
vt 0.349939 0.489309
vt 0.350562 0.487871
vt 0.349331 0.489872
vt 0.349739 0.489209
vt 0.350662 0.487671
vt 0.350362 0.487671
vt 0.349439 0.489209
vt 0.351062 0.487771
vt 0.350139 0.489309
vt 0.351785 0.490855
vt 0.350862 0.487471
vt 0.351062 0.487571
vt 0.351985 0.490955
vt 0.350139 0.489109
vt 0.350562 0.487471
vt 0.351485 0.490855
vt 0.350362 0.487571
vt 0.351285 0.490955
vt 0.349439 0.489109
vt 0.351785 0.490655
vt 0.350862 0.487271
vt 0.349939 0.469278
vt 0.349939 0.488809
vt 0.350462 0.487271
vt 0.349539 0.488809
vt 0.349539 0.469278
vt 0.351385 0.490655
vt 0.349339 0.469378
vt 0.349339 0.488909
vt 0.350039 0.488909
vt 0.350039 0.469378
vt 0.349839 0.469278
vt 0.349939 0.469378
vt 0.349539 0.469278
vt 0.349439 0.469378
vt 0.349739 0.469378
vt 0.349939 0.469478
vt 0.349439 0.469378
vt 0.349339 0.469478
vt 0.349739 0.469578
vt 0.349939 0.469578
vt 0.349439 0.469578
vt 0.349239 0.469578
vt 0.349639 0.469778
vt 0.349839 0.469778
vt 0.349439 0.469778
vt 0.349339 0.469778
vt 0.349739 0.469978
vt 0.349939 0.469878
vt 0.349439 0.469978
vt 0.349239 0.469878
vt 0.349739 0.470178
vt 0.349939 0.470078
vt 0.349439 0.470178
vt 0.349339 0.470078
vt 0.349239 0.469778
vt 0.349239 0.469978
vt 0.349239 0.469578
vt 0.349239 0.469778
vt 0.349339 0.489109
vt 0.349339 0.469578
vt 0.349339 0.489209
vt 0.349339 0.469678
vt 0.350039 0.469778
vt 0.350139 0.469978
vt 0.350139 0.469578
vt 0.350239 0.469778
vt 0.350139 0.489109
vt 0.350139 0.469578
vt 0.350139 0.489209
vt 0.350139 0.469678
s 1
usemtl SM_Prop_Chair_BeanBag_03_OBJ_OfficeSHD9
f 107/155/50 108/156/50 109/157/50
f 109/157/50 110/158/50 107/155/50
f 108/156/51 111/159/52 112/160/52
f 112/160/52 109/157/51 108/156/51
f 111/159/53 113/161/53 114/162/53
f 114/162/53 112/160/53 111/159/53
f 110/158/54 109/157/55 115/163/55
f 115/163/55 116/168/55 110/158/54
f 109/157/56 112/160/57 117/169/57
f 117/169/57 115/163/58 109/157/56
f 112/160/59 114/162/59 118/171/59
f 118/171/59 117/169/59 112/160/59
f 116/165/60 119/175/60 120/177/60
f 119/175/61 121/179/61 122/182/62
f 122/182/62 120/177/61 119/175/61
f 122/181/63 118/174/63 123/184/63
f 124/185/64 120/177/64 125/188/64
f 125/188/64 126/189/64 124/185/64
f 120/177/65 122/182/65 127/192/65
f 127/192/65 125/188/65 120/177/65
f 122/182/66 123/183/67 128/194/68
f 128/194/68 127/192/67 122/182/66
f 126/190/69 125/187/69 129/197/69
f 125/188/70 127/192/71 130/201/71
f 130/201/71 129/198/71 125/188/70
f 130/202/72 128/196/72 131/206/72
f 132/208/73 129/199/74 133/209/74
f 133/209/74 134/210/74 132/208/73
f 129/199/75 130/203/75 135/211/76
f 135/211/76 133/209/75 129/199/75
f 130/203/77 131/205/77 136/212/77
f 136/212/77 135/211/77 130/203/77
f 134/210/78 133/209/78 137/213/78
f 137/213/78 138/214/78 134/210/78
f 133/209/79 135/211/80 139/215/81
f 139/215/81 137/213/80 133/209/79
f 135/211/82 136/212/82 140/216/83
f 140/216/83 139/215/82 135/211/82
f 138/214/84 137/213/84 141/217/84
f 141/217/84 142/218/84 138/214/84
f 137/213/85 139/215/85 143/219/85
f 143/219/85 141/217/85 137/213/85
f 139/215/86 140/216/86 144/220/86
f 144/220/86 143/219/86 139/215/86
f 142/218/87 141/217/87 145/221/87
f 145/221/87 146/222/87 142/218/87
f 141/217/88 143/219/88 147/223/88
f 147/223/88 145/221/88 141/217/88
f 143/219/89 144/220/89 148/224/89
f 148/224/89 147/223/89 143/219/89
f 146/222/90 145/221/90 149/225/90
f 149/225/90 150/226/90 146/222/90
f 145/221/91 147/223/91 151/227/91
f 151/227/91 149/225/91 145/221/91
f 147/223/92 148/224/93 152/228/93
f 152/228/93 151/227/93 147/223/92
f 150/226/94 149/225/94 153/229/94
f 153/229/94 154/230/94 150/226/94
f 149/225/95 151/227/95 155/231/95
f 155/231/95 153/229/95 149/225/95
f 151/227/96 152/228/96 156/232/97
f 156/232/97 155/231/96 151/227/96
f 154/230/98 153/229/99 108/156/98
f 108/156/98 107/155/99 154/230/98
f 153/229/100 155/231/100 111/159/100
f 111/159/100 108/156/100 153/229/100
f 155/231/101 156/232/102 113/161/101
f 113/161/101 111/159/102 155/231/101
f 152/228/103 148/224/103 144/220/103
f 144/220/103 157/233/103 152/228/103
f 156/232/104 152/228/104 157/233/104
f 157/233/104 158/234/104 156/232/104
f 113/161/105 156/232/105 158/234/106
f 158/234/106 114/162/107 113/161/105
f 157/233/108 144/220/108 140/216/108
f 140/216/108 159/235/108 157/233/108
f 158/234/109 157/233/109 159/235/109
f 159/235/109 160/236/109 158/234/109
f 114/162/110 158/234/111 160/236/112
f 160/236/112 118/171/111 114/162/110
f 159/235/113 140/216/113 136/212/113
f 136/212/113 131/205/113 159/235/113
f 161/238/114 159/235/114 131/205/114
f 118/171/115 160/236/115 162/240/115
f 146/222/116 150/226/116 163/241/116
f 163/241/116 142/218/116 146/222/116
f 150/226/117 154/230/117 164/242/117
f 164/242/117 163/241/117 150/226/117
f 154/230/118 107/155/119 110/158/119
f 110/158/119 164/242/119 154/230/118
f 142/218/120 163/241/121 165/243/122
f 165/243/122 138/214/121 142/218/120
f 163/241/123 164/242/124 166/244/125
f 166/244/125 165/243/124 163/241/123
f 164/242/126 110/158/126 116/168/127
f 116/168/127 166/244/126 164/242/126
f 138/214/128 165/243/129 132/208/128
f 132/208/128 134/210/129 138/214/128
f 132/207/130 167/245/130 168/247/130
f 168/247/130 126/191/130 132/207/130
f 168/247/131 116/166/131 124/186/131
f 124/186/131 126/191/131 168/247/131
f 116/166/132 120/178/132 124/186/132
f 127/193/133 128/195/133 130/204/133
f 126/191/134 129/200/134 132/207/134
f 121/179/135 118/172/135 122/182/135
f 119/176/136 115/164/136 117/170/137
f 117/170/137 121/180/137 119/176/136
f 119/176/138 116/167/138 115/164/138
f 121/180/139 117/170/139 118/173/139
f 162/239/140 161/237/140 131/206/140
f 131/206/140 128/196/140 162/239/140
f 118/174/141 162/239/141 128/196/142
f 128/196/142 123/184/142 118/174/141
f 165/243/143 167/246/143 132/208/143
f 166/244/144 116/168/144 168/248/144
f 165/243/145 166/244/145 168/248/145
f 168/248/145 167/246/145 165/243/145
f 160/236/146 159/235/146 161/238/146
f 161/238/146 162/240/146 160/236/146
