# Blender 3.1.0
# www.blender.org
mtllib Valorant_CajaMadera.mtl
o SM_Prop_Crate_01
v 3.883872 1.027453 5.846189
v 5.182558 7.749692 5.846191
v 3.883872 12.535083 5.846191
v 5.935117 12.535083 5.846191
v 5.935117 12.535083 3.794950
v 3.883872 12.535083 3.794950
v 5.935117 -0.000001 3.794948
v 3.883872 -0.000001 3.794948
v 5.935117 -0.000001 5.846189
v 5.006883 -0.000001 5.846189
v 3.883872 -0.000001 5.494259
v 5.935117 8.443605 5.049937
v 5.935117 6.493064 5.846190
v -5.935117 11.025401 5.846191
v -3.883872 -0.000001 5.846189
v -3.883872 12.535083 5.846191
v -4.809434 12.535083 5.846191
v -5.935117 12.535083 3.794950
v -3.883872 12.535083 3.794950
v -3.883872 -0.000001 3.794948
v -5.493743 -0.000001 3.794948
v -5.935117 0.602938 3.794948
v -5.935117 -0.000001 5.163485
v 5.935117 0.000001 -5.846189
v 3.883872 0.000001 -5.846189
v 5.103516 3.135740 -5.846188
v 5.935117 1.579219 -5.846188
v 5.935117 12.535085 -3.794945
v 3.883872 12.535085 -3.794945
v 3.883872 0.000001 -3.794947
v 5.935117 0.000001 -3.794947
v 3.883872 12.535085 -5.846187
v 5.935117 2.759893 -5.500803
v -5.935117 0.000001 -5.846189
v -5.935117 12.535085 -5.846187
v -4.614123 8.090632 -5.846187
v -5.935117 12.535085 -3.794945
v -3.883872 12.535085 -3.794945
v -3.883872 12.535085 -5.846187
v -5.432580 4.916937 -3.794946
v -3.883872 0.000001 -3.794947
v -5.935117 0.000001 -3.794947
v -3.883872 0.000001 -5.846189
v -3.883872 7.971313 -5.281323
v -3.883872 10.039562 -5.846187
v -5.935117 3.998561 -4.643703
v -5.507702 10.291217 5.409820
v 0.405597 11.548996 5.409820
v -0.821816 12.126367 5.409820
v -5.507702 12.126367 5.409820
v -4.238739 11.723284 -0.869052
v 4.506195 11.723284 1.537763
v 4.290893 11.723285 -4.214631
v -4.290893 11.723285 -4.214631
v -5.507702 12.126369 -5.409814
v 5.507702 12.126369 -5.409814
v 5.507702 10.291219 -5.409814
v -5.507702 10.291219 -5.409814
v -4.290893 0.705442 -4.214633
v 4.290893 0.705442 -4.214633
v 4.521626 0.705442 0.700617
v -4.554108 0.705442 -0.679683
v 5.507702 12.126368 -0.064547
v 5.507702 10.695117 1.029269
v -5.507702 10.597095 0.556996
v -5.507702 12.126368 -0.064547
v -4.974694 2.253110 -4.886283
v -4.974694 1.936246 -1.398657
v -4.974694 10.459517 0.563243
v -4.974694 10.153643 -4.886280
v -4.974694 2.253108 4.886284
v 4.974694 2.253108 4.886284
v 4.974694 10.153641 4.886285
v -4.974694 10.153641 4.886285
v 4.974694 10.557539 1.035516
v 4.974694 2.183957 -1.152787
v 4.974694 2.253110 -4.886283
v 4.974694 10.153643 -4.886280
v -5.507702 0.302358 -5.409816
v -5.507702 0.302357 -0.064549
v -5.507702 1.798669 -1.404904
v -5.507702 2.115533 -5.409815
v -5.507702 0.302356 5.409818
v 5.507702 0.302356 5.409818
v 5.507702 2.115531 5.409818
v -5.507702 2.115531 5.409818
v 5.507702 2.046380 -1.159033
v 5.507702 0.302357 -0.064549
v 5.507702 0.302358 -5.409816
v 5.507702 2.115533 -5.409815
v 5.507702 10.291217 5.409820
v 4.423915 12.126367 4.345293
v 0.499160 12.126367 5.000784
v 1.472648 12.126367 5.409820
v 5.507702 12.126367 5.409820
v 4.639212 12.126368 1.536204
v 4.423915 12.126369 -4.345288
v -4.423915 12.126369 -4.345288
v -4.371762 12.126368 -0.870611
v 4.423915 0.302358 -4.345290
v -4.423915 0.302358 -4.345290
v 4.654647 0.302357 0.699057
v -4.423915 0.302356 4.345291
v 4.423915 0.302356 4.345291
v -4.687130 0.302357 -0.681242
v -4.423915 12.126367 4.345293
v 4.290893 11.723283 4.214635
v -4.290893 11.723283 4.214635
v -4.290893 0.705441 4.214633
v 4.290893 0.705441 4.214633
v 5.935117 10.484681 5.846191
v -5.935117 12.535083 5.204575
v -5.935117 1.841392 -3.794946
v -5.935117 6.853083 -3.794946
v -3.883872 5.935277 -5.846188
v 5.935117 10.727728 -5.846187
v 5.175348 12.535085 -5.846187
v 5.935117 12.535084 -4.878633
v 5.935117 4.135722 -5.846187
v -5.935117 -0.000001 5.846189
vn -0.0000 -0.0000 0.1435
vn -0.0000 0.1435 -0.0000
vn -0.0000 -0.0000 -0.1435
vn -0.0000 -0.1435 -0.0000
vn 0.1435 -0.0000 -0.0000
vn -0.1121 -0.0820 -0.0361
vn -0.1435 -0.0000 -0.0000
vn -0.0411 0.1370 0.0116
vn -0.0393 -0.1379 0.0074
vn -0.0000 0.1388 0.0365
vn -0.0000 -0.1388 0.0365
vn 0.0370 0.1387 0.0024
vn 0.0400 -0.1376 0.0090
vn -0.0000 -0.1388 -0.0365
vn -0.0000 0.1388 -0.0365
vn -0.0000 0.0443 -0.1365
vn -0.1360 0.0457 0.0050
vn -0.0000 0.0443 0.1365
vn 0.1364 0.0447 -0.0021
vn -0.0000 -0.0443 0.1365
vn -0.1359 -0.0459 0.0063
vn -0.0000 -0.0443 -0.1365
vn 0.1355 -0.0463 0.0099
vn 0.0766 0.0459 0.1124
vn 0.1144 -0.0315 0.0807
vn -0.0408 -0.0446 0.1302
vn -0.0667 0.0497 0.1170
vn -0.1311 0.0214 0.0544
vn -0.1061 -0.0275 0.0926
vn 0.0826 -0.0309 -0.1133
vn 0.0889 0.0301 -0.1086
vn 0.1072 0.0451 -0.0842
vn 0.0668 0.0357 -0.1219
vn 0.0403 -0.0335 -0.1336
vn 0.0359 0.0764 0.1161
vn -0.0452 0.0835 0.1076
vn 0.1358 -0.0460 -0.0072
vn -0.0389 0.1380 -0.0067
vn -0.0400 -0.1375 -0.0092
vn 0.1364 0.0448 0.0014
vn -0.1354 0.0464 -0.0106
vn 0.0418 -0.1367 -0.0134
vn 0.0366 0.1388 -0.0015
vn -0.1356 -0.0462 -0.0087
vt 0.814679 0.454507
vt 0.814679 0.454507
vt 0.814679 0.454507
vt 0.814679 0.454507
vt 0.814679 0.454507
vt 0.814679 0.454507
vt 0.814679 0.454507
vt 0.814679 0.454507
vt 0.814679 0.454507
vt 0.814679 0.454507
vt 0.814679 0.454507
vt 0.814679 0.454507
vt 0.814679 0.454507
vt 0.814679 0.454507
vt 0.814679 0.454507
vt 0.814679 0.454507
vt 0.814679 0.454507
vt 0.814679 0.454507
vt 0.814679 0.454507
vt 0.814679 0.454507
vt 0.814679 0.454507
vt 0.814679 0.454507
vt 0.814679 0.454507
vt 0.814679 0.454507
vt 0.814679 0.454507
vt 0.814679 0.454507
vt 0.814679 0.454507
vt 0.814679 0.454507
vt 0.814679 0.454507
vt 0.814679 0.454507
vt 0.814679 0.454507
vt 0.814679 0.454507
vt 0.814679 0.454507
vt 0.814679 0.454507
vt 0.814679 0.454507
vt 0.814679 0.454507
vt 0.814679 0.454507
vt 0.814679 0.454507
vt 0.814679 0.454507
vt 0.814679 0.454507
vt 0.814679 0.454507
vt 0.814679 0.454507
vt 0.814679 0.454507
vt 0.814679 0.454507
vt 0.814679 0.454507
vt 0.814679 0.454507
vt 0.814679 0.454507
vt 0.814679 0.454507
vt 0.814679 0.454507
vt 0.814679 0.454507
vt 0.814679 0.454507
vt 0.815229 0.397503
vt 0.940032 0.362189
vt 0.814679 0.454507
vt 0.936676 0.447665
vt 0.814679 0.454507
vt 0.814318 0.447219
vt 0.814679 0.454507
vt 0.814679 0.454507
vt 0.814679 0.454507
vt 0.814679 0.454507
vt 0.814679 0.454507
vt 0.818831 0.321951
vt 0.814679 0.454507
vt 0.938019 0.324146
vt 0.814679 0.454507
vt 0.940032 0.396231
vt 0.814679 0.454507
vt 0.814318 0.373683
vt 0.814679 0.454507
vt 0.814679 0.454507
vt 0.814679 0.454507
vt 0.814679 0.454507
vt 0.814679 0.454507
vt 0.814318 0.326781
vt 0.940032 0.322814
vt 0.814679 0.454507
vt 0.814679 0.454507
vt 0.859183 0.321951
vt 0.884421 0.447665
vt 0.814679 0.454507
vt 0.814318 0.443389
vt 0.940032 0.447665
vt 0.814679 0.454507
vt 0.814319 0.322036
vt 0.814679 0.454507
vt 0.940032 0.326352
vt 0.940032 0.321951
vt 0.814318 0.323213
vt 0.814679 0.454507
vt 0.940032 0.447580
vt 0.814679 0.454507
vt 0.814318 0.441748
vt 0.814319 0.447665
vt 0.940032 0.442960
vt 0.814679 0.454507
vt 0.814679 0.454507
vt 0.863855 0.447665
vt 0.892005 0.321951
vt 0.814679 0.454507
vt 0.940032 0.322850
vt 0.814318 0.321951
vt 0.814679 0.454507
vt 0.940032 0.441385
vt 0.814318 0.446801
vt 0.814679 0.454507
vt 0.814679 0.454507
vt 0.814679 0.454507
vt 0.814679 0.454507
vt 0.814679 0.454507
vt 0.814679 0.454507
vt 0.814679 0.454507
vt 0.814679 0.454507
vt 0.814679 0.454507
vt 0.814679 0.454507
vt 0.814679 0.454507
vt 0.814679 0.454507
vt 0.814679 0.454507
vt 0.814679 0.454507
vt 0.814679 0.454507
vt 0.814679 0.454507
vt 0.814679 0.454507
vt 0.814679 0.454507
vt 0.814679 0.454507
vt 0.814679 0.454507
vt 0.814679 0.454507
vt 0.814679 0.454507
vt 0.814679 0.454507
vt 0.814679 0.454507
vt 0.814679 0.454507
vt 0.814679 0.454507
vt 0.814679 0.454507
vt 0.814679 0.454507
vt 0.814679 0.454507
vt 0.937096 0.322396
vt 0.814679 0.454507
vt 0.814679 0.454507
vt 0.814738 0.321951
vt 0.816788 0.445469
vt 0.814679 0.454507
vt 0.935976 0.447665
vt 0.814679 0.454507
vt 0.814679 0.454507
vt 0.814679 0.454507
vt 0.814679 0.454507
vt 0.814679 0.454507
vt 0.814679 0.454507
vt 0.814679 0.454507
vt 0.814679 0.454507
vt 0.814679 0.454507
vt 0.814679 0.454507
vt 0.814679 0.454507
s 1
usemtl Default_OBJ.011
f 1/1/1 2/2/1 3/3/1
f 4/4/2 5/5/2 6/6/2 3/3/2
f 5/5/3 7/7/3 8/8/3 6/6/3
f 7/7/4 9/9/4 10/10/4 11/11/4 8/8/4
f 7/7/5 12/12/5 13/13/5 9/9/5
f 14/14/1 15/15/1 16/16/1 17/17/1
f 18/18/3 19/19/3 20/20/3 21/21/3 22/22/3
f 22/22/6 21/21/6 23/23/6
f 15/15/5 20/20/5 19/19/5 16/16/5
f 24/24/3 25/25/3 26/26/3 27/27/3
f 28/28/1 29/29/1 30/30/1 31/31/1
f 31/31/4 30/30/4 25/25/4 24/24/4
f 25/25/7 30/30/7 29/29/7 32/32/7
f 31/31/5 33/33/5 28/28/5
f 34/34/3 35/35/3 36/36/3
f 35/35/2 37/37/2 38/38/2 39/39/2
f 38/38/1 40/40/1 41/41/1
f 42/42/4 34/34/4 43/43/4 41/41/4
f 38/38/5 44/44/5 45/45/5 39/39/5
f 34/34/7 46/46/7 35/35/7
f 47/47/1 48/48/1 49/49/1 50/50/1
f 51/52/2 52/53/2 53/55/2 54/57/2
f 55/59/3 56/60/3 57/61/3 58/62/3
f 59/63/4 60/65/4 61/67/4 62/69/4
f 63/71/5 64/72/5 57/61/5 56/60/5
f 58/62/7 65/73/7 66/74/7 55/59/7
f 67/75/7 68/79/7 69/80/7 70/82/7
f 71/85/1 72/88/1 73/91/1 74/94/1
f 75/98/5 76/99/5 77/101/5 78/104/5
f 70/83/3 78/105/3 77/102/3 67/76/3
f 79/107/7 80/108/7 81/109/7 82/110/7
f 83/111/1 84/112/1 85/113/1 86/114/1
f 87/115/5 88/116/5 89/117/5 90/118/5
f 82/110/3 90/118/3 89/117/3 79/107/3
f 82/110/8 81/109/8 68/78/8 67/77/8
f 69/81/9 65/73/9 58/62/9 70/84/9
f 86/114/10 85/113/10 72/90/10 71/86/10
f 91/119/11 47/47/11 74/96/11 73/92/11
f 76/100/12 87/115/12 90/118/12 77/103/12
f 57/61/13 64/72/13 75/97/13 78/106/13
f 58/62/14 57/61/14 78/106/14 70/84/14
f 90/118/15 82/110/15 67/77/15 77/103/15
f 92/120/2 93/121/2 94/122/2 95/123/2
f 96/124/2 63/71/2 56/60/2 97/125/2
f 56/60/2 55/59/2 98/126/2 97/125/2
f 55/59/2 66/74/2 99/127/2 98/126/2
f 79/107/4 89/117/4 100/128/4 101/129/4
f 89/117/4 88/116/4 102/130/4 100/128/4
f 84/112/4 83/111/4 103/131/4 104/132/4
f 105/133/4 80/108/4 79/107/4 101/129/4
f 106/134/16 92/120/16 107/136/16 108/137/16
f 52/54/17 96/124/17 97/125/17 53/56/17
f 97/125/18 98/126/18 54/58/18 53/56/18
f 98/126/19 99/127/19 51/51/19 54/58/19
f 101/129/20 100/128/20 60/66/20 59/64/20
f 100/128/21 102/130/21 61/68/21 60/66/21
f 104/132/22 103/131/22 109/140/22 110/142/22
f 62/70/23 105/133/23 101/129/23 59/64/23
f 13/13/24 12/12/24 2/2/24
f 2/2/25 12/12/25 111/143/25
f 10/10/26 1/1/26 11/11/26
f 11/11/7 1/1/7 3/3/7 6/6/7 8/8/7
f 112/144/2 17/17/2 16/16/2 19/19/2 18/18/2
f 112/144/27 14/14/27 17/17/27
f 113/145/28 40/40/28 46/46/28
f 46/46/29 40/40/29 114/146/29
f 45/45/30 44/44/30 36/36/30
f 36/36/31 44/44/31 115/147/31
f 116/148/32 117/149/32 118/150/32
f 118/150/2 117/149/2 32/32/2 29/29/2 28/28/2
f 27/27/33 26/26/33 33/33/33
f 33/33/34 26/26/34 119/151/34
f 26/26/3 32/32/3 117/149/3 116/148/3 119/151/3
f 26/26/3 25/25/3 32/32/3
f 31/31/5 24/24/5 27/27/5 33/33/5
f 28/28/5 33/33/5 119/151/5 116/148/5 118/150/5
f 12/12/5 5/5/5 4/4/5 111/143/5
f 7/7/5 5/5/5 12/12/5
f 9/9/1 13/13/1 2/2/1 1/1/1 10/10/1
f 3/3/1 2/2/1 111/143/1 4/4/1
f 120/152/1 15/15/1 14/14/1
f 23/23/4 21/21/4 20/20/4 15/15/4 120/152/4
f 22/22/7 14/14/7 112/144/7 18/18/7
f 22/22/7 23/23/7 120/152/7 14/14/7
f 37/37/1 114/146/1 40/40/1 38/38/1
f 41/41/1 40/40/1 113/145/1 42/42/1
f 42/42/7 113/145/7 46/46/7 34/34/7
f 35/35/7 46/46/7 114/146/7 37/37/7
f 36/36/3 35/35/3 39/39/3 45/45/3
f 34/34/3 36/36/3 115/147/3 43/43/3
f 43/43/5 115/147/5 44/44/5 41/41/5
f 41/41/5 44/44/5 38/38/5
f 49/49/35 48/48/35 93/121/35
f 93/121/36 48/48/36 94/122/36
f 48/48/1 91/119/1 95/123/1 94/122/1
f 47/47/1 91/119/1 48/48/1
f 50/50/2 49/49/2 93/121/2 106/134/2
f 106/134/2 93/121/2 92/120/2
f 62/69/4 61/67/4 110/141/4 109/139/4
f 103/131/37 105/133/37 62/70/37 109/140/37
f 83/111/4 80/108/4 105/133/4 103/131/4
f 81/109/7 80/108/7 83/111/7 86/114/7
f 68/78/38 81/109/38 86/114/38 71/86/38
f 69/80/7 68/79/7 71/87/7 74/95/7
f 47/47/39 65/73/39 69/81/39 74/96/39
f 66/74/7 65/73/7 47/47/7 50/50/7
f 99/127/2 66/74/2 50/50/2 106/134/2
f 51/51/40 99/127/40 106/134/40 108/137/40
f 108/138/2 107/135/2 52/53/2 51/52/2
f 92/120/41 96/124/41 52/54/41 107/136/41
f 95/123/2 63/71/2 96/124/2 92/120/2
f 91/119/5 64/72/5 63/71/5 95/123/5
f 75/97/42 64/72/42 91/119/42 73/92/42
f 72/89/5 76/99/5 75/98/5 73/93/5
f 85/113/43 87/115/43 76/100/43 72/90/43
f 84/112/5 88/116/5 87/115/5 85/113/5
f 102/130/4 88/116/4 84/112/4 104/132/4
f 61/68/44 102/130/44 104/132/44 110/142/44
