# Blender 3.1.0
# www.blender.org
mtllib Valorant_BancaMadera.mtl
o SM_Prop_Bench_01.001
v -8.778712 0.000001 -2.809536
v -9.197839 0.510811 -2.808348
v -9.200911 6.364521 -2.808949
v -7.920674 6.374878 -2.816161
v -7.912801 0.007251 -2.814588
v -9.091804 6.396298 2.597095
v -7.813718 6.406655 2.589881
v 8.445818 0.041553 -2.839322
v 8.437938 6.409973 -2.840895
v 9.612129 6.363574 -2.863210
v 9.619074 0.108388 -2.861846
v 9.702204 0.132601 1.257125
v 9.168819 0.121971 2.574949
v 8.552809 0.073330 2.567861
v 8.544922 6.441753 2.566285
v 9.725002 0.536013 2.575064
v 9.721869 6.395533 2.574451
v -7.836143 0.030029 1.060094
v -7.809739 1.229045 2.590675
v -8.147332 0.036417 2.593275
v -9.146928 0.010278 -0.530889
v -9.083773 0.028670 2.598670
v 12.464403 7.334837 3.716624
v -1.254241 7.151933 3.426868
v -1.251698 6.680139 3.426868
v 0.212240 6.329690 3.426867
v 10.353186 6.498271 3.716624
v 12.466413 6.961970 3.716624
v -12.805837 6.351961 -3.300040
v -12.805837 6.351964 -1.579481
v -12.810996 7.309427 -1.579481
v -12.810996 7.309427 -3.716619
v -12.809023 6.943231 -3.716617
v 12.438694 7.399429 -3.716619
v -1.244844 7.216663 -3.286746
v 0.158961 7.222282 -1.416148
v 12.289656 7.399428 -1.579481
v 12.722202 6.465673 1.108779
v -1.273201 6.283270 1.026241
v 0.130607 6.288895 -1.097917
v 12.125559 6.465673 -1.233782
v 12.118755 7.374731 -1.233783
v 12.715399 7.374725 1.108780
v 0.125706 7.197945 -1.097920
v -1.278104 7.192327 1.026242
v -12.673590 6.356568 1.464284
v -11.844437 6.427878 3.716624
v -11.848902 7.255970 3.716624
v -12.678759 7.314940 1.464284
v -1.247389 6.307898 2.919310
v -1.240032 6.258729 1.353500
v 12.894735 6.441510 1.464285
v 12.462842 6.490436 3.153297
v 12.887563 7.399898 1.464284
v -1.245198 7.217117 1.353500
v -12.472629 6.494559 1.283147
v -12.476315 7.178569 1.283147
v -1.175213 6.396181 1.186754
v 12.224996 6.576763 1.283147
v 12.219877 7.260776 1.283148
v -1.178899 7.080198 1.186754
v -12.158252 7.175313 -1.408151
v -12.154565 6.491299 -1.408152
v 8.885729 6.432121 -1.579480
v 12.296824 6.441964 -1.808389
v 11.628352 6.576761 -1.408151
v 12.293275 6.915847 -1.579479
v 0.224911 7.085821 -1.258431
v 11.623234 7.260777 -1.408150
v -12.442383 6.377617 -1.233783
v -12.447284 7.286672 -1.233783
v -12.910406 6.901117 1.108778
v -12.907598 6.380286 0.773759
v 0.228598 6.401803 -1.258433
v 0.164123 6.264817 -1.416149
v -9.153473 6.366594 -3.716617
v -1.239683 6.259198 -3.286747
v -10.229433 6.391019 1.108779
v -3.755841 6.313796 3.426867
v -12.912501 7.289347 1.108778
v 12.443857 6.441964 -3.716616
vn -0.0008 -0.0000 -0.1569
vn -0.0013 0.1569 -0.0009
vn -0.0030 -0.0000 -0.1569
vn 0.0092 -0.1566 0.0009
vn -0.0010 0.0001 0.1569
vn 0.0062 0.1568 -0.0010
vn 0.1481 -0.0419 0.0302
vn 0.1569 0.0002 -0.0031
vn -0.1204 -0.0988 -0.0190
vn 0.0009 -0.0000 0.1569
vn 0.0013 -0.1569 0.0009
vn 0.0912 -0.1225 0.0359
vn -0.1569 -0.0002 0.0032
vn -0.1569 -0.0002 0.0031
vn -0.0036 0.0014 0.1568
vn -0.1569 -0.0008 -0.0000
vn -0.0022 0.1569 0.0005
vn 0.0022 -0.1569 0.0002
vn 0.1520 0.0011 -0.0387
vn -0.0022 0.1569 -0.0002
vn -0.1472 -0.0008 0.0542
vn 0.0020 -0.1568 0.0051
vn 0.1535 -0.0093 0.0313
vn -0.0021 0.1568 0.0045
vn -0.1048 -0.0006 -0.1167
vn 0.0023 -0.1215 -0.0993
vn 0.0410 0.0003 -0.1514
vn -0.0009 0.1237 -0.0966
vn 0.0001 0.1235 -0.0968
vn -0.0008 0.1236 -0.0966
vn -0.0399 -0.0002 0.1517
vn 0.0042 -0.1464 0.0563
vn 0.0647 -0.0618 0.1289
vn -0.0005 0.1208 0.1001
vn -0.0004 0.1208 0.1001
vn -0.0812 -0.0004 -0.1343
vn -0.1009 -0.0654 0.1008
vn 0.0009 -0.1299 -0.0879
vn 0.0008 -0.1299 -0.0879
vn 0.0002 -0.1300 -0.0879
vn 0.0011 -0.1298 0.0882
vn 0.0520 0.0004 -0.1480
vn 0.0520 0.0004 0.1480
vn -0.0030 0.1316 -0.0853
vn -0.0023 0.1313 0.0859
vn -0.0298 -0.1243 0.0909
vn -0.0012 -0.1569 -0.0010
vn -0.0021 -0.1179 0.1035
vn 0.0001 -0.1300 -0.0879
vn -0.0041 -0.1523 0.0377
vn -0.0020 -0.1223 -0.0983
vn 0.0184 -0.1256 0.0922
vn 0.0015 0.1568 0.0042
vn 0.0002 0.1234 -0.0968
vn 0.0018 0.1319 0.0849
vn 0.0012 0.1569 0.0006
vn 0.0019 0.1315 -0.0855
vn -0.0004 0.1208 0.1002
vn 0.0012 0.1569 -0.0006
vn -0.0006 -0.1336 0.0823
vn -0.0012 -0.1569 0.0005
vn -0.1536 0.0050 -0.0318
vn -0.0583 -0.0003 0.1457
vn -0.0142 -0.0900 -0.1277
vn -0.0014 -0.1568 0.0040
vn 0.0044 -0.0067 0.1567
vn 0.0036 -0.1329 0.0834
vn 0.0390 0.0003 0.1520
vn 0.1565 -0.0003 0.0111
vn 0.0022 -0.1569 0.0010
vn 0.0261 -0.1187 0.0992
vn -0.0000 0.0054 -0.1568
vn -0.0049 -0.0000 -0.1568
vn 0.0066 0.0126 -0.1562
vt 0.266567 0.384551
vt 0.266567 0.384551
vt 0.266567 0.384551
vt 0.266567 0.384551
vt 0.266567 0.384551
vt 0.266567 0.384551
vt 0.266567 0.384551
vt 0.266567 0.384551
vt 0.266567 0.384551
vt 0.266567 0.384551
vt 0.266567 0.384551
vt 0.266567 0.384551
vt 0.266567 0.384551
vt 0.266567 0.384551
vt 0.266567 0.384551
vt 0.266567 0.384551
vt 0.266567 0.384551
vt 0.266567 0.384551
vt 0.266567 0.384551
vt 0.266567 0.384551
vt 0.266567 0.384551
vt 0.266567 0.384551
vt 0.248706 0.384551
vt 0.248706 0.384551
vt 0.248706 0.384551
vt 0.248706 0.384551
vt 0.248706 0.384551
vt 0.248706 0.384551
vt 0.248706 0.384551
vt 0.248706 0.384551
vt 0.267996 0.384551
vt 0.267996 0.384551
vt 0.248706 0.384551
vt 0.248706 0.384551
vt 0.248706 0.384551
vt 0.248706 0.384551
vt 0.248706 0.384551
vt 0.267996 0.384551
vt 0.248706 0.384551
vt 0.267996 0.384551
vt 0.248706 0.384551
vt 0.248706 0.384551
vt 0.267996 0.384551
vt 0.267996 0.384551
vt 0.248706 0.384551
vt 0.267996 0.384551
vt 0.248706 0.384551
vt 0.248706 0.384551
vt 0.267996 0.384551
vt 0.248706 0.384551
vt 0.267996 0.384551
vt 0.248706 0.384551
vt 0.267996 0.384551
vt 0.248706 0.384551
vt 0.267996 0.384551
vt 0.267996 0.384551
vt 0.248706 0.384551
vt 0.267996 0.384551
vt 0.248706 0.384551
vt 0.248706 0.384551
vt 0.248706 0.384551
vt 0.248706 0.384551
vt 0.267996 0.384551
vt 0.248706 0.384551
vt 0.267996 0.384551
vt 0.248706 0.384551
vt 0.248706 0.384551
vt 0.267996 0.384551
vt 0.248706 0.384551
vt 0.248706 0.384551
vt 0.267996 0.384551
vt 0.248706 0.384551
vt 0.267996 0.384551
vt 0.267996 0.384551
vt 0.267996 0.384551
vt 0.267996 0.384551
vt 0.267996 0.384551
vt 0.267996 0.384551
vt 0.267996 0.384551
vt 0.267996 0.384551
vt 0.267996 0.384551
vt 0.267996 0.384551
vt 0.248706 0.384551
vt 0.267996 0.384551
vt 0.248706 0.384551
vt 0.267996 0.384551
vt 0.267996 0.384551
vt 0.248706 0.384551
vt 0.267996 0.384551
vt 0.267996 0.384551
vt 0.267996 0.384551
vt 0.248706 0.384551
vt 0.267996 0.384551
vt 0.248706 0.384551
vt 0.248706 0.384551
vt 0.267996 0.384551
vt 0.267996 0.384551
vt 0.248706 0.384551
vt 0.267996 0.384551
vt 0.267996 0.384551
vt 0.248706 0.384551
vt 0.248706 0.384551
vt 0.248706 0.384551
vt 0.267996 0.384551
vt 0.248706 0.384551
vt 0.248706 0.384551
vt 0.248706 0.384551
vt 0.267996 0.384551
vt 0.248706 0.384551
s 1
usemtl Default_OBJ.007
f 1/1/1 2/2/1 3/3/1 4/4/1 5/5/1
f 6/6/2 7/7/2 4/4/2 3/3/2
f 8/8/3 9/9/3 10/10/3 11/11/3
f 11/11/4 12/12/4 13/13/4 14/14/4 8/8/4
f 15/15/5 14/14/5 13/13/5 16/16/5 17/17/5
f 15/15/6 17/17/6 10/10/6 9/9/6
f 18/18/7 19/19/7 20/20/7
f 12/12/8 11/11/8 10/10/8 17/17/8 16/16/8
f 21/21/9 2/2/9 1/1/9
f 6/6/10 22/22/10 20/20/10 19/19/10 7/7/10
f 18/18/11 20/20/11 22/22/11 21/21/11 1/1/11 5/5/11
f 13/13/12 12/12/12 16/16/12
f 21/21/13 22/22/13 6/6/13 3/3/13 2/2/13
f 8/8/14 14/14/14 15/15/14 9/9/14
f 5/5/8 4/4/8 7/7/8 19/19/8 18/18/8
f 23/23/15 24/24/15 25/25/15 26/26/15 27/27/15 28/28/15
f 29/29/16 30/30/16 31/33/16 32/34/16 33/35/16
f 34/36/17 35/37/17 36/39/17 37/41/17
f 38/42/18 39/45/18 40/47/18 41/48/18
f 42/50/19 43/52/19 38/42/19 41/48/19
f 42/50/20 44/54/20 45/57/20 43/52/20
f 46/59/21 47/60/21 48/61/21 49/62/21
f 27/27/22 26/26/22 50/64/22 51/66/22 52/67/22 53/69/22
f 54/70/23 23/23/23 28/28/23 53/69/23 52/67/23
f 54/70/24 55/72/24 24/24/24 23/23/24
f 56/74/25 46/58/25 49/63/25 57/75/25
f 52/68/26 51/65/26 58/76/26 59/77/26
f 60/78/27 54/71/27 52/68/27 59/77/27
f 60/78/28 61/79/29 55/73/30 54/71/28
f 62/80/31 31/32/31 30/31/31 63/81/31
f 64/82/32 65/84/32 66/86/32
f 66/86/33 65/84/33 67/87/33
f 37/40/34 36/38/35 68/89/35 69/90/34
f 63/81/36 70/91/36 71/93/36 62/80/36
f 72/96/37 73/97/37 56/74/37
f 41/49/38 40/46/39 74/99/40 66/86/38
f 59/77/41 58/76/41 39/44/41 38/43/41
f 69/90/42 42/51/42 41/49/42 66/86/42
f 59/77/43 38/43/43 43/53/43 60/78/43
f 69/90/44 68/89/44 44/55/44 42/51/44
f 43/53/45 45/56/45 61/79/45 60/78/45
f 26/26/46 25/25/46 50/64/46
f 75/101/47 30/30/47 29/29/47 76/102/47 77/103/47
f 63/81/48 30/31/48 75/100/48 74/99/48
f 40/46/39 70/91/49 63/81/49 74/99/40
f 56/74/50 73/97/50 78/104/50
f 51/65/51 46/58/51 56/74/51 58/76/51
f 25/25/52 79/106/52 50/64/52
f 49/62/53 48/61/53 24/24/53 55/72/53
f 57/75/54 49/63/54 55/73/30 61/79/29
f 45/56/55 80/108/55 57/75/55 61/79/55
f 71/94/56 80/107/56 45/57/56 44/54/56
f 62/80/57 71/93/57 44/55/57 68/89/57
f 36/38/35 31/32/58 62/80/58 68/89/35
f 32/34/59 31/33/59 36/39/59 35/37/59
f 56/74/60 78/104/60 39/44/60 58/76/60
f 39/45/61 78/105/61 73/98/61 70/92/61 40/47/61
f 70/92/62 73/98/62 72/95/62 80/107/62 71/94/62
f 57/75/63 80/108/63 72/96/63 56/74/63
f 76/102/64 29/29/64 33/35/64
f 79/106/65 47/60/65 46/59/65 51/66/65 50/64/65
f 48/61/66 47/60/66 79/106/66 25/25/66 24/24/66
f 66/86/67 74/99/67 75/100/67 64/82/67
f 66/86/68 67/87/68 37/40/68 69/90/68
f 34/36/69 37/41/69 67/88/69 65/85/69 81/109/69
f 64/83/70 75/101/70 77/103/70 81/109/70 65/85/70
f 53/69/71 28/28/71 27/27/71
f 77/103/72 35/37/72 34/36/73 81/109/73
f 33/35/74 32/34/74 35/37/72 77/103/72 76/102/74
