# Blender v3.0.1 OBJ File: 'Minecraft.blend'
# www.blender.org
mtllib wheezy_brazo_der.mtl
o brazo_derecho_Cube.005
v -1.046611 -4.681267 -1.268619
v -1.046611 -4.681267 1.268619
v 1.490627 -4.681267 1.268619
v 1.490627 -4.681267 -1.268619
v -1.046611 4.681268 -1.268618
v -1.046610 4.681268 1.268620
v 1.490627 4.681268 1.268618
v 1.490627 4.681268 -1.268619
vt 0.668702 0.559496
vt 0.615797 0.612401
vt 0.615797 0.559496
vt 0.752855 0.744110
vt 0.805760 0.691204
vt 0.805760 0.744109
vt 0.739447 0.506431
vt 0.686542 0.701652
vt 0.686542 0.506431
vt 0.738679 0.505199
vt 0.692134 0.677272
vt 0.692134 0.505199
vt 0.690248 0.700160
vt 0.743153 0.504938
vt 0.743153 0.700160
vt 0.668702 0.612401
vt 0.752855 0.691204
vt 0.739447 0.701652
vt 0.738679 0.677272
vt 0.690248 0.504938
vn 0.0000 -1.0000 0.0000
vn 0.0000 1.0000 -0.0000
vn -1.0000 -0.0000 0.0000
vn 0.0000 -0.0000 1.0000
vn -0.0000 0.0000 -1.0000
usemtl Material
s off
f 4/1/1 2/2/1 1/3/1
f 5/4/2 7/5/2 8/6/2
f 2/7/3 5/8/3 1/9/3
f 3/10/4 6/11/4 2/12/4
f 8/13/5 1/14/5 5/15/5
f 4/1/1 3/16/1 2/2/1
f 5/4/2 6/17/2 7/5/2
f 2/7/3 6/18/3 5/8/3
f 3/10/4 7/19/4 6/11/4
f 8/13/5 4/20/5 1/14/5
