# Blender v3.0.1 OBJ File: 'Minecraft.blend'
# www.blender.org
mtllib wheezy_brazo_izq.mtl
o brazo_izquierdo_Cube.004
v 1.268619 -4.681267 -1.268619
v 1.268619 -4.681267 1.268619
v -1.268619 -4.681267 1.268619
v -1.268618 -4.681267 -1.268619
v 1.268620 4.681268 -1.268618
v 1.268618 4.681268 1.268620
v -1.268619 4.681268 1.268618
v -1.268618 4.681268 -1.268619
vt 0.644102 0.595983
vt 0.697007 0.543078
vt 0.644102 0.543078
vt 0.688795 0.741124
vt 0.741700 0.688219
vt 0.688795 0.688219
vt 0.691011 0.701652
vt 0.743916 0.506431
vt 0.691011 0.506431
vt 0.864915 0.679503
vt 0.819197 0.510489
vt 0.864915 0.510489
vt 0.817815 0.678213
vt 0.864487 0.505990
vt 0.817815 0.505990
vt 0.744643 0.503446
vt 0.691738 0.698667
vt 0.744643 0.698667
vt 0.697007 0.595983
vt 0.741700 0.741124
vt 0.743916 0.701652
vt 0.819197 0.679503
vt 0.864487 0.678213
vt 0.691738 0.503446
vn 0.0000 -1.0000 0.0000
vn 0.0000 1.0000 -0.0000
vn 1.0000 -0.0000 0.0000
vn 0.0000 -0.0000 1.0000
vn -1.0000 0.0000 -0.0000
vn 0.0000 0.0000 -1.0000
usemtl Material
s off
f 2/1/1 4/2/1 1/3/1
f 5/4/2 7/5/2 6/6/2
f 5/7/3 2/8/3 1/9/3
f 6/10/4 3/11/4 2/12/4
f 7/13/5 4/14/5 3/15/5
f 1/16/6 8/17/6 5/18/6
f 2/1/1 3/19/1 4/2/1
f 5/4/2 8/20/2 7/5/2
f 5/7/3 6/21/3 2/8/3
f 6/10/4 7/22/4 3/11/4
f 7/13/5 8/23/5 4/14/5
f 1/16/6 4/24/6 8/17/6
