# Blender v3.0.1 OBJ File: 'Minecraft.blend'
# www.blender.org
mtllib wheezy_cabeza.mtl
o cabeza_Cube.001
v 3.171548 -3.171549 -3.171547
v 3.171548 -3.171549 3.171547
v -3.171547 -3.171549 3.171547
v -3.171546 -3.171549 -3.171549
v 3.171549 3.171549 -3.171546
v 3.171546 3.171549 3.171549
v -3.171548 3.171549 3.171546
v -3.171547 3.171549 -3.171547
vt 0.362714 0.995204
vt 0.230452 0.862942
vt 0.362714 0.862942
vt 0.200657 0.992565
vt 0.332919 0.860302
vt 0.332919 0.992565
vt 0.478262 0.850416
vt 0.381742 0.753895
vt 0.478262 0.753895
vt 0.253702 0.877896
vt 0.125018 0.748972
vt 0.253702 0.748972
vt 0.352612 0.990153
vt 0.220350 0.857891
vt 0.352612 0.857891
vt 0.235573 0.859383
vt 0.367836 0.991646
vt 0.235573 0.991646
vt 0.230452 0.995204
vt 0.200657 0.860302
vt 0.381741 0.850416
vt 0.125018 0.877896
vt 0.220350 0.990153
vt 0.367836 0.859383
vn 0.0000 -1.0000 0.0000
vn 0.0000 1.0000 -0.0000
vn 1.0000 -0.0000 0.0000
vn -0.0000 -0.0000 1.0000
vn -1.0000 0.0000 -0.0000
vn 0.0000 0.0000 -1.0000
usemtl Material
s off
f 2/1/1 4/2/1 1/3/1
f 8/4/2 6/5/2 5/6/2
f 5/7/3 2/8/3 1/9/3
f 6/10/4 3/11/4 2/12/4
f 7/13/5 4/14/5 3/15/5
f 1/16/6 8/17/6 5/18/6
f 2/1/1 3/19/1 4/2/1
f 8/4/2 7/20/2 6/5/2
f 5/7/3 6/21/3 2/8/3
f 6/10/4 7/22/4 3/11/4
f 7/13/5 8/23/5 4/14/5
f 1/16/6 4/24/6 8/17/6
