# Blender v3.0.1 OBJ File: 'Minecraft.blend'
# www.blender.org
mtllib wheezy_torso.mtl
o dorso_Cube
v 3.088059 -4.758824 -1.585773
v 3.088059 -4.758824 1.585774
v -3.255037 -4.758824 1.585773
v -3.255035 -4.758824 -1.585774
v 3.088060 4.764448 -1.585773
v 3.088057 4.764448 1.585774
v -3.255038 4.764448 1.585773
v -3.255036 4.764448 -1.585774
v -3.297141 -4.650601 1.268619
v -3.297142 -4.650601 -1.268619
v -3.297141 4.711934 1.268618
v -3.297141 4.711934 -1.268619
vt 0.330848 0.292002
vt 0.198585 0.225871
vt 0.330847 0.225871
vt 0.319256 0.832826
vt 0.451518 0.766695
vt 0.451518 0.832826
vt 0.644279 0.215949
vt 0.578147 0.017375
vt 0.644279 0.017375
vt 0.434818 0.674689
vt 0.317421 0.498105
vt 0.434818 0.498105
vt 0.649982 0.226396
vt 0.583851 0.027823
vt 0.649982 0.027823
vt 0.521321 0.661928
vt 0.615421 0.520650
vt 0.615421 0.661928
vt 0.737994 0.506431
vt 0.685089 0.701652
vt 0.685089 0.506431
vt 0.198585 0.292002
vt 0.319256 0.766695
vt 0.578147 0.215949
vt 0.317421 0.674689
vt 0.583851 0.226397
vt 0.521321 0.520650
vt 0.737994 0.701652
vn 0.0000 -1.0000 0.0000
vn 0.0000 1.0000 -0.0000
vn 1.0000 -0.0000 0.0000
vn 0.0000 -0.0000 1.0000
vn -1.0000 -0.0000 -0.0000
vn 0.0000 0.0000 -1.0000
usemtl Material
s off
f 2/1/1 4/2/1 1/3/1
f 8/4/2 6/5/2 5/6/2
f 5/7/3 2/8/3 1/9/3
f 6/10/4 3/11/4 2/12/4
f 7/13/5 4/14/5 3/15/5
f 5/16/6 4/17/6 8/18/6
f 10/19/3 11/20/3 9/21/3
f 2/1/1 3/22/1 4/2/1
f 8/4/2 7/23/2 6/5/2
f 5/7/3 6/24/3 2/8/3
f 6/10/4 7/25/4 3/11/4
f 7/13/5 8/26/5 4/14/5
f 5/16/6 1/27/6 4/17/6
f 10/19/3 12/28/3 11/20/3
