# Blender v3.0.1 OBJ File: 'Minecraft.blend'
# www.blender.org
mtllib wheezy_pie_izq.mtl
o pie_izquierdo_Cube.002
v 1.533170 -4.884185 -1.585774
v 1.533170 -4.884185 1.585774
v -1.533170 -4.884185 1.585773
v -1.533169 -4.884185 -1.585774
v 1.533170 4.884185 -1.585773
v 1.533169 4.884185 1.585775
v -1.533170 4.884185 1.585773
v -1.533170 4.884185 -1.585774
vt 0.134852 0.743384
vt 0.175031 0.701826
vt 0.134852 0.701826
vt 0.663055 0.213463
vt 0.599118 0.147332
vt 0.599118 0.213463
vt 0.200044 0.672931
vt 0.244947 0.534631
vt 0.200044 0.534631
vt 0.238647 0.672903
vt 0.195313 0.534596
vt 0.238647 0.534596
vt 0.061687 0.656375
vt 0.100958 0.535420
vt 0.061687 0.535420
vt 0.241734 0.534910
vt 0.201307 0.663698
vt 0.241734 0.663698
vt 0.175031 0.743384
vt 0.663055 0.147332
vt 0.244947 0.672931
vt 0.195313 0.672903
vt 0.100958 0.656375
vt 0.201307 0.534910
vn 0.0000 -1.0000 0.0000
vn 0.0000 1.0000 0.0000
vn 1.0000 0.0000 0.0000
vn -0.0000 -0.0000 1.0000
vn -1.0000 0.0000 -0.0000
vn 0.0000 0.0000 -1.0000
usemtl Material
s off
f 2/1/1 4/2/1 1/3/1
f 8/4/2 6/5/2 5/6/2
f 5/7/3 2/8/3 1/9/3
f 6/10/4 3/11/4 2/12/4
f 7/13/5 4/14/5 3/15/5
f 1/16/6 8/17/6 5/18/6
f 2/1/1 3/19/1 4/2/1
f 8/4/2 7/20/2 6/5/2
f 5/7/3 6/21/3 2/8/3
f 6/10/4 7/22/4 3/11/4
f 7/13/5 8/23/5 4/14/5
f 1/16/6 4/24/6 8/17/6
