# 3ds Max Wavefront OBJ Exporter v0.99 - (c)2007 guruware
# File Created: 10.05.2022 13:02:55

mtllib white_helicopter.mtl

#
# object helicopter
#

v  0.0000 0.6352 -1.4771
v  0.7720 0.7370 -1.4771
v  0.7720 0.7682 0.1328
v  0.0000 0.6658 0.1782
v  0.0778 1.7195 -8.3709
v  0.1091 1.6877 -7.7150
v  0.0436 1.0108 -8.2789
v  0.0351 1.0264 -8.5800
v  1.0810 1.7334 0.3995
v  1.0313 1.6995 0.3656
v  0.9759 1.6377 1.3942
v  1.0256 1.6716 1.4281
v  0.2638 2.4358 -2.6723
v  0.0000 2.4751 -2.7304
v  0.0000 2.9776 -2.4459
v  0.2630 2.9776 -2.4023
v  0.0000 1.6100 1.7891
v  0.0000 1.3389 2.2124
v  0.6048 1.3446 1.9088
v  1.0513 1.5823 1.4577
v  0.0981 1.9394 -7.8189
v  0.1777 1.8155 -7.7150
v  0.1360 1.8156 -8.3636
v  0.0724 1.9089 -8.3709
v  1.1616 1.7370 -1.4771
v  1.0976 1.6473 0.3222
v  0.2025 1.3643 -2.8083
v  0.3201 1.8188 -2.8083
v  0.6201 2.7437 -1.4507
v  0.4118 2.9776 -1.4972
v  0.1384 2.2600 -2.8083
v  0.9223 2.7370 -1.4771
v  0.0000 1.2625 -2.8083
v  0.6201 2.7370 -0.0940
v  0.9223 2.6762 -0.0046
v  0.0000 2.3373 -2.8083
v  0.0000 2.8358 0.0273
v  0.0000 2.6574 0.9677
v  0.7893 2.6861 0.7009
v  0.0000 2.9710 -1.5236
v  0.0000 2.9710 -0.2048
v  0.4118 2.9710 -0.3261
v  0.2795 2.8975 -0.1831
v  0.2795 2.8499 -0.5818
v  0.3465 2.7530 -0.4727
v  0.3465 2.8005 -0.0740
v  0.0000 1.8156 -8.3636
v  0.0000 1.9089 -8.3709
v  0.0000 1.7195 -8.3709
v  0.0000 1.9835 -7.8189
v  0.0236 3.2218 -8.3876
v  0.0000 3.2556 -8.3876
v  0.0000 1.6424 -7.7150
v  0.0265 3.1965 -8.5525
v  0.0000 3.2303 -8.5525
v  0.0000 0.9887 -8.2789
v  0.0000 1.0044 -8.5800
v  0.9338 2.5803 0.1303
v  0.7991 2.5848 0.7778
v  0.7494 2.5509 0.7439
v  0.8841 2.5464 0.0964
v  0.7677 0.8666 1.4353
v  0.0000 0.7648 1.5838
v  0.0000 2.5815 1.0765
v  0.0000 1.6813 1.7161
v  0.0000 2.5476 1.0426
v  0.0000 1.6474 1.6822
v  1.1180 1.7594 -0.6328
v  1.0654 1.7492 -0.6343
v  1.0334 1.7058 0.2299
v  1.0859 1.7160 0.2314
v  0.4533 0.9602 1.9363
v  0.0000 0.9050 2.1934
v  0.9355 2.6432 -0.7678
v  0.9367 2.6140 -0.0534
v  0.8830 2.6331 -0.7693
v  0.8842 2.6038 -0.0549
v  0.0000 2.8503 0.0024
v  0.0000 2.9150 -0.1086
v  0.0000 2.8028 -0.3963
v  0.0000 2.8674 -0.5073
v  1.1285 0.1077 -0.9418
v  1.1285 0.1077 -1.7496
v  1.1285 0.0000 -1.7496
v  1.1285 0.0000 -0.9418
v  1.2618 0.1077 -1.7496
v  1.2618 0.0000 -1.7496
v  1.2618 0.1077 0.9384
v  1.2618 0.1077 1.7031
v  1.2618 0.0000 1.7031
v  1.2618 0.0000 0.9384
v  1.1285 0.1077 1.7031
v  1.1285 0.2166 1.9139
v  1.2618 0.2166 1.9139
v  1.1285 0.0000 1.7031
v  1.1285 0.0000 0.9384
v  1.1285 0.1077 0.9384
v  1.1285 0.1334 1.9476
v  1.2618 0.1334 1.9476
v  1.2618 0.1077 -0.9418
v  1.1285 0.1077 -0.8316
v  1.2618 0.1077 -0.8316
v  1.1119 0.4399 -0.8316
v  0.9734 0.4399 -0.8316
v  1.1285 0.1077 0.8316
v  1.2618 0.1077 0.8316
v  1.1119 0.4399 0.9384
v  0.9734 0.4399 0.9384
v  1.2618 0.0000 -0.9418
v  1.2618 0.0000 -0.8316
v  1.1285 0.0000 -0.8316
v  1.2618 0.0000 0.8316
v  1.1285 0.0000 0.8316
v  0.9576 0.6436 -0.8316
v  0.7934 0.6436 -0.8316
v  0.9576 0.6436 0.9384
v  0.7934 0.6436 0.9384
v  1.1119 0.4399 0.8316
v  1.1119 0.4399 -0.9418
v  0.9734 0.4399 0.8316
v  0.9734 0.4399 -0.9418
v  0.9576 0.6436 -0.9418
v  0.7724 0.7794 -0.9418
v  0.7724 0.7794 -0.8316
v  0.7934 0.6436 -0.9418
v  0.5618 0.7794 -0.9418
v  0.9576 0.6436 0.8316
v  0.7934 0.6436 0.8316
v  0.5618 0.7794 -0.8316
v  0.5618 0.7794 0.8316
v  0.5618 0.7794 0.9384
v  0.7724 0.7794 0.9384
v  0.7724 0.7794 0.8316
v  -0.7720 0.7682 0.1328
v  -0.7720 0.7370 -1.4771
v  -0.0778 1.7195 -8.3709
v  -0.0351 1.0264 -8.5800
v  -0.0436 1.0108 -8.2789
v  -0.1091 1.6877 -7.7150
v  -0.9759 1.6377 1.3942
v  -1.0313 1.6995 0.3656
v  -1.0810 1.7334 0.3995
v  -1.0256 1.6716 1.4281
v  -0.2638 2.4358 -2.6723
v  -0.2630 2.9776 -2.4023
v  -0.6048 1.3446 1.9088
v  -1.0513 1.5823 1.4577
v  -0.0981 1.9394 -7.8189
v  -0.0724 1.9089 -8.3709
v  -0.1360 1.8156 -8.3636
v  -0.1777 1.8155 -7.7150
v  -1.0976 1.6473 0.3222
v  -1.1616 1.7370 -1.4771
v  -0.2025 1.3643 -2.8083
v  -0.3201 1.8188 -2.8083
v  -0.6201 2.7437 -1.4507
v  -0.4118 2.9776 -1.4972
v  -0.9223 2.7370 -1.4771
v  -0.1384 2.2600 -2.8083
v  -0.9223 2.6762 -0.0046
v  -0.6201 2.7370 -0.0940
v  -0.7893 2.6861 0.7009
v  -0.4118 2.9710 -0.3261
v  -0.3465 2.7530 -0.4727
v  -0.2795 2.8499 -0.5818
v  -0.2795 2.8975 -0.1831
v  -0.3465 2.8005 -0.0740
v  -0.0236 3.2218 -8.3876
v  -0.0265 3.1965 -8.5525
v  -0.9338 2.5803 0.1303
v  -0.8841 2.5464 0.0964
v  -0.7494 2.5509 0.7439
v  -0.7991 2.5848 0.7778
v  -0.7677 0.8666 1.4353
v  -1.0334 1.7058 0.2299
v  -1.0654 1.7492 -0.6343
v  -1.1180 1.7594 -0.6328
v  -1.0859 1.7160 0.2314
v  -0.4533 0.9602 1.9363
v  -0.9355 2.6432 -0.7678
v  -0.9367 2.6140 -0.0534
v  -0.8842 2.6038 -0.0549
v  -0.8830 2.6331 -0.7693
v  -1.1285 0.0000 -1.7496
v  -1.1285 0.1077 -1.7496
v  -1.1285 0.1077 -0.9418
v  -1.1285 0.0000 -0.9418
v  -1.2618 0.0000 -1.7496
v  -1.2618 0.1077 -1.7496
v  -1.2618 0.0000 1.7031
v  -1.2618 0.1077 1.7031
v  -1.2618 0.1077 0.9384
v  -1.2618 0.0000 0.9384
v  -1.2618 0.2166 1.9139
v  -1.1285 0.2166 1.9139
v  -1.1285 0.1077 1.7031
v  -1.1285 0.0000 1.7031
v  -1.1285 0.0000 0.9384
v  -1.1285 0.1077 0.9384
v  -1.1285 0.1334 1.9476
v  -1.2618 0.1334 1.9476
v  -1.2618 0.1077 -0.9418
v  -1.1285 0.1077 -0.8316
v  -0.9734 0.4399 -0.8316
v  -1.1119 0.4399 -0.8316
v  -1.2618 0.1077 -0.8316
v  -1.2618 0.1077 0.8316
v  -1.1285 0.1077 0.8316
v  -0.9734 0.4399 0.9384
v  -1.1119 0.4399 0.9384
v  -1.2618 0.0000 -0.9418
v  -1.1285 0.0000 -0.8316
v  -1.2618 0.0000 -0.8316
v  -1.1285 0.0000 0.8316
v  -1.2618 0.0000 0.8316
v  -0.7934 0.6436 -0.8316
v  -0.9576 0.6436 -0.8316
v  -0.7934 0.6436 0.9384
v  -0.9576 0.6436 0.9384
v  -1.1119 0.4399 0.8316
v  -1.1119 0.4399 -0.9418
v  -0.9734 0.4399 0.8316
v  -0.9734 0.4399 -0.9418
v  -0.7724 0.7794 -0.8316
v  -0.7724 0.7794 -0.9418
v  -0.9576 0.6436 -0.9418
v  -0.5618 0.7794 -0.9418
v  -0.7934 0.6436 -0.9418
v  -0.9576 0.6436 0.8316
v  -0.7934 0.6436 0.8316
v  -0.5618 0.7794 -0.8316
v  -0.7724 0.7794 0.9384
v  -0.5618 0.7794 0.9384
v  -0.5618 0.7794 0.8316
v  -0.7724 0.7794 0.8316
# 235 vertices

vn 0.1317 -0.9911 0.0187
vn 0.9976 -0.0539 -0.0441
vn -0.5719 0.8201 0.0185
vn 0.2013 0.4596 -0.8650
vn 0.2308 0.7851 0.5747
vn 0.8473 0.5276 -0.0609
vn 0.9342 -0.3567 0.0114
vn 0.8139 -0.2838 -0.5070
vn 0.9099 0.3210 -0.2626
vn 0.8130 0.2375 -0.5316
vn 0.1825 -0.8738 -0.4508
vn 0.1085 0.9938 0.0237
vn 0.2585 0.4713 -0.8432
vn 0.0830 0.9890 0.1226
vn 0.4233 0.7955 -0.4336
vn -0.0078 1.0000 0.0027
vn -0.0103 0.9999 0.0045
vn -0.8525 -0.5190 0.0619
vn 0.7458 0.6662 0.0035
vn 0.0000 -0.0774 -0.9970
vn 0.0000 0.0751 -0.9972
vn 0.2556 0.3994 0.8804
vn 0.8692 -0.4908 -0.0606
vn 0.9520 -0.3045 -0.0328
vn 0.4559 0.8879 -0.0616
vn 0.9093 0.4150 -0.0303
vn 0.4261 -0.9021 -0.0687
vn 0.8003 0.5936 -0.0843
vn 0.9987 0.0367 -0.0347
vn -0.0473 -0.1386 -0.9892
vn 0.4890 -0.8707 -0.0520
vn 0.2780 -0.6290 0.7260
vn -0.0559 0.2858 -0.9567
vn 0.5069 -0.8548 0.1114
vn 0.1909 0.9814 0.0223
vn 0.1401 -0.9875 0.0722
vn 0.9328 -0.3596 0.0243
vn 0.9372 0.2975 0.1823
vn 0.2230 0.7112 0.6667
vn 0.2478 0.5493 0.7980
vn 0.9740 0.2190 0.0586
vn 0.9833 0.1792 0.0318
vn 0.2640 0.5808 0.7701
vn 0.9571 0.2647 0.1176
vn 0.2334 -0.7678 0.5966
vn -0.6205 0.1376 0.7721
vn -0.1739 0.7572 -0.6296
vn -0.1903 0.9808 0.0422
vn 0.4703 -0.0779 0.8791
vn 0.2068 -0.9440 0.2572
vn 0.7667 -0.3007 0.5672
vn 0.9750 0.2204 0.0292
vn 0.9782 0.2075 0.0080
vn 0.9758 0.2137 0.0459
vn 0.9843 0.1744 0.0273
vn 0.9815 0.1893 0.0279
vn -0.0550 0.1397 0.9887
vn 0.0828 -0.2888 -0.9538
vn 0.1903 -0.9809 -0.0405
vn 0.2299 0.8382 0.4946
vn 0.1743 0.8222 0.5419
vn 0.2153 0.7821 0.5847
vn 0.2166 0.8172 0.5341
vn 0.1158 0.9863 -0.1176
vn -0.0306 -0.9925 0.1184
vn -1.0000 0.0000 -0.0000
vn 0.0000 0.0000 -1.0000
vn 1.0000 0.0000 -0.0000
vn 0.0000 0.8886 -0.4587
vn 0.0000 -1.0000 -0.0000
vn 0.0000 1.0000 -0.0000
vn 0.0000 0.3754 0.9268
vn 0.0000 -0.8780 0.4788
vn 0.0000 0.0000 1.0000
vn 0.9115 0.4114 -0.0000
vn -0.9061 -0.4230 -0.0000
vn 0.5914 0.8064 -0.0000
vn 0.7971 0.6039 -0.0000
vn -0.7493 -0.6622 -0.0000
vn -0.5060 -0.8625 -0.0000
vn -0.1317 -0.9911 0.0187
vn -0.9976 -0.0539 -0.0441
vn 0.5719 0.8201 0.0185
vn -0.2013 0.4596 -0.8650
vn -0.2308 0.7851 0.5747
vn -0.8473 0.5276 -0.0609
vn -0.9342 -0.3567 0.0114
vn -0.8139 -0.2838 -0.5070
vn -0.9099 0.3210 -0.2626
vn -0.8130 0.2375 -0.5316
vn -0.1825 -0.8738 -0.4508
vn -0.1085 0.9938 0.0237
vn -0.2585 0.4713 -0.8432
vn -0.0830 0.9890 0.1226
vn -0.4233 0.7955 -0.4336
vn 0.0078 1.0000 0.0027
vn 0.0103 0.9999 0.0045
vn 0.8525 -0.5190 0.0619
vn -0.7458 0.6662 0.0035
vn -0.2556 0.3994 0.8804
vn -0.8692 -0.4908 -0.0606
vn -0.9520 -0.3045 -0.0328
vn -0.4559 0.8879 -0.0616
vn -0.9093 0.4150 -0.0303
vn -0.4261 -0.9021 -0.0687
vn -0.8003 0.5936 -0.0843
vn -0.9987 0.0367 -0.0347
vn 0.0473 -0.1386 -0.9892
vn -0.4890 -0.8707 -0.0520
vn -0.2780 -0.6290 0.7260
vn 0.0559 0.2858 -0.9567
vn -0.5069 -0.8548 0.1114
vn -0.1909 0.9814 0.0223
vn -0.1401 -0.9875 0.0722
vn -0.9328 -0.3596 0.0243
vn -0.9372 0.2975 0.1823
vn -0.2230 0.7112 0.6667
vn -0.2479 0.5493 0.7980
vn -0.9740 0.2190 0.0586
vn -0.9833 0.1792 0.0318
vn -0.2640 0.5808 0.7701
vn -0.9571 0.2647 0.1176
vn -0.2334 -0.7678 0.5966
vn 0.6205 0.1376 0.7721
vn 0.1739 0.7572 -0.6296
vn 0.1903 0.9808 0.0422
vn -0.4703 -0.0779 0.8791
vn -0.2068 -0.9440 0.2572
vn -0.7667 -0.3007 0.5672
vn -0.9750 0.2204 0.0292
vn -0.9782 0.2075 0.0080
vn -0.9758 0.2137 0.0459
vn -0.9843 0.1744 0.0273
vn -0.9815 0.1893 0.0279
vn 0.0550 0.1397 0.9887
vn -0.0828 -0.2888 -0.9538
vn -0.1903 -0.9809 -0.0405
vn -0.2299 0.8382 0.4946
vn -0.1743 0.8222 0.5419
vn -0.2153 0.7821 0.5847
vn -0.2166 0.8172 0.5341
vn -0.1158 0.9863 -0.1176
vn 0.0306 -0.9925 0.1184
vn -0.9115 0.4114 -0.0000
vn 0.9061 -0.4230 -0.0000
vn -0.5914 0.8064 -0.0000
vn -0.7971 0.6039 -0.0000
vn 0.7493 -0.6622 -0.0000
vn 0.5060 -0.8625 -0.0000
# 149 vertex normals

vt 0.1974 0.9585 0.0000
vt 0.2074 0.9585 0.0000
vt 0.2074 0.9685 0.0000
vt 0.1974 0.9685 0.0000
vt 0.7902 0.9632 0.0000
vt 0.7902 0.9732 0.0000
vt 0.7802 0.9732 0.0000
vt 0.7802 0.9632 0.0000
vt 0.7902 0.9585 0.0000
vt 0.7902 0.9685 0.0000
vt 0.7802 0.9685 0.0000
vt 0.7802 0.9585 0.0000
# 12 texture coords

o helicopter
g helicopter
usemtl helicopter_Material
s off
f 1/1/1 2/2/1 3/3/1 
f 3/3/1 4/4/1 1/1/1 
f 5/1/2 6/2/2 7/3/2 
f 7/3/2 8/4/2 5/1/2 
f 9/5/3 10/6/3 11/7/3 
f 11/7/3 12/8/3 9/5/3 
f 13/1/4 14/2/4 15/3/4 
f 15/3/4 16/4/4 13/1/4 
f 17/2/5 18/3/5 19/4/5 
f 19/4/5 20/1/5 17/2/5 
f 21/1/6 22/2/6 23/3/6 
f 23/3/6 24/4/6 21/1/6 
f 25/2/7 26/3/7 3/4/7 
f 3/4/7 2/1/7 25/2/7 
f 27/1/8 28/2/8 25/3/8 
f 25/3/8 2/4/8 27/1/8 
f 29/1/9 13/2/9 16/3/9 
f 16/3/9 30/4/9 29/1/9 
f 28/1/10 31/2/10 32/3/10 
f 32/3/10 25/4/10 28/1/10 
f 27/2/11 2/3/11 1/4/11 
f 1/4/11 33/1/11 27/2/11 
f 34/2/12 35/3/12 32/4/12 
f 32/4/12 29/1/12 34/2/12 
f 14/1/13 13/2/13 31/3/13 
f 31/3/13 36/4/13 14/1/13 
f 37/2/14 38/3/14 39/4/14 
f 39/4/14 34/1/14 37/2/14 
f 13/1/15 29/2/15 32/3/15 
f 32/3/15 31/4/15 13/1/15 
f 40/2/16 41/3/16 42/4/16 
f 42/4/16 30/1/16 40/2/16 
f 16/1/17 15/2/17 40/3/17 
f 40/3/17 30/4/17 16/1/17 
f 43/5/18 44/6/18 45/7/18 
f 45/7/18 46/8/18 43/5/18 
f 29/2/19 30/3/19 42/4/19 
f 42/4/19 34/1/19 29/2/19 
f 47/1/20 48/2/20 24/3/20 
f 24/3/20 23/4/20 47/1/20 
f 47/2/21 23/3/21 5/4/21 
f 5/4/21 49/1/21 47/2/21 
f 50/1/22 21/2/22 51/3/22 
f 51/3/22 52/4/22 50/1/22 
f 6/2/23 5/3/23 23/4/23 
f 23/4/23 22/1/23 6/2/23 
f 27/2/24 6/3/24 22/4/24 
f 22/4/24 28/1/24 27/2/24 
f 31/2/25 21/3/25 50/4/25 
f 50/4/25 36/1/25 31/2/25 
f 31/1/26 28/2/26 22/3/26 
f 22/3/26 21/4/26 31/1/26 
f 33/2/27 53/3/27 6/4/27 
f 6/4/27 27/1/27 33/2/27 
f 51/2/28 54/3/28 55/4/28 
f 55/4/28 52/1/28 51/2/28 
f 24/2/29 54/3/29 51/4/29 
f 51/4/29 21/1/29 24/2/29 
f 48/2/30 55/3/30 54/4/30 
f 54/4/30 24/1/30 48/2/30 
f 56/2/31 57/3/31 8/4/31 
f 8/4/31 7/1/31 56/2/31 
f 53/2/32 56/3/32 7/4/32 
f 7/4/32 6/1/32 53/2/32 
f 49/1/33 5/2/33 8/3/33 
f 8/3/33 57/4/33 49/1/33 
f 58/8/34 59/5/34 60/6/34 
f 60/6/34 61/7/34 58/8/34 
f 35/1/35 34/2/35 39/3/35 
f 4/1/36 3/2/36 62/3/36 
f 62/3/36 63/4/36 4/1/36 
f 26/2/37 20/3/37 62/4/37 
f 62/4/37 3/1/37 26/2/37 
f 58/2/38 35/3/38 39/4/38 
f 39/4/38 59/1/38 58/2/38 
f 59/2/39 39/3/39 38/4/39 
f 38/4/39 64/1/39 59/2/39 
f 65/2/40 17/3/40 20/4/40 
f 20/4/40 12/1/40 65/2/40 
f 9/1/41 12/2/41 20/3/41 
f 20/3/41 26/4/41 9/1/41 
f 58/1/42 9/2/42 26/3/42 
f 26/3/42 35/4/42 58/1/42 
f 11/8/43 60/5/43 66/6/43 
f 66/6/43 67/7/43 11/8/43 
f 10/8/44 61/5/44 60/6/44 
f 60/6/44 11/7/44 10/8/44 
f 64/5/45 66/6/45 60/7/45 
f 60/7/45 59/8/45 64/5/45 
f 9/8/46 58/5/46 61/6/46 
f 61/6/46 10/7/46 9/8/46 
f 65/8/47 12/5/47 11/6/47 
f 11/6/47 67/7/47 65/8/47 
f 68/5/48 69/6/48 70/7/48 
f 70/7/48 71/8/48 68/5/48 
f 72/1/49 19/2/49 18/3/49 
f 18/3/49 73/4/49 72/1/49 
f 63/1/50 62/2/50 72/3/50 
f 72/3/50 73/4/50 63/1/50 
f 62/1/51 20/2/51 19/3/51 
f 19/3/51 72/4/51 62/1/51 
f 74/1/52 68/2/52 25/3/52 
f 25/3/52 32/4/52 74/1/52 
f 74/2/53 32/3/53 35/4/53 
f 35/4/53 75/1/53 74/2/53 
f 68/1/54 71/2/54 26/3/54 
f 26/3/54 25/4/54 68/1/54 
f 71/1/55 75/2/55 35/3/55 
f 35/3/55 26/4/55 71/1/55 
f 69/8/56 76/5/56 77/6/56 
f 77/6/56 70/7/56 69/8/56 
f 74/5/57 76/6/57 69/7/57 
f 69/7/57 68/8/57 74/5/57 
f 71/5/58 70/6/58 77/7/58 
f 77/7/58 75/8/58 71/5/58 
f 75/5/59 77/6/59 76/7/59 
f 76/7/59 74/8/59 75/5/59 
f 46/1/60 78/2/60 37/3/60 
f 37/3/60 34/4/60 46/1/60 
f 43/2/61 42/3/61 41/4/61 
f 41/4/61 79/1/61 43/2/61 
f 46/2/62 34/3/62 42/4/62 
f 42/4/62 43/1/62 46/2/62 
f 80/8/63 45/5/63 44/6/63 
f 44/6/63 81/7/63 80/8/63 
f 46/5/64 45/6/64 80/7/64 
f 80/7/64 78/8/64 46/5/64 
f 43/8/65 79/5/65 81/6/65 
f 81/6/65 44/7/65 43/8/65 
f 82/9/66 83/10/66 84/11/66 
f 84/11/66 85/12/66 82/9/66 
f 83/9/67 86/10/67 87/11/67 
f 87/11/67 84/12/67 83/9/67 
f 88/9/68 89/10/68 90/11/68 
f 90/11/68 91/12/68 88/9/68 
f 92/9/69 93/10/69 94/11/69 
f 94/11/69 89/12/69 92/9/69 
f 91/9/70 90/10/70 95/11/70 
f 95/11/70 96/12/70 91/9/70 
f 97/9/71 92/10/71 89/11/71 
f 89/11/71 88/12/71 97/9/71 
f 94/9/72 93/10/72 98/11/72 
f 98/11/72 99/12/72 94/9/72 
f 89/9/68 94/10/68 99/11/68 
f 99/11/68 90/12/68 89/9/68 
f 92/12/66 95/9/66 98/10/66 
f 98/10/66 93/11/66 92/12/66 
f 90/9/73 99/10/73 98/11/73 
f 98/11/73 95/12/73 90/9/73 
f 83/9/71 82/10/71 100/11/71 
f 100/11/71 86/12/71 83/9/71 
f 101/12/74 102/9/74 103/10/74 
f 103/10/74 104/11/74 101/12/74 
f 101/9/71 105/10/71 106/11/71 
f 106/11/71 102/12/71 101/9/71 
f 97/12/74 88/9/74 107/10/74 
f 107/10/74 108/11/74 97/12/74 
f 87/9/70 109/10/70 85/11/70 
f 85/11/70 84/12/70 87/9/70 
f 109/9/70 110/10/70 111/11/70 
f 111/11/70 85/12/70 109/9/70 
f 110/9/70 112/10/70 113/11/70 
f 113/11/70 111/12/70 110/9/70 
f 112/9/70 91/10/70 96/11/70 
f 96/11/70 113/12/70 112/9/70 
f 86/9/68 100/10/68 109/11/68 
f 109/11/68 87/12/68 86/9/68 
f 100/9/68 102/10/68 110/11/68 
f 110/11/68 109/12/68 100/9/68 
f 102/9/68 106/10/68 112/11/68 
f 112/11/68 110/12/68 102/9/68 
f 106/9/68 88/10/68 91/11/68 
f 91/11/68 112/12/68 106/9/68 
f 92/9/66 97/10/66 96/11/66 
f 96/11/66 95/12/66 92/9/66 
f 97/9/66 105/10/66 113/11/66 
f 113/11/66 96/12/66 97/9/66 
f 105/9/66 101/10/66 111/11/66 
f 111/11/66 113/12/66 105/9/66 
f 101/9/66 82/10/66 85/11/66 
f 85/11/66 111/12/66 101/9/66 
f 104/12/74 103/9/74 114/10/74 
f 114/10/74 115/11/74 104/12/74 
f 108/12/74 107/9/74 116/10/74 
f 116/10/74 117/11/74 108/12/74 
f 106/9/75 118/10/75 107/11/75 
f 107/11/75 88/12/75 106/9/75 
f 100/9/75 119/10/75 103/11/75 
f 103/11/75 102/12/75 100/9/75 
f 105/9/67 120/10/67 118/11/67 
f 118/11/67 106/12/67 105/9/67 
f 101/9/76 104/10/76 121/11/76 
f 121/11/76 82/12/76 101/9/76 
f 82/9/67 121/10/67 119/11/67 
f 119/11/67 100/12/67 82/9/67 
f 97/9/76 108/10/76 120/11/76 
f 120/11/76 105/12/76 97/9/76 
f 122/9/77 123/10/77 124/11/77 
f 124/11/77 114/12/77 122/9/77 
f 125/9/67 126/10/67 123/11/67 
f 123/11/67 122/12/67 125/9/67 
f 118/9/78 127/10/78 116/11/78 
f 116/11/78 107/12/78 118/9/78 
f 104/9/79 115/10/79 125/11/79 
f 125/11/79 121/12/79 104/9/79 
f 120/9/67 128/10/67 127/11/67 
f 127/11/67 118/12/67 120/9/67 
f 121/9/67 125/10/67 122/11/67 
f 122/11/67 119/12/67 121/9/67 
f 119/9/78 122/10/78 114/11/78 
f 114/11/78 103/12/78 119/9/78 
f 108/9/79 117/10/79 128/11/79 
f 128/11/79 120/12/79 108/9/79 
f 126/9/71 129/10/71 124/11/71 
f 124/11/71 123/12/71 126/9/71 
f 130/9/71 131/10/71 132/11/71 
f 132/11/71 133/12/71 130/9/71 
f 117/9/80 131/10/80 130/11/80 
f 130/11/80 128/12/80 117/9/80 
f 117/12/74 116/9/74 132/10/74 
f 132/10/74 131/11/74 117/12/74 
f 115/12/74 114/9/74 124/10/74 
f 124/10/74 129/11/74 115/12/74 
f 127/9/77 133/10/77 132/11/77 
f 132/11/77 116/12/77 127/9/77 
f 115/9/80 129/10/80 126/11/80 
f 126/11/80 125/12/80 115/9/80 
f 128/9/67 130/10/67 133/11/67 
f 133/11/67 127/12/67 128/9/67 
f 1/1/81 4/4/81 134/3/81 
f 134/3/81 135/2/81 1/1/81 
f 136/1/82 137/4/82 138/3/82 
f 138/3/82 139/2/82 136/1/82 
f 140/7/83 141/6/83 142/5/83 
f 142/5/83 143/8/83 140/7/83 
f 144/1/84 145/4/84 15/3/84 
f 15/3/84 14/2/84 144/1/84 
f 146/4/85 18/3/85 17/2/85 
f 17/2/85 147/1/85 146/4/85 
f 148/1/86 149/4/86 150/3/86 
f 150/3/86 151/2/86 148/1/86 
f 134/4/87 152/3/87 153/2/87 
f 153/2/87 135/1/87 134/4/87 
f 154/1/88 135/4/88 153/3/88 
f 153/3/88 155/2/88 154/1/88 
f 156/1/89 157/4/89 145/3/89 
f 145/3/89 144/2/89 156/1/89 
f 155/1/90 153/4/90 158/3/90 
f 158/3/90 159/2/90 155/1/90 
f 1/4/91 135/3/91 154/2/91 
f 154/2/91 33/1/91 1/4/91 
f 158/4/92 160/3/92 161/2/92 
f 161/2/92 156/1/92 158/4/92 
f 14/1/93 36/4/93 159/3/93 
f 159/3/93 144/2/93 14/1/93 
f 162/4/94 38/3/94 37/2/94 
f 37/2/94 161/1/94 162/4/94 
f 144/1/95 159/4/95 158/3/95 
f 158/3/95 156/2/95 144/1/95 
f 163/4/96 41/3/96 40/2/96 
f 40/2/96 157/1/96 163/4/96 
f 145/1/97 157/4/97 40/3/97 
f 40/3/97 15/2/97 145/1/97 
f 164/7/98 165/6/98 166/5/98 
f 166/5/98 167/8/98 164/7/98 
f 163/4/99 157/3/99 156/2/99 
f 156/2/99 161/1/99 163/4/99 
f 47/1/20 150/4/20 149/3/20 
f 149/3/20 48/2/20 47/1/20 
f 136/4/21 150/3/21 47/2/21 
f 47/2/21 49/1/21 136/4/21 
f 50/1/100 52/4/100 168/3/100 
f 168/3/100 148/2/100 50/1/100 
f 150/4/101 136/3/101 139/2/101 
f 139/2/101 151/1/101 150/4/101 
f 151/4/102 139/3/102 154/2/102 
f 154/2/102 155/1/102 151/4/102 
f 50/4/103 148/3/103 159/2/103 
f 159/2/103 36/1/103 50/4/103 
f 159/1/104 148/4/104 151/3/104 
f 151/3/104 155/2/104 159/1/104 
f 139/4/105 53/3/105 33/2/105 
f 33/2/105 154/1/105 139/4/105 
f 55/4/106 169/3/106 168/2/106 
f 168/2/106 52/1/106 55/4/106 
f 168/4/107 169/3/107 149/2/107 
f 149/2/107 148/1/107 168/4/107 
f 169/4/108 55/3/108 48/2/108 
f 48/2/108 149/1/108 169/4/108 
f 137/4/109 57/3/109 56/2/109 
f 56/2/109 138/1/109 137/4/109 
f 138/4/110 56/3/110 53/2/110 
f 53/2/110 139/1/110 138/4/110 
f 49/1/111 57/4/111 137/3/111 
f 137/3/111 136/2/111 49/1/111 
f 170/8/112 171/7/112 172/6/112 
f 172/6/112 173/5/112 170/8/112 
f 160/1/113 162/3/113 161/2/113 
f 4/1/114 63/4/114 174/3/114 
f 174/3/114 134/2/114 4/1/114 
f 174/4/115 147/3/115 152/2/115 
f 152/2/115 134/1/115 174/4/115 
f 162/4/116 160/3/116 170/2/116 
f 170/2/116 173/1/116 162/4/116 
f 38/4/117 162/3/117 173/2/117 
f 173/2/117 64/1/117 38/4/117 
f 147/4/118 17/3/118 65/2/118 
f 65/2/118 143/1/118 147/4/118 
f 142/1/119 152/4/119 147/3/119 
f 147/3/119 143/2/119 142/1/119 
f 170/1/120 160/4/120 152/3/120 
f 152/3/120 142/2/120 170/1/120 
f 140/8/121 67/7/121 66/6/121 
f 66/6/121 172/5/121 140/8/121 
f 141/8/122 140/7/122 172/6/122 
f 172/6/122 171/5/122 141/8/122 
f 172/7/123 66/6/123 64/5/123 
f 64/5/123 173/8/123 172/7/123 
f 142/8/124 141/7/124 171/6/124 
f 171/6/124 170/5/124 142/8/124 
f 65/8/125 67/7/125 140/6/125 
f 140/6/125 143/5/125 65/8/125 
f 175/7/126 176/6/126 177/5/126 
f 177/5/126 178/8/126 175/7/126 
f 179/1/127 73/4/127 18/3/127 
f 18/3/127 146/2/127 179/1/127 
f 63/1/128 73/4/128 179/3/128 
f 179/3/128 174/2/128 63/1/128 
f 174/1/129 179/4/129 146/3/129 
f 146/3/129 147/2/129 174/1/129 
f 180/1/130 158/4/130 153/3/130 
f 153/3/130 177/2/130 180/1/130 
f 160/4/131 158/3/131 180/2/131 
f 180/2/131 181/1/131 160/4/131 
f 177/1/132 153/4/132 152/3/132 
f 152/3/132 178/2/132 177/1/132 
f 178/1/133 152/4/133 160/3/133 
f 160/3/133 181/2/133 178/1/133 
f 176/8/134 175/7/134 182/6/134 
f 182/6/134 183/5/134 176/8/134 
f 176/7/135 183/6/135 180/5/135 
f 180/5/135 177/8/135 176/7/135 
f 182/7/136 175/6/136 178/5/136 
f 178/5/136 181/8/136 182/7/136 
f 183/7/137 182/6/137 181/5/137 
f 181/5/137 180/8/137 183/7/137 
f 167/1/138 161/4/138 37/3/138 
f 37/3/138 78/2/138 167/1/138 
f 41/4/139 163/3/139 166/2/139 
f 166/2/139 79/1/139 41/4/139 
f 163/4/140 161/3/140 167/2/140 
f 167/2/140 166/1/140 163/4/140 
f 80/8/141 81/7/141 165/6/141 
f 165/6/141 164/5/141 80/8/141 
f 80/7/142 164/6/142 167/5/142 
f 167/5/142 78/8/142 80/7/142 
f 166/8/143 165/7/143 81/6/143 
f 81/6/143 79/5/143 166/8/143 
f 184/11/68 185/10/68 186/9/68 
f 186/9/68 187/12/68 184/11/68 
f 188/11/67 189/10/67 185/9/67 
f 185/9/67 184/12/67 188/11/67 
f 190/11/66 191/10/66 192/9/66 
f 192/9/66 193/12/66 190/11/66 
f 194/11/69 195/10/69 196/9/69 
f 196/9/69 191/12/69 194/11/69 
f 197/11/70 190/10/70 193/9/70 
f 193/9/70 198/12/70 197/11/70 
f 191/11/71 196/10/71 199/9/71 
f 199/9/71 192/12/71 191/11/71 
f 200/11/72 195/10/72 194/9/72 
f 194/9/72 201/12/72 200/11/72 
f 201/11/66 194/10/66 191/9/66 
f 191/9/66 190/12/66 201/11/66 
f 196/12/68 195/11/68 200/10/68 
f 200/10/68 197/9/68 196/12/68 
f 200/11/73 201/10/73 190/9/73 
f 190/9/73 197/12/73 200/11/73 
f 202/11/71 186/10/71 185/9/71 
f 185/9/71 189/12/71 202/11/71 
f 203/12/74 204/11/74 205/10/74 
f 205/10/74 206/9/74 203/12/74 
f 207/11/71 208/10/71 203/9/71 
f 203/9/71 206/12/71 207/11/71 
f 199/12/74 209/11/74 210/10/74 
f 210/10/74 192/9/74 199/12/74 
f 187/11/70 211/10/70 188/9/70 
f 188/9/70 184/12/70 187/11/70 
f 212/11/70 213/10/70 211/9/70 
f 211/9/70 187/12/70 212/11/70 
f 214/11/70 215/10/70 213/9/70 
f 213/9/70 212/12/70 214/11/70 
f 198/11/70 193/10/70 215/9/70 
f 215/9/70 214/12/70 198/11/70 
f 211/11/66 202/10/66 189/9/66 
f 189/9/66 188/12/66 211/11/66 
f 213/11/66 206/10/66 202/9/66 
f 202/9/66 211/12/66 213/11/66 
f 215/11/66 207/10/66 206/9/66 
f 206/9/66 213/12/66 215/11/66 
f 193/11/66 192/10/66 207/9/66 
f 207/9/66 215/12/66 193/11/66 
f 198/11/68 199/10/68 196/9/68 
f 196/9/68 197/12/68 198/11/68 
f 214/11/68 208/10/68 199/9/68 
f 199/9/68 198/12/68 214/11/68 
f 212/11/68 203/10/68 208/9/68 
f 208/9/68 214/12/68 212/11/68 
f 187/11/68 186/10/68 203/9/68 
f 203/9/68 212/12/68 187/11/68 
f 204/12/74 216/11/74 217/10/74 
f 217/10/74 205/9/74 204/12/74 
f 209/12/74 218/11/74 219/10/74 
f 219/10/74 210/9/74 209/12/74 
f 210/11/144 220/10/144 207/9/144 
f 207/9/144 192/12/144 210/11/144 
f 205/11/144 221/10/144 202/9/144 
f 202/9/144 206/12/144 205/11/144 
f 220/11/67 222/10/67 208/9/67 
f 208/9/67 207/12/67 220/11/67 
f 223/11/145 204/10/145 203/9/145 
f 203/9/145 186/12/145 223/11/145 
f 221/11/67 223/10/67 186/9/67 
f 186/9/67 202/12/67 221/11/67 
f 222/11/145 209/10/145 199/9/145 
f 199/9/145 208/12/145 222/11/145 
f 224/11/146 225/10/146 226/9/146 
f 226/9/146 217/12/146 224/11/146 
f 225/11/67 227/10/67 228/9/67 
f 228/9/67 226/12/67 225/11/67 
f 219/11/147 229/10/147 220/9/147 
f 220/9/147 210/12/147 219/11/147 
f 228/11/148 216/10/148 204/9/148 
f 204/9/148 223/12/148 228/11/148 
f 229/11/67 230/10/67 222/9/67 
f 222/9/67 220/12/67 229/11/67 
f 226/11/67 228/10/67 223/9/67 
f 223/9/67 221/12/67 226/11/67 
f 217/11/147 226/10/147 221/9/147 
f 221/9/147 205/12/147 217/11/147 
f 230/11/148 218/10/148 209/9/148 
f 209/9/148 222/12/148 230/11/148 
f 224/11/71 231/10/71 227/9/71 
f 227/9/71 225/12/71 224/11/71 
f 232/11/71 233/10/71 234/9/71 
f 234/9/71 235/12/71 232/11/71 
f 234/11/149 233/10/149 218/9/149 
f 218/9/149 230/12/149 234/11/149 
f 218/12/74 233/11/74 232/10/74 
f 232/10/74 219/9/74 218/12/74 
f 216/12/74 231/11/74 224/10/74 
f 224/10/74 217/9/74 216/12/74 
f 232/11/146 235/10/146 229/9/146 
f 229/9/146 219/12/146 232/11/146 
f 227/11/149 231/10/149 216/9/149 
f 216/9/149 228/12/149 227/11/149 
f 235/11/67 234/10/67 230/9/67 
f 230/9/67 229/12/67 235/11/67 
# 458 faces

